<svg width="20" height="20" viewBox="0 0 20 20" fill="none" xmlns="http://www.w3.org/2000/svg">
<g clip-path="url(#clip0_1066_3507)">
<path d="M20 9.9999C20 4.47705 15.5229 -0.000101089 10 -0.000101089C4.47715 -0.000101089 0 4.47705 0 9.9999C0 14.9912 3.65686 19.1282 8.4375 19.8784V12.8905H5.89844V9.9999H8.4375V7.79677C8.4375 5.29052 9.93043 3.90615 12.2146 3.90615C13.3087 3.90615 14.4531 4.10146 14.4531 4.10146V6.5624H13.1921C11.9499 6.5624 11.5625 7.33324 11.5625 8.12406V9.9999H14.3359L13.8926 12.8905H11.5625V19.8784C16.3431 19.1282 20 14.9912 20 9.9999Z" fill="#1877F2"/>
<path d="M13.8926 12.8906L14.3359 10H11.5625V8.12416C11.5625 7.33334 11.9499 6.5625 13.1921 6.5625H14.4531V4.10156C14.4531 4.10156 13.3087 3.90625 12.2146 3.90625C9.93043 3.90625 8.4375 5.29062 8.4375 7.79688V10H5.89844V12.8906H8.4375V19.8785C8.94662 19.9584 9.46844 20 10 20C10.5316 20 11.0534 19.9584 11.5625 19.8785V12.8906H13.8926Z" fill="white"/>
</g>
<defs>
<clipPath id="clip0_1066_3507">
<rect width="20" height="20" fill="white"/>
</clipPath>
</defs>
</svg>
