<svg width="255" height="24" viewBox="0 0 255 24" fill="none" xmlns="http://www.w3.org/2000/svg">
<g clip-path="url(#clip0_1066_1218)">
<path d="M25.2459 6.01855C22.4959 6.01855 20.0384 7.37739 20.0384 9.88793C20.0384 12.7671 24.3969 12.9659 24.3969 14.4123C24.3969 15.0213 23.6648 15.5665 22.4144 15.5665C20.6398 15.5665 19.3135 14.8047 19.3135 14.8047L18.746 17.3381C18.746 17.3381 20.2739 17.9816 22.3024 17.9816C25.3091 17.9816 27.6749 16.556 27.6749 14.0026C27.6749 10.9603 23.2982 10.7673 23.2982 9.42482C23.2982 8.94774 23.8992 8.42501 25.1461 8.42501C26.5529 8.42501 27.7006 8.97902 27.7006 8.97902L28.2561 6.53216C28.2561 6.53216 27.0072 6.01855 25.2459 6.01855ZM0.0859732 6.20322L0.0193844 6.57256C0.0193844 6.57256 1.17632 6.77441 2.21833 7.17706C3.56 7.63878 3.65558 7.90757 3.88153 8.74241L6.34381 17.7912H9.64449L14.7295 6.20322H11.4363L8.16894 14.0819L6.83565 7.40357C6.71338 6.63923 6.09402 6.20322 5.33589 6.20322H0.0859732ZM16.0537 6.20322L13.4703 17.7912H16.6106L19.1848 6.20322H16.0537ZM33.568 6.20322C32.8108 6.20322 32.4096 6.5897 32.1152 7.26507L27.5145 17.7912H30.8076L31.4448 16.0368H35.4567L35.8442 17.7912H38.7498L36.2149 6.20322H33.568ZM33.9963 9.33393L34.9724 13.6823H32.3573L33.9963 9.33393Z" fill="#1434CB"/>
</g>
<path d="M57.4632 6.49683H50.7251V17.5022H57.4632V6.49683Z" fill="#FF5F00"/>
<path d="M51.4193 12.0006C51.4184 10.9409 51.6587 9.89484 52.1218 8.94168C52.5849 7.98851 53.2587 7.15318 54.0924 6.49889C53.0599 5.68748 51.82 5.18291 50.5143 5.04285C49.2086 4.9028 47.8899 5.1329 46.7088 5.70686C45.5278 6.28083 44.532 7.17549 43.8353 8.28862C43.1387 9.40174 42.7692 10.6884 42.7692 12.0016C42.7692 13.3147 43.1387 14.6014 43.8353 15.7145C44.532 16.8276 45.5278 17.7223 46.7088 18.2962C47.8899 18.8702 49.2086 19.1003 50.5143 18.9603C51.82 18.8202 53.0599 18.3156 54.0924 17.5042C53.2585 16.8497 52.5845 16.0141 52.1213 15.0606C51.6582 14.107 51.4181 13.0606 51.4193 12.0006V12.0006Z" fill="#EB001B"/>
<path d="M65.4165 12.0004C65.4164 13.3137 65.0469 14.6004 64.3501 15.7136C63.6533 16.8267 62.6574 17.7214 61.4762 18.2953C60.295 18.8691 58.9761 19.0991 57.6704 18.9588C56.3646 18.8186 55.1247 18.3138 54.0923 17.5021C54.9256 16.8472 55.5993 16.0117 56.0625 15.0584C56.5257 14.1052 56.7664 13.0593 56.7664 11.9994C56.7664 10.9396 56.5257 9.89364 56.0625 8.94042C55.5993 7.9872 54.9256 7.15164 54.0923 6.49677C55.1247 5.68511 56.3646 5.18029 57.6704 5.04003C58.9761 4.89978 60.295 5.12973 61.4762 5.70361C62.6574 6.27749 63.6533 7.17215 64.3501 8.2853C65.0469 9.39846 65.4164 10.6852 65.4165 11.9985V12.0004Z" fill="#F79E1B"/>
<path d="M87.5943 16.1778C87.5943 17.7333 86.3276 19 84.772 19H69.4165V7.82222C69.4165 6.26667 70.6831 5 72.2387 5H87.5943V16.1778V16.1778Z" fill="white"/>
<path d="M82.5944 13.3111H83.761C83.7944 13.3111 83.8721 13.2999 83.9055 13.2999C84.1277 13.2555 84.3166 13.0555 84.3166 12.7777C84.3166 12.5111 84.1277 12.3111 83.9055 12.2555C83.8721 12.2444 83.8055 12.2444 83.761 12.2444H82.5944V13.3111Z" fill="url(#paint0_linear_1066_1218)"/>
<path d="M83.6278 5.94434C82.5167 5.94434 81.6056 6.84434 81.6056 7.96656V10.0666H84.4611C84.5278 10.0666 84.6056 10.0666 84.6611 10.0777C85.3056 10.111 85.7834 10.4443 85.7834 11.0221C85.7834 11.4777 85.4611 11.8666 84.8611 11.9443V11.9666C85.5167 12.011 86.0167 12.3777 86.0167 12.9443C86.0167 13.5554 85.4611 13.9554 84.7278 13.9554H81.5945V18.0666H84.5611C85.6723 18.0666 86.5834 17.1666 86.5834 16.0443V5.94434H83.6278V5.94434Z" fill="url(#paint1_linear_1066_1218)"/>
<path d="M84.1721 11.1554C84.1721 10.8887 83.9832 10.7109 83.761 10.6776C83.7388 10.6776 83.6832 10.6665 83.6499 10.6665H82.5944V11.6443H83.6499C83.6832 11.6443 83.7499 11.6443 83.761 11.6332C83.9832 11.5998 84.1721 11.4221 84.1721 11.1554V11.1554Z" fill="url(#paint2_linear_1066_1218)"/>
<path d="M72.4497 5.94434C71.3386 5.94434 70.4275 6.84434 70.4275 7.96656V12.9554C70.9941 13.2332 71.583 13.411 72.1719 13.411C72.8719 13.411 73.2497 12.9888 73.2497 12.411V10.0554H74.983V12.3999C74.983 13.311 74.4164 14.0554 72.4941 14.0554C71.3275 14.0554 70.4164 13.7999 70.4164 13.7999V18.0554H73.383C74.4941 18.0554 75.4052 17.1554 75.4052 16.0332V5.94434H72.4497V5.94434Z" fill="url(#paint3_linear_1066_1218)"/>
<path d="M78.0386 5.94434C76.9275 5.94434 76.0163 6.84434 76.0163 7.96656V10.611C76.5275 10.1777 77.4163 9.89989 78.8497 9.96656C79.6164 9.99989 80.4386 10.211 80.4386 10.211V11.0666C80.0275 10.8554 79.5386 10.6666 78.9052 10.6221C77.8163 10.5443 77.1608 11.0777 77.1608 12.011C77.1608 12.9554 77.8163 13.4888 78.9052 13.3999C79.5386 13.3554 80.0275 13.1554 80.4386 12.9554V13.811C80.4386 13.811 79.6275 14.0221 78.8497 14.0554C77.4163 14.1221 76.5275 13.8443 76.0163 13.411V18.0777H78.983C80.0941 18.0777 81.0052 17.1777 81.0052 16.0554V5.94434H78.0386V5.94434Z" fill="url(#paint4_linear_1066_1218)"/>
<g clip-path="url(#clip1_1066_1218)">
<path d="M91.5943 5.00024H105.594V12.5579L104.901 13.6406L105.594 14.6043V19.0002H91.5943V11.8757L92.0274 11.3777L91.5943 10.9012V5.00024Z" fill="#016FD0"/>
<path d="M94.312 14.7556V12.5576H96.6392L96.8889 12.8831L97.1469 12.5576H105.594V14.604C105.594 14.604 105.373 14.7534 105.118 14.7556H100.44L100.159 14.4091V14.7556H99.2363V14.1642C99.2363 14.1642 99.1103 14.2467 98.8379 14.2467H98.5239V14.7556H97.1271L96.8778 14.4231L96.6246 14.7556H94.312Z" fill="white"/>
<path d="M91.5943 10.901L92.1191 9.67749H93.0267L93.3245 10.3629V9.67749H94.4527L94.63 10.1728L94.8019 9.67749H99.8665V9.92652C99.8665 9.92652 100.133 9.67749 100.57 9.67749L102.214 9.68323L102.506 10.3596V9.67749H103.45L103.71 10.066V9.67749H104.663V11.8755H103.71L103.461 11.4857V11.8755H102.074L101.935 11.529H101.562L101.424 11.8755H100.484C100.107 11.8755 99.8665 11.6315 99.8665 11.6315V11.8755H98.4481L98.1666 11.529V11.8755H92.8922L92.7528 11.529H92.3811L92.2427 11.8755H91.5943V10.901Z" fill="white"/>
<path d="M92.3048 9.94849L91.597 11.5943H92.0578L92.1884 11.2647H92.9477L93.0776 11.5943H93.5486L92.8415 9.94849H92.3048ZM92.5667 10.3315L92.7981 10.9074H92.3346L92.5667 10.3315V10.3315Z" fill="#016FD0"/>
<path d="M93.5974 11.594V9.94824L94.2522 9.95067L94.6331 11.0118L95.0049 9.94824H95.6546V11.594H95.2431V10.3813L94.807 11.594H94.4462L94.0088 10.3813V11.594H93.5974Z" fill="#016FD0"/>
<path d="M95.9361 11.594V9.94824H97.2787V10.3164H96.3519V10.5979H97.2571V10.9444H96.3519V11.2367H97.2787V11.594H95.9361Z" fill="#016FD0"/>
<path d="M97.5169 9.94849V11.5943H97.9284V11.0096H98.1016L98.5949 11.5943H99.0977L98.5564 10.9879C98.7785 10.9692 99.0077 10.7785 99.0077 10.4824C99.0077 10.1361 98.7359 9.94849 98.4325 9.94849H97.5169V9.94849ZM97.9284 10.3166H98.3987C98.5115 10.3166 98.5936 10.4049 98.5936 10.4899C98.5936 10.5992 98.4872 10.6631 98.4048 10.6631H97.9284V10.3166V10.3166Z" fill="#016FD0"/>
<path d="M99.5958 11.594H99.1757V9.94824H99.5958V11.594Z" fill="#016FD0"/>
<path d="M100.592 11.594H100.501C100.063 11.594 99.7961 11.2484 99.7961 10.7779C99.7961 10.2958 100.06 9.94824 100.614 9.94824H101.068V10.338H100.597C100.372 10.338 100.213 10.5136 100.213 10.782C100.213 11.1007 100.395 11.2346 100.657 11.2346H100.765L100.592 11.594Z" fill="#016FD0"/>
<path d="M101.487 9.94849L100.779 11.5943H101.24L101.371 11.2647H102.13L102.26 11.5943H102.731L102.024 9.94849H101.487ZM101.749 10.3315L101.981 10.9074H101.517L101.749 10.3315Z" fill="#016FD0"/>
<path d="M102.779 11.594V9.94824H103.302L103.97 10.9823V9.94824H104.382V11.594H103.875L103.191 10.5329V11.594H102.779Z" fill="#016FD0"/>
<path d="M94.5935 14.4742V12.8284H95.9361V13.1965H95.0093V13.478H95.9144V13.8245H95.0093V14.1168H95.9361V14.4742H94.5935Z" fill="#016FD0"/>
<path d="M101.172 14.4742V12.8284H102.515V13.1965H101.588V13.478H102.489V13.8245H101.588V14.1168H102.515V14.4742H101.172Z" fill="#016FD0"/>
<path d="M95.9882 14.4742L96.6419 13.6614L95.9726 12.8284H96.491L96.8896 13.3434L97.2895 12.8284H97.7876L97.1271 13.6513L97.782 14.4742H97.2638L96.8767 13.9673L96.4991 14.4742H95.9882Z" fill="#016FD0"/>
<path d="M97.8309 12.8286V14.4744H98.2532V13.9547H98.6863C99.0528 13.9547 99.3305 13.7603 99.3305 13.3822C99.3305 13.069 99.1127 12.8286 98.7398 12.8286H97.8309V12.8286ZM98.2532 13.2008H98.7093C98.8277 13.2008 98.9123 13.2734 98.9123 13.3903C98.9123 13.5001 98.8281 13.5798 98.7079 13.5798H98.2532V13.2008Z" fill="#016FD0"/>
<path d="M99.5092 12.8284V14.4742H99.9206V13.8895H100.094L100.587 14.4742H101.09L100.549 13.8678C100.771 13.8491 101 13.6584 101 13.3623C101 13.016 100.728 12.8284 100.425 12.8284H99.5092V12.8284ZM99.9206 13.1965H100.391C100.504 13.1965 100.586 13.2848 100.586 13.3697C100.586 13.4791 100.48 13.543 100.397 13.543H99.9206V13.1965V13.1965Z" fill="#016FD0"/>
<path d="M102.705 14.4742V14.1168H103.529C103.651 14.1168 103.703 14.051 103.703 13.9788C103.703 13.9096 103.651 13.8397 103.529 13.8397H103.157C102.833 13.8397 102.653 13.6426 102.653 13.3467C102.653 13.0829 102.818 12.8284 103.299 12.8284H104.1L103.927 13.1987H103.234C103.101 13.1987 103.061 13.2682 103.061 13.3346C103.061 13.4028 103.111 13.478 103.212 13.478H103.602C103.963 13.478 104.119 13.6825 104.119 13.9504C104.119 14.2383 103.945 14.4742 103.582 14.4742H102.705Z" fill="#016FD0"/>
<path d="M104.216 14.4742V14.1168H105.039C105.161 14.1168 105.214 14.051 105.214 13.9788C105.214 13.9096 105.161 13.8397 105.039 13.8397H104.667C104.343 13.8397 104.163 13.6426 104.163 13.3467C104.163 13.0829 104.328 12.8284 104.809 12.8284H105.61L105.437 13.1987H104.744C104.611 13.1987 104.571 13.2682 104.571 13.3346C104.571 13.4028 104.621 13.478 104.722 13.478H105.112C105.473 13.478 105.629 13.6825 105.629 13.9504C105.629 14.2383 105.455 14.4742 105.092 14.4742H104.216Z" fill="#016FD0"/>
</g>
<g clip-path="url(#clip2_1066_1218)">
<path d="M118.503 18C121.782 18.0157 124.776 15.3252 124.776 12.0521C124.776 8.47286 121.782 5.99881 118.503 6H115.68C112.361 5.99881 109.629 8.4736 109.629 12.0521C109.629 15.3259 112.361 18.0157 115.68 18H118.503Z" fill="#0079BE"/>
<path d="M115.693 6.49585C112.661 6.4968 110.203 8.95514 110.202 11.9892C110.203 15.0228 112.661 17.4809 115.693 17.4818C118.727 17.4809 121.185 15.0228 121.186 11.9892C121.185 8.95514 118.727 6.4968 115.693 6.49585ZM112.213 11.9892C112.216 10.5066 113.142 9.2423 114.447 8.7399V15.2378C113.142 14.7356 112.216 13.472 112.213 11.9892ZM116.939 15.2392V8.73968C118.245 9.24087 119.173 10.5059 119.175 11.9892C119.173 13.473 118.245 14.737 116.939 15.2392Z" fill="white"/>
<path d="M126.699 8.58158C126.699 8.01394 126.403 8.05132 126.12 8.04515V7.8811C126.366 7.89325 126.618 7.89325 126.864 7.89325C127.129 7.89325 127.489 7.8811 127.956 7.8811C129.59 7.8811 130.48 8.97253 130.48 10.0901C130.48 10.7151 130.114 12.2863 127.88 12.2863C127.558 12.2863 127.262 12.2739 126.965 12.2739C126.681 12.2739 126.403 12.2801 126.12 12.2863V12.1225C126.498 12.0844 126.681 12.0718 126.699 11.6425V8.58158H126.699ZM127.318 11.5418C127.318 12.0277 127.665 12.0844 127.974 12.0844C129.338 12.0844 129.785 11.0556 129.785 10.1151C129.785 8.93537 129.028 8.08346 127.81 8.08346C127.551 8.08346 127.432 8.10203 127.318 8.10872L127.318 11.5418Z" fill="#211E1F"/>
<path d="M130.701 12.1227H130.821C130.997 12.1227 131.123 12.1227 131.123 11.9139V10.2039C131.123 9.92657 131.029 9.88798 130.795 9.7625V9.66131C131.092 9.57226 131.446 9.45321 131.47 9.43417C131.515 9.40893 131.553 9.40226 131.584 9.40226C131.615 9.40226 131.628 9.44036 131.628 9.49107V11.9139C131.628 12.1227 131.767 12.1227 131.944 12.1227H132.051V12.2868C131.836 12.2868 131.615 12.2742 131.389 12.2742C131.162 12.2742 130.934 12.2804 130.701 12.2868V12.1227H130.701ZM131.376 8.43057C131.212 8.43057 131.067 8.27917 131.067 8.11509C131.067 7.957 131.218 7.81152 131.376 7.81152C131.54 7.81152 131.685 7.94464 131.685 8.11509C131.685 8.28557 131.546 8.43057 131.376 8.43057Z" fill="#211E1F"/>
<path d="M132.651 10.2414C132.651 10.0081 132.581 9.94519 132.285 9.82519V9.70546C132.556 9.61712 132.814 9.53498 133.117 9.40212C133.136 9.40212 133.155 9.41498 133.155 9.46522V9.87567C133.515 9.61712 133.824 9.4021 134.248 9.4021C134.783 9.4021 134.973 9.7935 134.973 10.2856V11.9138C134.973 12.1226 135.111 12.1226 135.288 12.1226H135.402V12.2866C135.181 12.2866 134.96 12.274 134.733 12.274C134.506 12.274 134.278 12.2802 134.051 12.2866V12.1226H134.165C134.342 12.1226 134.467 12.1226 134.467 11.9138V10.2797C134.467 9.91946 134.248 9.74303 133.887 9.74303C133.686 9.74303 133.364 9.9071 133.155 10.0461V11.9137C133.155 12.1226 133.294 12.1226 133.471 12.1226H133.585V12.2866C133.364 12.2866 133.143 12.274 132.916 12.274C132.689 12.274 132.461 12.2802 132.234 12.2866V12.1226H132.348C132.525 12.1226 132.651 12.1226 132.651 11.9137V10.2414H132.651Z" fill="#211E1F"/>
<path d="M135.882 10.5447C135.869 10.6016 135.869 10.6961 135.882 10.9109C135.919 11.5102 136.305 12.0024 136.809 12.0024C137.156 12.0024 137.428 11.8131 137.661 11.5797L137.749 11.6683C137.459 12.0531 137.099 12.3811 136.582 12.3811C135.579 12.3811 135.377 11.409 135.377 11.0055C135.377 9.76829 136.21 9.4021 136.651 9.4021C137.162 9.4021 137.712 9.72379 137.718 10.3928C137.718 10.4311 137.718 10.4685 137.712 10.5069L137.655 10.5447H135.882ZM136.999 10.3426C137.156 10.3426 137.175 10.2605 137.175 10.185C137.175 9.86305 136.979 9.60424 136.626 9.60424C136.241 9.60424 135.976 9.88781 135.901 10.3426H136.999Z" fill="#211E1F"/>
<path d="M137.863 12.1226H138.033C138.21 12.1226 138.336 12.1226 138.336 11.9138V10.1407C138.336 9.94519 138.103 9.9071 138.008 9.85662V9.76234C138.468 9.56639 138.721 9.4021 138.778 9.4021C138.816 9.4021 138.834 9.42115 138.834 9.48448V10.0523H138.848C139.005 9.80639 139.271 9.4021 139.655 9.4021C139.813 9.4021 140.015 9.50924 140.015 9.73662C140.015 9.9071 139.895 10.059 139.718 10.059C139.522 10.059 139.522 9.9071 139.302 9.9071C139.194 9.9071 138.841 10.0523 138.841 10.4311V11.9138C138.841 12.1226 138.967 12.1226 139.144 12.1226H139.497V12.2866C139.15 12.2802 138.886 12.274 138.614 12.274C138.355 12.274 138.09 12.2802 137.863 12.2866V12.1226H137.863Z" fill="#211E1F"/>
<path d="M140.292 11.409C140.375 11.8256 140.627 12.1792 141.088 12.1792C141.459 12.1792 141.598 11.9521 141.598 11.7311C141.598 10.9864 140.223 11.2261 140.223 10.2102C140.223 9.85662 140.507 9.4021 141.201 9.4021C141.403 9.4021 141.674 9.45924 141.92 9.58567L141.965 10.2288H141.819C141.756 9.83162 141.536 9.60427 141.131 9.60427C140.879 9.60427 140.639 9.74953 140.639 10.0207C140.639 10.7597 142.103 10.5319 142.103 11.5226C142.103 11.939 141.769 12.3812 141.018 12.3812C140.765 12.3812 140.469 12.2928 140.248 12.1669L140.179 11.441L140.292 11.409Z" fill="#211E1F"/>
<path d="M147.801 9.02351H147.644C147.524 8.28542 147 7.98851 146.293 7.98851C145.567 7.98851 144.513 8.4742 144.513 9.98875C144.513 11.2645 145.423 12.1792 146.394 12.1792C147.019 12.1792 147.537 11.7502 147.663 11.0873L147.807 11.1249L147.663 12.0463C147.398 12.2109 146.685 12.3811 146.268 12.3811C144.792 12.3811 143.858 11.4281 143.858 10.008C143.858 8.71423 145.012 7.78613 146.249 7.78613C146.76 7.78613 147.252 7.95089 147.738 8.12137L147.801 9.02351Z" fill="#211E1F"/>
<path d="M148.029 12.1227H148.148C148.325 12.1227 148.452 12.1227 148.452 11.9139V8.39915C148.452 7.98867 148.357 7.97603 148.117 7.90674V7.80579C148.369 7.72391 148.634 7.61008 148.767 7.53415C148.836 7.49653 148.887 7.4646 148.905 7.4646C148.944 7.4646 148.957 7.50272 148.957 7.55341V11.9139C148.957 12.1227 149.095 12.1227 149.272 12.1227H149.378V12.2868C149.165 12.2868 148.944 12.2741 148.717 12.2741C148.49 12.2741 148.262 12.2804 148.029 12.2868V12.1227H148.029Z" fill="#211E1F"/>
<path d="M152.08 11.939C152.08 12.0531 152.149 12.0593 152.256 12.0593C152.332 12.0593 152.427 12.0531 152.509 12.0531V12.186C152.237 12.211 151.72 12.3436 151.6 12.3812L151.568 12.3621V11.8514C151.19 12.1605 150.9 12.3812 150.451 12.3812C150.111 12.3812 149.757 12.1605 149.757 11.6307V10.0145C149.757 9.85045 149.732 9.69257 149.379 9.66117V9.54117C149.607 9.53497 150.111 9.49709 150.193 9.49709C150.263 9.49709 150.263 9.54117 150.263 9.67997V11.3078C150.263 11.4976 150.263 12.0402 150.811 12.0402C151.026 12.0402 151.31 11.8761 151.575 11.6559V9.95733C151.575 9.83162 151.272 9.76233 151.045 9.69897V9.5854C151.612 9.54731 151.966 9.49707 152.029 9.49707C152.08 9.49707 152.08 9.54112 152.08 9.61088V11.939H152.08Z" fill="#211E1F"/>
<path d="M153.336 9.85677C153.588 9.64222 153.929 9.40224 154.276 9.40224C155.008 9.40224 155.449 10.0403 155.449 10.7277C155.449 11.5544 154.844 12.3813 153.941 12.3813C153.474 12.3813 153.228 12.2296 153.064 12.1605L152.875 12.3053L152.743 12.2363C152.799 11.8639 152.831 11.4977 152.831 11.1129V8.39912C152.831 7.98867 152.736 7.97603 152.496 7.90674V7.80579C152.749 7.72391 153.014 7.61008 153.146 7.53412C153.216 7.4965 153.266 7.4646 153.286 7.4646C153.323 7.4646 153.336 7.50272 153.336 7.55341V9.85674H153.336V9.85677ZM153.336 11.5732C153.336 11.8132 153.563 12.2175 153.986 12.2175C154.661 12.2175 154.945 11.5544 154.945 10.9925C154.945 10.3111 154.428 9.74322 153.935 9.74322C153.701 9.74322 153.506 9.89489 153.336 10.0403V11.5732H153.336Z" fill="#211E1F"/>
<path d="M126.112 15.9559H126.161C126.284 15.9559 126.415 15.9393 126.415 15.7604V13.9614C126.415 13.7823 126.284 13.7654 126.161 13.7654H126.112V13.6624C126.246 13.6624 126.452 13.6759 126.621 13.6759C126.793 13.6759 126.998 13.6624 127.16 13.6624V13.7654H127.111C126.988 13.7654 126.858 13.7824 126.858 13.9614V15.7604C126.858 15.9393 126.988 15.9559 127.111 15.9559H127.16V16.0595C126.995 16.0595 126.789 16.0459 126.617 16.0459C126.449 16.0459 126.246 16.0595 126.112 16.0595V15.9559Z" fill="#211E1F"/>
<path d="M127.16 16.0741C126.994 16.0741 126.788 16.0603 126.617 16.0603C126.449 16.0603 126.248 16.0741 126.113 16.0741H126.098V16.0594V15.9563V15.9413H126.113H126.161C126.285 15.9384 126.399 15.9284 126.4 15.7606V13.9615C126.399 13.7936 126.285 13.7824 126.161 13.7801H126.098V13.7656V13.6472H126.113C126.248 13.6472 126.453 13.6608 126.621 13.6608C126.792 13.6608 126.998 13.6472 127.16 13.6472H127.175V13.6629V13.7801H127.16H127.112C126.987 13.7825 126.873 13.7936 126.873 13.9615V15.7606C126.873 15.9284 126.987 15.9384 127.112 15.9413H127.175V15.9563V16.0741H127.16ZM127.145 16.0448V15.9715H127.112C126.989 15.9715 126.843 15.9503 126.843 15.7606V13.9615C126.843 13.7717 126.989 13.7503 127.112 13.7503H127.145V13.6775C126.987 13.6775 126.788 13.6908 126.621 13.6908C126.458 13.6908 126.261 13.6784 126.128 13.6775V13.7503H126.161C126.283 13.7503 126.429 13.7717 126.429 13.9615V15.7606C126.429 15.9503 126.283 15.9715 126.161 15.9715H126.128V16.0448C126.261 16.0434 126.455 16.031 126.617 16.031C126.784 16.031 126.983 16.0439 127.145 16.0448Z" fill="#211E1F"/>
<path d="M129.519 15.3826L129.526 15.3759V14.0883C129.526 13.8064 129.33 13.7655 129.227 13.7655H129.151V13.6624C129.313 13.6624 129.471 13.6759 129.632 13.6759C129.772 13.6759 129.914 13.6624 130.054 13.6624V13.7655H130.003C129.858 13.7655 129.697 13.7928 129.697 14.2014V15.7643C129.697 15.8843 129.701 16.0043 129.717 16.1107H129.587L127.819 14.1395V15.5545C127.819 15.8534 127.877 15.956 128.142 15.956H128.2V16.0595C128.052 16.0595 127.905 16.046 127.757 16.046C127.603 16.046 127.445 16.0595 127.29 16.0595V15.956H127.338C127.575 15.956 127.647 15.795 127.647 15.5205V14.0741C127.647 13.8819 127.489 13.7655 127.335 13.7655H127.29V13.6624C127.421 13.6624 127.554 13.6759 127.685 13.6759C127.788 13.6759 127.888 13.6624 127.99 13.6624L129.519 15.3826Z" fill="#211E1F"/>
<path d="M129.717 16.1258L129.576 16.1205L127.833 14.1784V15.5546C127.837 15.8532 127.883 15.938 128.141 15.9413H128.215V15.956V16.0741H128.2C128.051 16.0741 127.903 16.0603 127.757 16.0603C127.603 16.0603 127.445 16.0741 127.29 16.0741H127.275V16.0594V15.9413H127.29H127.338C127.565 15.9401 127.63 15.7944 127.632 15.5206V14.0744C127.632 13.8915 127.482 13.7806 127.335 13.7801H127.275V13.7648V13.6477H127.29C127.421 13.6477 127.555 13.6608 127.684 13.6608C127.786 13.6608 127.886 13.6477 128.002 13.6527L129.511 15.3515V14.0887C129.509 13.8153 129.327 13.7825 129.227 13.7801H129.136V13.7648V13.6477H129.151C129.313 13.6477 129.471 13.6608 129.632 13.6608C129.771 13.6608 129.912 13.6477 130.054 13.6477H130.069V13.6625V13.7801H130.054H130.003C129.861 13.7841 129.716 13.7965 129.712 14.2015V15.7641C129.712 15.8841 129.715 16.0041 129.732 16.1082L129.735 16.1258H129.717V16.1258ZM129.587 16.0955H129.701C129.685 15.9924 129.682 15.8782 129.682 15.7641V14.2015C129.682 13.7893 129.855 13.7503 130.003 13.7503H130.039V13.6774C129.904 13.6784 129.768 13.6908 129.632 13.6908C129.475 13.6908 129.322 13.6784 129.166 13.6774L129.166 13.7503H129.227C129.332 13.7503 129.541 13.7974 129.541 14.0887L129.536 15.3863L129.529 15.3934L129.517 15.4041L127.99 13.6774C127.888 13.6774 127.789 13.6908 127.684 13.6908C127.558 13.6908 127.43 13.6784 127.305 13.6774L127.304 13.7503H127.335C127.496 13.7503 127.661 13.8734 127.661 14.0743V15.5205C127.661 15.795 127.585 15.9708 127.338 15.9717L127.305 15.9708V16.0448C127.454 16.0434 127.607 16.031 127.757 16.031C127.9 16.031 128.043 16.0434 128.185 16.0448V15.9717H128.141C127.871 15.9708 127.804 15.8532 127.804 15.5546V14.101L129.587 16.0955ZM129.519 15.3824L129.53 15.3724L129.519 15.3824ZM129.511 15.3758V15.3746L129.508 15.3722L129.511 15.3758Z" fill="#211E1F"/>
<path d="M130.568 13.8337C130.311 13.8337 130.301 13.8957 130.249 14.1461H130.146C130.16 14.0502 130.177 13.9542 130.187 13.8542C130.201 13.758 130.208 13.6623 130.208 13.5628H130.291C130.318 13.6659 130.404 13.6623 130.497 13.6623H132.268C132.361 13.6623 132.447 13.659 132.454 13.5557L132.536 13.5695C132.522 13.6623 132.509 13.7549 132.498 13.8478C132.492 13.9404 132.492 14.0333 132.492 14.1256L132.389 14.164C132.381 14.0371 132.364 13.8337 132.135 13.8337H131.571V15.6609C131.571 15.9256 131.692 15.9559 131.856 15.9559H131.921V16.0595C131.788 16.0595 131.547 16.0459 131.362 16.0459C131.156 16.0459 130.915 16.0595 130.781 16.0595V15.9559H130.847C131.036 15.9559 131.132 15.939 131.132 15.668V13.8337H130.568V13.8337Z" fill="#211E1F"/>
<path d="M131.922 16.0741C131.787 16.0741 131.547 16.0603 131.362 16.0603C131.156 16.0603 130.916 16.0741 130.781 16.0741H130.767V16.0596V15.9412H130.781H130.847C131.036 15.9367 131.112 15.9343 131.117 15.6681V13.8489H130.568V13.8338V13.8186H131.146V15.6681C131.146 15.9436 131.035 15.9714 130.847 15.9717H130.796V16.0441C130.932 16.0434 131.163 16.031 131.362 16.031C131.541 16.031 131.771 16.0434 131.906 16.0441V15.9717H131.856C131.69 15.9714 131.557 15.9307 131.557 15.661V13.8186H132.135C132.365 13.8195 132.395 14.0155 132.403 14.1429L132.477 14.1155C132.477 14.026 132.477 13.9362 132.483 13.8457C132.493 13.7574 132.506 13.6698 132.519 13.5822L132.467 13.5734C132.451 13.6734 132.354 13.6784 132.268 13.6774H130.497H130.479C130.398 13.6774 130.31 13.6736 130.279 13.5777H130.223C130.222 13.6727 130.216 13.7648 130.202 13.8562C130.192 13.9505 130.177 14.0412 130.164 14.1319H130.237C130.283 13.8926 130.312 13.815 130.568 13.8186V13.8339V13.8489C130.315 13.8534 130.32 13.8962 130.264 14.15L130.261 14.1617H130.249H130.129L130.131 14.1439C130.145 14.0477 130.162 13.9519 130.172 13.8519C130.187 13.7567 130.193 13.6614 130.193 13.5629V13.5479H130.208H130.302L130.305 13.5586C130.328 13.6453 130.392 13.6457 130.479 13.6472H130.497H132.268C132.363 13.6457 132.433 13.6443 132.439 13.5545L132.44 13.5383L132.456 13.5417L132.553 13.5569L132.551 13.5719C132.537 13.6638 132.523 13.7567 132.513 13.8488C132.506 13.9403 132.506 14.0331 132.506 14.1257V14.1364L132.497 14.1403L132.375 14.1845L132.374 14.1645C132.365 14.0355 132.352 13.8488 132.135 13.8488H131.587V15.6609C131.59 15.92 131.692 15.9379 131.856 15.9412H131.936V15.9559V16.074L131.922 16.0741Z" fill="#211E1F"/>
<path d="M132.646 15.9559H132.694C132.817 15.9559 132.948 15.9393 132.948 15.7604V13.9614C132.948 13.7823 132.817 13.7654 132.694 13.7654H132.646V13.6624C132.855 13.6624 133.212 13.6759 133.5 13.6759C133.789 13.6759 134.146 13.6624 134.379 13.6624C134.373 13.8097 134.376 14.0369 134.386 14.1876L134.283 14.2152C134.267 13.9921 134.225 13.8138 133.865 13.8138H133.388V14.7131H133.796C134.002 14.7131 134.047 14.5967 134.067 14.4107H134.17C134.163 14.5452 134.16 14.6791 134.16 14.8129C134.16 14.9436 134.163 15.0738 134.17 15.2043L134.067 15.2248C134.047 15.0188 134.036 14.885 133.799 14.885H133.388V15.6848C133.388 15.9083 133.586 15.9083 133.806 15.9083C134.218 15.9083 134.4 15.8805 134.503 15.4895L134.599 15.5131C134.554 15.6955 134.513 15.8771 134.483 16.0595C134.263 16.0595 133.868 16.0459 133.559 16.0459C133.25 16.0459 132.841 16.0595 132.646 16.0595V15.9559V15.9559Z" fill="#211E1F"/>
<path d="M134.482 16.0741C134.262 16.0741 133.867 16.0601 133.559 16.0601C133.25 16.0601 132.841 16.0741 132.645 16.0741H132.631V16.0596V15.956V15.9413H132.645H132.694C132.818 15.9394 132.931 15.9284 132.933 15.7606V13.9615C132.931 13.7939 132.818 13.7827 132.694 13.7801H132.631V13.7656V13.6477H132.645C132.855 13.6477 133.212 13.6608 133.5 13.6608C133.789 13.6608 134.145 13.6477 134.379 13.6477H134.394L134.394 13.6629C134.391 13.7146 134.39 13.7755 134.39 13.8403C134.39 13.9591 134.394 14.0889 134.4 14.1868L134.401 14.1991L134.39 14.2025L134.269 14.2339L134.268 14.2163C134.248 13.9934 134.218 13.8318 133.865 13.8284H133.402L133.401 14.6977H133.796C133.993 14.6958 134.029 14.5946 134.052 14.4096L134.053 14.3961H134.067H134.185L134.185 14.4115C134.178 14.5453 134.174 14.6791 134.174 14.8129C134.174 14.9429 134.178 15.0732 134.185 15.2039L134.185 15.2161L134.173 15.2189L134.053 15.2427L134.052 15.2265C134.029 15.017 134.027 14.9022 133.799 14.8996L133.402 14.8994V15.6848C133.402 15.8934 133.582 15.8922 133.806 15.8934C134.219 15.891 134.385 15.8711 134.489 15.4853L134.492 15.4715L134.506 15.4741L134.617 15.5024L134.613 15.5168C134.569 15.6987 134.528 15.8801 134.497 16.062L134.494 16.0741H134.482V16.0741ZM134.47 16.0441C134.5 15.871 134.539 15.6972 134.581 15.5243L134.513 15.5072C134.41 15.8915 134.211 15.9258 133.806 15.9232C133.59 15.9232 133.373 15.9232 133.372 15.6848V14.8701H133.799C134.039 14.8674 134.063 15.0122 134.08 15.2077L134.154 15.1922C134.148 15.0658 134.145 14.9389 134.145 14.8129C134.145 14.6836 134.148 14.5551 134.154 14.4258H134.08C134.061 14.6046 134.005 14.7303 133.796 14.7279H133.372V13.7984H133.865C134.222 13.796 134.281 13.9803 134.296 14.1963L134.37 14.1763C134.364 14.0793 134.36 13.9551 134.36 13.8403C134.36 13.7815 134.362 13.726 134.364 13.6774C134.13 13.6784 133.783 13.6908 133.5 13.6908C133.218 13.6908 132.871 13.6784 132.66 13.6774V13.7503H132.694C132.816 13.7503 132.962 13.7717 132.963 13.9615V15.7606C132.962 15.9498 132.816 15.9708 132.694 15.9718H132.66V16.0441C132.861 16.0439 133.257 16.031 133.559 16.031C133.862 16.031 134.248 16.0439 134.47 16.0441Z" fill="#211E1F"/>
<path d="M135.063 14.0262C135.063 13.7757 134.925 13.7654 134.818 13.7654H134.757V13.6621C134.867 13.6621 135.079 13.6759 135.289 13.6759C135.495 13.6759 135.66 13.6621 135.842 13.6621C136.274 13.6621 136.659 13.779 136.659 14.2671C136.659 14.5754 136.453 14.7645 136.182 14.8714L136.769 15.75C136.865 15.8952 136.933 15.9359 137.102 15.9559V16.0595C136.988 16.0595 136.878 16.0459 136.765 16.0459C136.659 16.0459 136.549 16.0595 136.443 16.0595C136.178 15.7126 135.951 15.3416 135.728 14.9464H135.502V15.6816C135.502 15.9464 135.625 15.9559 135.783 15.9559H135.845V16.0595C135.649 16.0595 135.451 16.0459 135.255 16.0459C135.09 16.0459 134.928 16.0595 134.757 16.0595V15.9559H134.818C134.946 15.9559 135.063 15.8983 135.063 15.7709V14.0262V14.0262ZM135.502 14.8228H135.67C136.013 14.8228 136.198 14.6924 136.198 14.2871C136.198 13.9819 136.003 13.7859 135.697 13.7859C135.594 13.7859 135.55 13.7966 135.502 13.7997V14.8228H135.502Z" fill="#211E1F"/>
<path d="M137.102 16.0741C136.987 16.0741 136.878 16.0603 136.765 16.0603C136.66 16.0603 136.55 16.0741 136.431 16.0684C136.167 15.7229 135.942 15.3541 135.72 14.9617H135.517V15.6812C135.52 15.9396 135.624 15.9374 135.783 15.9412H135.86V15.956V16.0741H135.845C135.648 16.0741 135.449 16.0603 135.254 16.0603C135.09 16.0603 134.929 16.0741 134.757 16.0741H134.742V16.0593V15.9412H134.757H134.818C134.942 15.9405 135.047 15.8867 135.047 15.771V14.0263C135.044 13.7825 134.925 13.7839 134.818 13.7803H134.742V13.7656V13.6472H134.757C134.868 13.6472 135.08 13.6608 135.289 13.6608C135.494 13.6608 135.659 13.6472 135.842 13.6472C136.274 13.6482 136.673 13.7677 136.674 14.2663C136.674 14.5765 136.469 14.77 136.204 14.8782L136.781 15.742C136.877 15.8843 136.937 15.9198 137.104 15.9412L137.117 15.9431V15.956V16.0741H137.102V16.0741ZM135.502 14.9317H135.737L135.741 14.9393C135.964 15.3338 136.19 15.7043 136.443 16.0448C136.548 16.0448 136.658 16.0307 136.765 16.0307C136.874 16.0307 136.98 16.0426 137.087 16.0443V15.9691C136.926 15.9491 136.85 15.901 136.757 15.7583L136.159 14.8643L136.176 14.8574C136.445 14.7517 136.643 14.5681 136.644 14.2662C136.643 13.7897 136.273 13.6793 135.842 13.6774C135.661 13.6774 135.496 13.691 135.289 13.691C135.087 13.691 134.884 13.6783 134.771 13.6774V13.7502H134.818C134.925 13.7505 135.077 13.7681 135.077 14.0262V15.771C135.077 15.9088 134.948 15.9717 134.818 15.9719H134.771V16.0443C134.937 16.0438 135.093 16.0307 135.254 16.0307C135.446 16.0307 135.64 16.0438 135.83 16.0443V15.9719H135.783C135.626 15.9716 135.487 15.9521 135.487 15.6812V14.9317H135.502H135.502ZM135.502 14.8374H135.487V13.786L135.5 13.7848C135.547 13.7812 135.593 13.7714 135.697 13.7714C136.01 13.7714 136.213 13.9748 136.214 14.2878C136.213 14.6978 136.016 14.8371 135.67 14.8374H135.502V14.8374ZM135.67 14.8079C136.01 14.805 136.181 14.6869 136.184 14.2879C136.183 13.9879 135.996 13.8017 135.697 13.8005C135.604 13.8005 135.561 13.809 135.517 13.8129V14.8079H135.67V14.8079Z" fill="#211E1F"/>
<path d="M139.433 15.3826L139.439 15.3759V14.0883C139.439 13.8064 139.244 13.7655 139.141 13.7655H139.066V13.6624C139.227 13.6624 139.384 13.6759 139.546 13.6759C139.687 13.6759 139.827 13.6624 139.969 13.6624V13.7655H139.917C139.773 13.7655 139.612 13.7928 139.612 14.2014V15.7643C139.612 15.8843 139.615 16.0043 139.632 16.1107H139.502L137.734 14.1395V15.5545C137.734 15.8534 137.792 15.956 138.056 15.956H138.114V16.0595C137.967 16.0595 137.819 16.046 137.672 16.046C137.517 16.046 137.359 16.0595 137.205 16.0595V15.956H137.252C137.489 15.956 137.562 15.795 137.562 15.5205V14.0741C137.562 13.8819 137.404 13.7655 137.249 13.7655H137.205V13.6624C137.335 13.6624 137.469 13.6759 137.599 13.6759C137.702 13.6759 137.802 13.6624 137.905 13.6624L139.433 15.3826Z" fill="#211E1F"/>
<path d="M139.632 16.1255L139.491 16.1208L137.748 14.1784V15.5544C137.752 15.8532 137.797 15.9379 138.056 15.9413H138.129V15.956V16.0741H138.114C137.965 16.0741 137.818 16.06 137.671 16.06C137.518 16.06 137.359 16.0741 137.205 16.0741H137.189V16.0596V15.9413H137.205H137.252C137.479 15.9403 137.544 15.7944 137.546 15.5196V14.0741C137.546 13.8912 137.396 13.7803 137.249 13.7801H137.189V13.7656V13.6472H137.205C137.336 13.6472 137.47 13.6608 137.599 13.6608C137.7 13.6608 137.8 13.6472 137.915 13.652L139.424 15.3515V14.0881C139.423 13.8153 139.241 13.7815 139.141 13.7801H139.05V13.7656V13.6472H139.065C139.227 13.6472 139.386 13.6608 139.546 13.6608C139.686 13.6608 139.827 13.6472 139.968 13.6472H139.983V13.6627V13.7801H139.968H139.917C139.776 13.7839 139.63 13.7965 139.626 14.2015V15.7641C139.626 15.8841 139.629 16.0031 139.646 16.1089L139.648 16.1255H139.632ZM139.501 16.0955H139.614C139.599 15.9924 139.596 15.8781 139.596 15.7641V14.2015C139.596 13.7893 139.77 13.7512 139.917 13.7501H139.953V13.6774C139.818 13.6784 139.682 13.6908 139.546 13.6908C139.388 13.6908 139.235 13.6784 139.08 13.6774V13.7501H139.141C139.246 13.7512 139.455 13.7974 139.455 14.0881L139.45 15.3862L139.443 15.3934L139.433 15.4043L137.905 13.6775C137.803 13.6775 137.703 13.6908 137.599 13.6908C137.472 13.6908 137.344 13.6784 137.219 13.6775V13.7501H137.249C137.411 13.7513 137.576 13.8729 137.576 14.0741V15.5196C137.576 15.7953 137.498 15.9708 137.252 15.9717L137.219 15.9715V16.0441C137.367 16.0434 137.52 16.031 137.671 16.031C137.815 16.031 137.958 16.0434 138.1 16.0441V15.9717H138.056C137.786 15.9715 137.718 15.8532 137.718 15.5543V14.1015L139.501 16.0955ZM139.433 15.3824L139.443 15.3727L139.433 15.3824ZM139.424 15.376V15.3748L139.422 15.3722L139.424 15.376Z" fill="#211E1F"/>
<path d="M140.521 15.5683C140.486 15.6847 140.445 15.7747 140.445 15.8359C140.445 15.9393 140.589 15.9559 140.702 15.9559H140.741V16.0595C140.603 16.0521 140.463 16.0459 140.324 16.0459C140.201 16.0459 140.078 16.0521 139.954 16.0595V15.9559H139.975C140.109 15.9559 140.222 15.8771 140.273 15.7326L140.823 14.1569C140.867 14.0297 140.93 13.8581 140.95 13.7307C141.06 13.6933 141.197 13.6247 141.262 13.5833C141.273 13.5798 141.279 13.5762 141.29 13.5762C141.3 13.5762 141.307 13.5762 141.314 13.5869C141.324 13.614 141.334 13.6452 141.345 13.6726L141.977 15.4688C142.018 15.5888 142.059 15.7157 142.103 15.819C142.145 15.9152 142.217 15.9559 142.331 15.9559H142.351V16.0595C142.196 16.0521 142.042 16.046 141.877 16.046C141.709 16.046 141.537 16.0521 141.362 16.0595V15.9559H141.4C141.479 15.9559 141.613 15.9426 141.613 15.8566C141.613 15.8121 141.582 15.7195 141.544 15.6093L141.41 15.2109H140.631L140.521 15.5683ZM141.022 14.0469H141.015L140.696 15.0188H141.338L141.022 14.0469Z" fill="#211E1F"/>
<path d="M142.35 16.0741C142.195 16.0672 142.041 16.0601 141.877 16.0601C141.709 16.0601 141.538 16.0672 141.362 16.0741L141.347 16.0751V16.0596V15.9408H141.362H141.4C141.479 15.9408 141.597 15.9227 141.597 15.8568C141.598 15.8177 141.567 15.7234 141.529 15.6142L141.399 15.2258H140.641L140.535 15.5727C140.5 15.6898 140.459 15.7806 140.459 15.8365C140.46 15.9203 140.588 15.9408 140.702 15.9408H140.755V15.9563V16.0751L140.74 16.0741C140.602 16.0672 140.462 16.0601 140.325 16.0601C140.202 16.0601 140.078 16.0672 139.955 16.0741L139.939 16.0751V16.0596V15.9408H139.954H139.975C140.103 15.9403 140.209 15.8677 140.259 15.728L140.808 14.152C140.854 14.0246 140.915 13.8534 140.945 13.7165C141.053 13.6801 141.191 13.6111 141.257 13.5692C141.266 13.5661 141.276 13.5613 141.29 13.5613C141.298 13.5611 141.317 13.5632 141.328 13.5813C141.338 13.6096 141.348 13.6401 141.359 13.668L141.991 15.464C142.032 15.5844 142.073 15.7113 142.117 15.8127C142.157 15.9044 142.22 15.9404 142.331 15.9408H142.366V15.9563V16.0751L142.35 16.0741ZM141.377 16.0434C141.547 16.0375 141.713 16.0308 141.877 16.0308C142.037 16.0308 142.186 16.0375 142.335 16.0434V15.9717H142.331C142.213 15.9724 142.132 15.9263 142.09 15.8251C142.045 15.7208 142.003 15.5934 141.963 15.4732L141.331 13.6775C141.32 13.6501 141.31 13.6189 141.301 13.5946C141.298 13.5913 141.299 13.5913 141.296 13.5913H141.29C141.283 13.5913 141.279 13.5934 141.27 13.5958C141.204 13.6389 141.066 13.7063 140.964 13.7332C140.943 13.8632 140.881 14.0346 140.837 14.1617L140.287 15.7379C140.235 15.887 140.114 15.972 139.975 15.9717H139.969V16.0434C140.087 16.0375 140.206 16.0308 140.325 16.0308C140.458 16.0308 140.593 16.0375 140.724 16.0434V15.9717H140.702C140.591 15.9703 140.434 15.9577 140.43 15.8365C140.43 15.7679 140.473 15.6801 140.506 15.5641L140.521 15.5686L140.506 15.5636L140.619 15.1965H141.42L141.557 15.6046C141.596 15.7148 141.627 15.8063 141.627 15.8567C141.622 15.9622 141.477 15.9696 141.4 15.9717H141.377V16.0434H141.377ZM140.675 15.0336L141.004 14.032H141.015H141.022V14.047L141.018 14.0477L141.022 14.047V14.032H141.033L141.358 15.0336H140.675ZM140.716 15.0039H141.317L141.018 14.0836L140.716 15.0039ZM141.007 14.0513L141.015 14.0487L141.007 14.0513Z" fill="#211E1F"/>
<path d="M142.502 13.8337C142.244 13.8337 142.234 13.8957 142.182 14.1461H142.079C142.093 14.0502 142.11 13.9542 142.121 13.8542C142.135 13.758 142.141 13.6623 142.141 13.5628H142.224C142.251 13.6659 142.337 13.6623 142.429 13.6623H144.202C144.294 13.6623 144.379 13.659 144.387 13.5557L144.469 13.5695C144.456 13.6623 144.442 13.7549 144.432 13.8478C144.424 13.9404 144.424 14.0333 144.424 14.1256L144.321 14.164C144.315 14.0371 144.298 13.8337 144.068 13.8337H143.504V15.6609C143.504 15.9256 143.625 15.9559 143.789 15.9559H143.854V16.0595C143.721 16.0595 143.481 16.0459 143.295 16.0459C143.089 16.0459 142.848 16.0595 142.715 16.0595V15.9559H142.78C142.969 15.9559 143.065 15.939 143.065 15.668V13.8337H142.502V13.8337Z" fill="#211E1F"/>
<path d="M143.854 16.0741C143.72 16.0741 143.479 16.0603 143.295 16.0603C143.09 16.0603 142.849 16.0741 142.715 16.0741H142.699V16.0595V15.9412H142.715H142.78C142.969 15.9367 143.045 15.9343 143.05 15.6681L143.049 13.8488H142.502V13.8338V13.8186H143.079V15.6681C143.079 15.9436 142.968 15.9707 142.78 15.9714H142.729V16.0448C142.865 16.0433 143.096 16.0309 143.295 16.0309C143.474 16.0309 143.704 16.0434 143.839 16.0448V15.9714H143.789C143.624 15.9707 143.49 15.9309 143.489 15.6609V13.8186H144.067C144.298 13.8195 144.328 14.0155 144.335 14.1429L144.41 14.1155C144.41 14.0259 144.41 13.9362 144.417 13.8462C144.426 13.7579 144.439 13.6698 144.452 13.5821L144.4 13.5733C144.384 13.6733 144.287 13.6788 144.202 13.6774H142.429H142.412C142.331 13.6783 142.243 13.6735 142.212 13.5771H142.156C142.155 13.6724 142.149 13.7648 142.135 13.8562C142.126 13.9507 142.109 14.0417 142.096 14.1319H142.17C142.215 13.8926 142.245 13.815 142.502 13.8186V13.8338V13.8488C142.247 13.8531 142.253 13.8962 142.197 14.15L142.194 14.1617H142.182H142.062L142.064 14.1445C142.078 14.0476 142.095 13.9519 142.105 13.8526C142.119 13.7566 142.126 13.6614 142.126 13.5628V13.5478H142.141H142.235L142.237 13.5585C142.261 13.6452 142.324 13.6457 142.412 13.6471L142.429 13.6476H144.202C144.296 13.6457 144.366 13.6443 144.371 13.5548L144.372 13.5383L144.389 13.5417L144.486 13.5569L144.483 13.5719C144.469 13.6638 144.456 13.7567 144.446 13.8488C144.439 13.9403 144.439 14.0334 144.439 14.1257V14.1364L144.429 14.1403L144.307 14.1845L144.307 14.1645C144.298 14.0355 144.284 13.8488 144.067 13.8488H143.519V15.6609C143.523 15.92 143.625 15.9379 143.789 15.9412H143.869V15.9559V16.074L143.854 16.0741Z" fill="#211E1F"/>
<path d="M144.596 15.9559H144.644C144.768 15.9559 144.897 15.9393 144.897 15.7604V13.9614C144.897 13.7823 144.768 13.7654 144.644 13.7654H144.596V13.6624C144.73 13.6624 144.935 13.6759 145.103 13.6759C145.276 13.6759 145.481 13.6624 145.643 13.6624V13.7654H145.595C145.471 13.7654 145.34 13.7824 145.34 13.9614V15.7604C145.34 15.9393 145.471 15.9559 145.595 15.9559H145.643V16.0595C145.478 16.0595 145.272 16.0459 145.101 16.0459C144.932 16.0459 144.73 16.0595 144.596 16.0595V15.9559Z" fill="#211E1F"/>
<path d="M145.643 16.0741C145.477 16.0741 145.272 16.0601 145.1 16.0601C144.933 16.0601 144.73 16.0741 144.596 16.0741H144.581V16.0596V15.956V15.9413H144.596H144.644C144.768 15.9394 144.882 15.9287 144.882 15.7606V13.9615C144.882 13.7939 144.768 13.7824 144.644 13.7801H144.581V13.7656V13.6477H144.596C144.73 13.6477 144.936 13.6608 145.103 13.6608C145.274 13.6608 145.48 13.6477 145.643 13.6477H145.658V13.6624V13.7801H145.643H145.595C145.469 13.7824 145.357 13.7939 145.355 13.9615V15.7606C145.357 15.9287 145.469 15.9394 145.595 15.9413H145.658V15.956V16.0741H145.643ZM145.628 16.0441V15.9715H145.595C145.472 15.9715 145.326 15.9498 145.326 15.7606V13.9615C145.326 13.7717 145.472 13.7503 145.595 13.7503H145.628V13.6774C145.469 13.6784 145.271 13.6908 145.103 13.6908C144.941 13.6908 144.744 13.6784 144.611 13.6774V13.7503H144.644C144.766 13.7503 144.912 13.7717 144.913 13.9615V15.7606C144.912 15.9498 144.766 15.9715 144.644 15.9715H144.611V16.0441C144.743 16.0427 144.937 16.031 145.1 16.031C145.267 16.031 145.466 16.0434 145.628 16.0441H145.628Z" fill="#211E1F"/>
<path d="M147.012 13.6108C147.744 13.6108 148.327 14.0646 148.327 14.7958C148.327 15.5859 147.761 16.1108 147.03 16.1108C146.301 16.1108 145.746 15.6163 145.746 14.878C145.746 14.1639 146.298 13.6108 147.012 13.6108ZM147.064 15.9596C147.73 15.9596 147.846 15.372 147.846 14.8713C147.846 14.3694 147.576 13.7618 147.006 13.7618C146.405 13.7618 146.226 14.2975 146.226 14.7573C146.226 15.372 146.508 15.9596 147.064 15.9596Z" fill="#211E1F"/>
<path d="M145.73 14.8781C145.732 14.1557 146.291 13.5969 147.012 13.5959V13.6109V13.6254C146.306 13.6254 145.76 14.1714 145.759 14.8781C145.761 15.6081 146.309 16.0952 147.03 16.0954C147.754 16.0952 148.312 15.5776 148.313 14.7952C148.313 14.0733 147.738 13.6264 147.012 13.6254V13.6109V13.5959C147.75 13.5964 148.341 14.0548 148.342 14.7952C148.342 15.5935 147.768 16.124 147.03 16.1254C146.296 16.124 145.732 15.6245 145.73 14.8781H145.73V14.8781ZM146.211 14.7574C146.212 14.2955 146.393 13.7464 147.006 13.7464C147.588 13.7479 147.861 14.3669 147.862 14.8714C147.861 15.3721 147.743 15.9741 147.064 15.9741V15.9598V15.945C147.717 15.9441 147.83 15.3721 147.832 14.8714C147.832 14.3736 147.564 13.7776 147.006 13.7769C146.417 13.7776 146.242 14.3 146.241 14.7574C146.242 15.369 146.52 15.9436 147.064 15.945V15.9598V15.9741C146.494 15.9733 146.212 15.3757 146.211 14.7574Z" fill="#211E1F"/>
<path d="M150.641 15.3826L150.648 15.3759V14.0883C150.648 13.8064 150.452 13.7655 150.349 13.7655H150.275V13.6624C150.436 13.6624 150.593 13.6759 150.754 13.6759C150.896 13.6759 151.036 13.6624 151.177 13.6624V13.7655H151.125C150.981 13.7655 150.82 13.7928 150.82 14.2014V15.7643C150.82 15.8843 150.823 16.0043 150.841 16.1107H150.71L148.942 14.1395V15.5545C148.942 15.8534 149 15.956 149.264 15.956H149.323V16.0595C149.175 16.0595 149.028 16.046 148.88 16.046C148.725 16.046 148.567 16.0595 148.413 16.0595V15.956H148.461C148.698 15.956 148.77 15.795 148.77 15.5205V14.0741C148.77 13.8819 148.612 13.7655 148.457 13.7655H148.413V13.6624C148.543 13.6624 148.677 13.6759 148.807 13.6759C148.911 13.6759 149.01 13.6624 149.113 13.6624L150.641 15.3826Z" fill="#211E1F"/>
<path d="M150.841 16.1255L150.699 16.1205L148.957 14.1784V15.5546C148.96 15.8532 149.006 15.9377 149.264 15.9408H149.338V15.9563V16.0741H149.323C149.174 16.0741 149.027 16.0603 148.88 16.0603C148.726 16.0603 148.568 16.0741 148.412 16.0741H148.398V16.0594V15.9408H148.412H148.461C148.687 15.9401 148.752 15.7944 148.755 15.5206V14.0741C148.755 13.8913 148.605 13.7803 148.457 13.7801H148.398V13.7656V13.6477H148.412C148.544 13.6477 148.678 13.6608 148.807 13.6608C148.909 13.6608 149.008 13.6477 149.125 13.6527L150.633 15.3515V14.0887C150.632 13.8154 150.449 13.7825 150.349 13.7801H150.259V13.7656V13.6478H150.274C150.436 13.6478 150.594 13.6608 150.754 13.6608C150.895 13.6608 151.035 13.6478 151.177 13.6478H151.192V13.6625V13.7801H151.177H151.125C150.984 13.7842 150.838 13.797 150.835 14.2015V15.7642C150.835 15.8842 150.838 16.0039 150.854 16.1089L150.857 16.1256H150.841V16.1255ZM150.71 16.0955H150.823C150.808 15.9924 150.805 15.8782 150.805 15.7641V14.2015C150.805 13.7886 150.978 13.7513 151.125 13.7501H151.162V13.6774C151.027 13.6784 150.891 13.6908 150.754 13.6908C150.598 13.6908 150.444 13.6784 150.289 13.6774V13.7501H150.349C150.455 13.7513 150.662 13.7982 150.662 14.0886L150.659 15.3863L150.652 15.3934L150.641 15.4043L149.113 13.6775C149.012 13.6775 148.912 13.6908 148.808 13.6908C148.681 13.6908 148.552 13.6784 148.427 13.6775V13.7501H148.457C148.619 13.7513 148.785 13.8729 148.785 14.0741V15.5206C148.785 15.7951 148.708 15.9708 148.461 15.9718L148.427 15.9715V16.0441C148.576 16.0434 148.729 16.031 148.88 16.031C149.023 16.031 149.165 16.0434 149.308 16.0441V15.9718H149.264C148.994 15.9715 148.927 15.8532 148.927 15.5546V14.101L150.71 16.0955ZM150.641 15.3824L150.652 15.3727L150.641 15.3824ZM150.633 15.376V15.3748L150.63 15.3722L150.633 15.376Z" fill="#211E1F"/>
<path d="M151.729 15.5683C151.695 15.6847 151.654 15.7747 151.654 15.8359C151.654 15.9393 151.798 15.9559 151.911 15.9559H151.949V16.0595C151.812 16.0521 151.671 16.0459 151.533 16.0459C151.409 16.0459 151.286 16.0521 151.163 16.0595V15.9559H151.183C151.317 15.9559 151.431 15.8771 151.482 15.7326L152.032 14.1569C152.076 14.0297 152.138 13.8581 152.158 13.7307C152.268 13.6933 152.405 13.6247 152.471 13.5833C152.481 13.5798 152.488 13.5762 152.498 13.5762C152.509 13.5762 152.515 13.5762 152.522 13.5869C152.533 13.614 152.543 13.6452 152.553 13.6726L153.185 15.4688C153.226 15.5888 153.267 15.7157 153.312 15.819C153.353 15.9152 153.426 15.9559 153.539 15.9559H153.56V16.0595C153.405 16.0521 153.25 16.046 153.085 16.046C152.918 16.046 152.746 16.0521 152.57 16.0595V15.9559H152.609C152.687 15.9559 152.822 15.9426 152.822 15.8566C152.822 15.8121 152.79 15.7195 152.752 15.6093L152.619 15.2109H151.839L151.729 15.5683ZM152.231 14.0469H152.224L151.904 15.0188H152.547L152.231 14.0469Z" fill="#211E1F"/>
<path d="M153.558 16.0741C153.404 16.0679 153.249 16.0603 153.085 16.0603C152.918 16.0603 152.746 16.0679 152.571 16.0741L152.556 16.0751V16.0594V15.9413H152.57H152.608C152.688 15.9413 152.806 15.9227 152.806 15.8567C152.807 15.8177 152.776 15.7241 152.738 15.6141L152.607 15.2258H151.849L151.743 15.5727C151.709 15.6903 151.668 15.7805 151.669 15.836C151.669 15.9203 151.797 15.9413 151.911 15.9413H151.963V15.956V16.0751L151.948 16.0741C151.811 16.0679 151.67 16.0603 151.533 16.0603C151.41 16.0603 151.287 16.0679 151.163 16.0741L151.148 16.0751V16.0594V15.9413H151.163H151.183C151.311 15.9408 151.418 15.8672 151.468 15.7279L152.018 14.152C152.061 14.0246 152.123 13.8534 152.154 13.717C152.262 13.6796 152.399 13.611 152.466 13.5691C152.475 13.566 152.484 13.562 152.498 13.562C152.508 13.561 152.525 13.5631 152.536 13.582C152.546 13.6089 152.556 13.64 152.568 13.6679L153.199 15.4639C153.24 15.5844 153.281 15.7113 153.326 15.8134C153.366 15.9044 153.429 15.9403 153.538 15.9413H153.574V15.956V16.0751L153.558 16.0741ZM152.585 16.0439C152.755 16.0374 152.922 16.0308 153.085 16.0308C153.245 16.0308 153.395 16.0374 153.544 16.0434L153.544 15.9717H153.538C153.422 15.972 153.341 15.9262 153.298 15.825C153.253 15.7208 153.212 15.5934 153.171 15.4736L152.539 13.6774C152.529 13.65 152.518 13.6189 152.51 13.5955C152.507 13.5912 152.508 13.5912 152.505 13.5912H152.498C152.491 13.5912 152.487 13.5936 152.479 13.596C152.412 13.6381 152.275 13.7067 152.173 13.7331C152.152 13.8631 152.089 14.0343 152.045 14.1617L151.495 15.7379C151.443 15.887 151.323 15.972 151.183 15.9717H151.178V16.0434C151.296 16.0374 151.414 16.0308 151.533 16.0308C151.667 16.0308 151.802 16.0374 151.934 16.0434V15.9717H151.911C151.799 15.9703 151.642 15.9581 151.638 15.836C151.639 15.7679 151.682 15.6805 151.715 15.5641L151.729 15.5686L151.715 15.5636L151.828 15.1965H152.629L152.766 15.6045C152.804 15.715 152.835 15.8062 152.835 15.8567C152.83 15.9622 152.686 15.9695 152.608 15.9717H152.585V16.0439H152.585ZM151.884 15.0334L152.213 14.032H152.223H152.231V14.047L152.227 14.0477L152.231 14.047V14.032H152.242L152.566 15.0334H151.884ZM151.925 15.0039H152.525L152.227 14.0841L151.925 15.0039ZM152.217 14.0513L152.223 14.0486L152.217 14.0513Z" fill="#211E1F"/>
<path d="M154.425 15.7228C154.425 15.8602 154.52 15.9012 154.63 15.9152C154.771 15.9257 154.925 15.9257 155.084 15.9083C155.228 15.8909 155.352 15.8086 155.413 15.7228C155.468 15.6471 155.499 15.5509 155.519 15.4754H155.619C155.581 15.6712 155.533 15.864 155.492 16.0595C155.19 16.0595 154.888 16.0459 154.586 16.0459C154.283 16.0459 153.982 16.0595 153.679 16.0595V15.9559H153.727C153.851 15.9559 153.985 15.9393 153.985 15.7262V13.9614C153.985 13.7823 153.851 13.7654 153.727 13.7654H153.679V13.6624C153.861 13.6624 154.04 13.6759 154.221 13.6759C154.397 13.6759 154.568 13.6624 154.744 13.6624V13.7654H154.657C154.527 13.7654 154.425 13.7693 154.425 13.9507V15.7228V15.7228Z" fill="#211E1F"/>
<path d="M155.492 16.0741C155.189 16.0741 154.887 16.0603 154.586 16.0603C154.283 16.0603 153.981 16.0741 153.679 16.0741H153.664V16.0593V15.9413H153.679H153.727C153.851 15.9384 153.969 15.9298 153.97 15.7263V13.9608C153.969 13.7939 153.852 13.7825 153.727 13.7801H153.664V13.7656V13.6477H153.679C153.861 13.6477 154.04 13.6608 154.222 13.6608C154.396 13.6608 154.567 13.6477 154.744 13.6477H154.758V13.6625V13.7801H154.744H154.657C154.524 13.7839 154.442 13.7777 154.439 13.9508V15.7229C154.44 15.8508 154.524 15.8853 154.631 15.9003C154.692 15.9046 154.755 15.9072 154.821 15.9072C154.905 15.9072 154.993 15.9032 155.081 15.8937C155.221 15.8773 155.342 15.7965 155.401 15.7146C155.454 15.6413 155.484 15.547 155.505 15.472L155.508 15.4606H155.519H155.637L155.634 15.4787C155.595 15.6751 155.548 15.867 155.506 16.0625L155.503 16.0742H155.492H155.492V16.0741ZM155.479 16.0441C155.519 15.8579 155.564 15.6758 155.601 15.49H155.531C155.509 15.5648 155.479 15.6569 155.425 15.7319C155.361 15.821 155.233 15.9048 155.085 15.9231C154.995 15.9324 154.906 15.9372 154.821 15.9372C154.755 15.9372 154.69 15.9341 154.628 15.9298C154.517 15.9174 154.408 15.8698 154.409 15.7229V13.9508C154.409 13.76 154.529 13.7503 154.657 13.7503H154.728V13.6774C154.559 13.6784 154.392 13.691 154.221 13.691C154.044 13.691 153.87 13.6784 153.694 13.6774V13.7503H153.727C153.849 13.7503 153.999 13.7717 153.999 13.9608V15.7262C153.999 15.9484 153.85 15.9715 153.727 15.9715H153.694V16.0441C153.991 16.0438 154.287 16.031 154.586 16.031C154.884 16.031 155.182 16.0438 155.479 16.0441Z" fill="#211E1F"/>
<path d="M155.577 13.5647C155.784 13.5647 155.939 13.7237 155.939 13.9276C155.939 14.1304 155.784 14.288 155.577 14.288C155.37 14.288 155.216 14.1304 155.216 13.9276C155.216 13.7238 155.37 13.5647 155.577 13.5647ZM155.577 14.2206C155.739 14.2206 155.863 14.0826 155.863 13.9276C155.863 13.7716 155.741 13.6323 155.577 13.6323C155.415 13.6323 155.29 13.7716 155.29 13.9276C155.29 14.0826 155.415 14.2206 155.577 14.2206ZM155.397 14.118V14.1002C155.442 14.094 155.45 14.0954 155.45 14.0678V13.8002C155.45 13.7626 155.446 13.7497 155.399 13.7516V13.7333H155.584C155.648 13.7333 155.706 13.7635 155.706 13.8292C155.706 13.883 155.67 13.9228 155.621 13.9383L155.68 14.0211C155.708 14.0587 155.739 14.094 155.76 14.1063V14.118H155.689C155.655 14.118 155.626 14.0468 155.559 13.9513H155.519V14.0716C155.519 14.0954 155.527 14.094 155.572 14.1001V14.118H155.397V14.118ZM155.519 13.9276H155.562C155.608 13.9276 155.63 13.8921 155.63 13.8352C155.63 13.7776 155.596 13.7573 155.559 13.7573H155.519V13.9276V13.9276Z" fill="#211E1F"/>
<path d="M118.503 18C121.782 18.0157 124.776 15.3252 124.776 12.0521C124.776 8.47286 121.782 5.99881 118.503 6H115.68C112.361 5.99881 109.629 8.4736 109.629 12.0521C109.629 15.3259 112.361 18.0157 115.68 18H118.503Z" fill="#0079BE"/>
<path d="M115.693 6.49585C112.661 6.4968 110.203 8.95514 110.202 11.9892C110.203 15.0228 112.661 17.4809 115.693 17.4818C118.727 17.4809 121.185 15.0228 121.186 11.9892C121.185 8.95514 118.727 6.4968 115.693 6.49585ZM112.213 11.9892C112.216 10.5066 113.142 9.2423 114.447 8.7399V15.2378C113.142 14.7356 112.216 13.472 112.213 11.9892ZM116.939 15.2392V8.73968C118.245 9.24087 119.173 10.5059 119.175 11.9892C119.173 13.473 118.245 14.737 116.939 15.2392Z" fill="white"/>
<path d="M126.699 8.58158C126.699 8.01394 126.403 8.05132 126.12 8.04515V7.8811C126.366 7.89325 126.618 7.89325 126.864 7.89325C127.129 7.89325 127.489 7.8811 127.956 7.8811C129.59 7.8811 130.48 8.97253 130.48 10.0901C130.48 10.7151 130.114 12.2863 127.88 12.2863C127.558 12.2863 127.262 12.2739 126.965 12.2739C126.681 12.2739 126.403 12.2801 126.12 12.2863V12.1225C126.498 12.0844 126.681 12.0718 126.699 11.6425V8.58158H126.699ZM127.318 11.5418C127.318 12.0277 127.665 12.0844 127.974 12.0844C129.338 12.0844 129.785 11.0556 129.785 10.1151C129.785 8.93537 129.028 8.08346 127.81 8.08346C127.551 8.08346 127.432 8.10203 127.318 8.10872L127.318 11.5418Z" fill="#211E1F"/>
<path d="M130.701 12.1227H130.821C130.997 12.1227 131.123 12.1227 131.123 11.9139V10.2039C131.123 9.92657 131.029 9.88798 130.795 9.7625V9.66131C131.092 9.57226 131.446 9.45321 131.47 9.43417C131.515 9.40893 131.553 9.40226 131.584 9.40226C131.615 9.40226 131.628 9.44036 131.628 9.49107V11.9139C131.628 12.1227 131.767 12.1227 131.944 12.1227H132.051V12.2868C131.836 12.2868 131.615 12.2742 131.389 12.2742C131.162 12.2742 130.934 12.2804 130.701 12.2868V12.1227H130.701ZM131.376 8.43057C131.212 8.43057 131.067 8.27917 131.067 8.11509C131.067 7.957 131.218 7.81152 131.376 7.81152C131.54 7.81152 131.685 7.94464 131.685 8.11509C131.685 8.28557 131.546 8.43057 131.376 8.43057Z" fill="#211E1F"/>
<path d="M132.651 10.2414C132.651 10.0081 132.581 9.94519 132.285 9.82519V9.70546C132.556 9.61712 132.814 9.53498 133.117 9.40212C133.136 9.40212 133.155 9.41498 133.155 9.46522V9.87567C133.515 9.61712 133.824 9.4021 134.248 9.4021C134.783 9.4021 134.973 9.7935 134.973 10.2856V11.9138C134.973 12.1226 135.111 12.1226 135.288 12.1226H135.402V12.2866C135.181 12.2866 134.96 12.274 134.733 12.274C134.506 12.274 134.278 12.2802 134.051 12.2866V12.1226H134.165C134.342 12.1226 134.467 12.1226 134.467 11.9138V10.2797C134.467 9.91946 134.248 9.74303 133.887 9.74303C133.686 9.74303 133.364 9.9071 133.155 10.0461V11.9137C133.155 12.1226 133.294 12.1226 133.471 12.1226H133.585V12.2866C133.364 12.2866 133.143 12.274 132.916 12.274C132.689 12.274 132.461 12.2802 132.234 12.2866V12.1226H132.348C132.525 12.1226 132.651 12.1226 132.651 11.9137V10.2414H132.651Z" fill="#211E1F"/>
<path d="M135.882 10.5447C135.869 10.6016 135.869 10.6961 135.882 10.9109C135.919 11.5102 136.305 12.0024 136.809 12.0024C137.156 12.0024 137.428 11.8131 137.661 11.5797L137.749 11.6683C137.459 12.0531 137.099 12.3811 136.582 12.3811C135.579 12.3811 135.377 11.409 135.377 11.0055C135.377 9.76829 136.21 9.4021 136.651 9.4021C137.162 9.4021 137.712 9.72379 137.718 10.3928C137.718 10.4311 137.718 10.4685 137.712 10.5069L137.655 10.5447H135.882ZM136.999 10.3426C137.156 10.3426 137.175 10.2605 137.175 10.185C137.175 9.86305 136.979 9.60424 136.626 9.60424C136.241 9.60424 135.976 9.88781 135.901 10.3426H136.999Z" fill="#211E1F"/>
<path d="M137.863 12.1226H138.033C138.21 12.1226 138.336 12.1226 138.336 11.9138V10.1407C138.336 9.94519 138.103 9.9071 138.008 9.85662V9.76234C138.468 9.56639 138.721 9.4021 138.778 9.4021C138.816 9.4021 138.834 9.42115 138.834 9.48448V10.0523H138.848C139.005 9.80639 139.271 9.4021 139.655 9.4021C139.813 9.4021 140.015 9.50924 140.015 9.73662C140.015 9.9071 139.895 10.059 139.718 10.059C139.522 10.059 139.522 9.9071 139.302 9.9071C139.194 9.9071 138.841 10.0523 138.841 10.4311V11.9138C138.841 12.1226 138.967 12.1226 139.144 12.1226H139.497V12.2866C139.15 12.2802 138.886 12.274 138.614 12.274C138.355 12.274 138.09 12.2802 137.863 12.2866V12.1226H137.863Z" fill="#211E1F"/>
<path d="M140.292 11.409C140.375 11.8256 140.627 12.1792 141.088 12.1792C141.459 12.1792 141.598 11.9521 141.598 11.7311C141.598 10.9864 140.223 11.2261 140.223 10.2102C140.223 9.85662 140.507 9.4021 141.201 9.4021C141.403 9.4021 141.674 9.45924 141.92 9.58567L141.965 10.2288H141.819C141.756 9.83162 141.536 9.60427 141.131 9.60427C140.879 9.60427 140.639 9.74953 140.639 10.0207C140.639 10.7597 142.103 10.5319 142.103 11.5226C142.103 11.939 141.769 12.3812 141.018 12.3812C140.765 12.3812 140.469 12.2928 140.248 12.1669L140.179 11.441L140.292 11.409Z" fill="#211E1F"/>
<path d="M147.801 9.02351H147.644C147.524 8.28542 147 7.98851 146.293 7.98851C145.567 7.98851 144.513 8.4742 144.513 9.98875C144.513 11.2645 145.423 12.1792 146.394 12.1792C147.019 12.1792 147.537 11.7502 147.663 11.0873L147.807 11.1249L147.663 12.0463C147.398 12.2109 146.685 12.3811 146.268 12.3811C144.792 12.3811 143.858 11.4281 143.858 10.008C143.858 8.71423 145.012 7.78613 146.249 7.78613C146.76 7.78613 147.252 7.95089 147.738 8.12137L147.801 9.02351Z" fill="#211E1F"/>
<path d="M148.029 12.1227H148.148C148.325 12.1227 148.452 12.1227 148.452 11.9139V8.39915C148.452 7.98867 148.357 7.97603 148.117 7.90674V7.80579C148.369 7.72391 148.634 7.61008 148.767 7.53415C148.836 7.49653 148.887 7.4646 148.905 7.4646C148.944 7.4646 148.957 7.50272 148.957 7.55341V11.9139C148.957 12.1227 149.095 12.1227 149.272 12.1227H149.378V12.2868C149.165 12.2868 148.944 12.2741 148.717 12.2741C148.49 12.2741 148.262 12.2804 148.029 12.2868V12.1227H148.029Z" fill="#211E1F"/>
<path d="M152.08 11.939C152.08 12.0531 152.149 12.0593 152.256 12.0593C152.332 12.0593 152.427 12.0531 152.509 12.0531V12.186C152.237 12.211 151.72 12.3436 151.6 12.3812L151.568 12.3621V11.8514C151.19 12.1605 150.9 12.3812 150.451 12.3812C150.111 12.3812 149.757 12.1605 149.757 11.6307V10.0145C149.757 9.85045 149.732 9.69257 149.379 9.66117V9.54117C149.607 9.53497 150.111 9.49709 150.193 9.49709C150.263 9.49709 150.263 9.54117 150.263 9.67997V11.3078C150.263 11.4976 150.263 12.0402 150.811 12.0402C151.026 12.0402 151.31 11.8761 151.575 11.6559V9.95733C151.575 9.83162 151.272 9.76233 151.045 9.69897V9.5854C151.612 9.54731 151.966 9.49707 152.029 9.49707C152.08 9.49707 152.08 9.54112 152.08 9.61088V11.939H152.08Z" fill="#211E1F"/>
<path d="M153.336 9.85677C153.588 9.64222 153.929 9.40224 154.276 9.40224C155.008 9.40224 155.449 10.0403 155.449 10.7277C155.449 11.5544 154.844 12.3813 153.941 12.3813C153.474 12.3813 153.228 12.2296 153.064 12.1605L152.875 12.3053L152.743 12.2363C152.799 11.8639 152.831 11.4977 152.831 11.1129V8.39912C152.831 7.98867 152.736 7.97603 152.496 7.90674V7.80579C152.749 7.72391 153.014 7.61008 153.146 7.53412C153.216 7.4965 153.266 7.4646 153.286 7.4646C153.323 7.4646 153.336 7.50272 153.336 7.55341V9.85674H153.336V9.85677ZM153.336 11.5732C153.336 11.8132 153.563 12.2175 153.986 12.2175C154.661 12.2175 154.945 11.5544 154.945 10.9925C154.945 10.3111 154.428 9.74322 153.935 9.74322C153.701 9.74322 153.506 9.89489 153.336 10.0403V11.5732H153.336Z" fill="#211E1F"/>
<path d="M126.112 15.9559H126.161C126.284 15.9559 126.415 15.9393 126.415 15.7604V13.9614C126.415 13.7823 126.284 13.7654 126.161 13.7654H126.112V13.6624C126.246 13.6624 126.452 13.6759 126.621 13.6759C126.793 13.6759 126.998 13.6624 127.16 13.6624V13.7654H127.111C126.988 13.7654 126.858 13.7824 126.858 13.9614V15.7604C126.858 15.9393 126.988 15.9559 127.111 15.9559H127.16V16.0595C126.995 16.0595 126.789 16.0459 126.617 16.0459C126.449 16.0459 126.246 16.0595 126.112 16.0595V15.9559Z" fill="#211E1F"/>
<path d="M127.16 16.0741C126.994 16.0741 126.788 16.0603 126.617 16.0603C126.449 16.0603 126.248 16.0741 126.113 16.0741H126.098V16.0594V15.9563V15.9413H126.113H126.161C126.285 15.9384 126.399 15.9284 126.4 15.7606V13.9615C126.399 13.7936 126.285 13.7824 126.161 13.7801H126.098V13.7656V13.6472H126.113C126.248 13.6472 126.453 13.6608 126.621 13.6608C126.792 13.6608 126.998 13.6472 127.16 13.6472H127.175V13.6629V13.7801H127.16H127.112C126.987 13.7825 126.873 13.7936 126.873 13.9615V15.7606C126.873 15.9284 126.987 15.9384 127.112 15.9413H127.175V15.9563V16.0741H127.16ZM127.145 16.0448V15.9715H127.112C126.989 15.9715 126.843 15.9503 126.843 15.7606V13.9615C126.843 13.7717 126.989 13.7503 127.112 13.7503H127.145V13.6775C126.987 13.6775 126.788 13.6908 126.621 13.6908C126.458 13.6908 126.261 13.6784 126.128 13.6775V13.7503H126.161C126.283 13.7503 126.429 13.7717 126.429 13.9615V15.7606C126.429 15.9503 126.283 15.9715 126.161 15.9715H126.128V16.0448C126.261 16.0434 126.455 16.031 126.617 16.031C126.784 16.031 126.983 16.0439 127.145 16.0448Z" fill="#211E1F"/>
<path d="M129.519 15.3826L129.526 15.3759V14.0883C129.526 13.8064 129.33 13.7655 129.227 13.7655H129.151V13.6624C129.313 13.6624 129.471 13.6759 129.632 13.6759C129.772 13.6759 129.914 13.6624 130.054 13.6624V13.7655H130.003C129.858 13.7655 129.697 13.7928 129.697 14.2014V15.7643C129.697 15.8843 129.701 16.0043 129.717 16.1107H129.587L127.819 14.1395V15.5545C127.819 15.8534 127.877 15.956 128.142 15.956H128.2V16.0595C128.052 16.0595 127.905 16.046 127.757 16.046C127.603 16.046 127.445 16.0595 127.29 16.0595V15.956H127.338C127.575 15.956 127.647 15.795 127.647 15.5205V14.0741C127.647 13.8819 127.489 13.7655 127.335 13.7655H127.29V13.6624C127.421 13.6624 127.554 13.6759 127.685 13.6759C127.788 13.6759 127.888 13.6624 127.99 13.6624L129.519 15.3826Z" fill="#211E1F"/>
<path d="M129.717 16.1258L129.576 16.1205L127.833 14.1784V15.5546C127.837 15.8532 127.883 15.938 128.141 15.9413H128.215V15.956V16.0741H128.2C128.051 16.0741 127.903 16.0603 127.757 16.0603C127.603 16.0603 127.445 16.0741 127.29 16.0741H127.275V16.0594V15.9413H127.29H127.338C127.565 15.9401 127.63 15.7944 127.632 15.5206V14.0744C127.632 13.8915 127.482 13.7806 127.335 13.7801H127.275V13.7648V13.6477H127.29C127.421 13.6477 127.555 13.6608 127.684 13.6608C127.786 13.6608 127.886 13.6477 128.002 13.6527L129.511 15.3515V14.0887C129.509 13.8153 129.327 13.7825 129.227 13.7801H129.136V13.7648V13.6477H129.151C129.313 13.6477 129.471 13.6608 129.632 13.6608C129.771 13.6608 129.912 13.6477 130.054 13.6477H130.069V13.6625V13.7801H130.054H130.003C129.861 13.7841 129.716 13.7965 129.712 14.2015V15.7641C129.712 15.8841 129.715 16.0041 129.732 16.1082L129.735 16.1258H129.717V16.1258ZM129.587 16.0955H129.701C129.685 15.9924 129.682 15.8782 129.682 15.7641V14.2015C129.682 13.7893 129.855 13.7503 130.003 13.7503H130.039V13.6774C129.904 13.6784 129.768 13.6908 129.632 13.6908C129.475 13.6908 129.322 13.6784 129.166 13.6774L129.166 13.7503H129.227C129.332 13.7503 129.541 13.7974 129.541 14.0887L129.536 15.3863L129.529 15.3934L129.517 15.4041L127.99 13.6774C127.888 13.6774 127.789 13.6908 127.684 13.6908C127.558 13.6908 127.43 13.6784 127.305 13.6774L127.304 13.7503H127.335C127.496 13.7503 127.661 13.8734 127.661 14.0743V15.5205C127.661 15.795 127.585 15.9708 127.338 15.9717L127.305 15.9708V16.0448C127.454 16.0434 127.607 16.031 127.757 16.031C127.9 16.031 128.043 16.0434 128.185 16.0448V15.9717H128.141C127.871 15.9708 127.804 15.8532 127.804 15.5546V14.101L129.587 16.0955ZM129.519 15.3824L129.53 15.3724L129.519 15.3824ZM129.511 15.3758V15.3746L129.508 15.3722L129.511 15.3758Z" fill="#211E1F"/>
<path d="M130.568 13.8337C130.311 13.8337 130.301 13.8957 130.249 14.1461H130.146C130.16 14.0502 130.177 13.9542 130.187 13.8542C130.201 13.758 130.208 13.6623 130.208 13.5628H130.291C130.318 13.6659 130.404 13.6623 130.497 13.6623H132.268C132.361 13.6623 132.447 13.659 132.454 13.5557L132.536 13.5695C132.522 13.6623 132.509 13.7549 132.498 13.8478C132.492 13.9404 132.492 14.0333 132.492 14.1256L132.389 14.164C132.381 14.0371 132.364 13.8337 132.135 13.8337H131.571V15.6609C131.571 15.9256 131.692 15.9559 131.856 15.9559H131.921V16.0595C131.788 16.0595 131.547 16.0459 131.362 16.0459C131.156 16.0459 130.915 16.0595 130.781 16.0595V15.9559H130.847C131.036 15.9559 131.132 15.939 131.132 15.668V13.8337H130.568V13.8337Z" fill="#211E1F"/>
<path d="M131.922 16.0741C131.787 16.0741 131.547 16.0603 131.362 16.0603C131.156 16.0603 130.916 16.0741 130.781 16.0741H130.767V16.0596V15.9412H130.781H130.847C131.036 15.9367 131.112 15.9343 131.117 15.6681V13.8489H130.568V13.8338V13.8186H131.146V15.6681C131.146 15.9436 131.035 15.9714 130.847 15.9717H130.796V16.0441C130.932 16.0434 131.163 16.031 131.362 16.031C131.541 16.031 131.771 16.0434 131.906 16.0441V15.9717H131.856C131.69 15.9714 131.557 15.9307 131.557 15.661V13.8186H132.135C132.365 13.8195 132.395 14.0155 132.403 14.1429L132.477 14.1155C132.477 14.026 132.477 13.9362 132.483 13.8457C132.493 13.7574 132.506 13.6698 132.519 13.5822L132.467 13.5734C132.451 13.6734 132.354 13.6784 132.268 13.6774H130.497H130.479C130.398 13.6774 130.31 13.6736 130.279 13.5777H130.223C130.222 13.6727 130.216 13.7648 130.202 13.8562C130.192 13.9505 130.177 14.0412 130.164 14.1319H130.237C130.283 13.8926 130.312 13.815 130.568 13.8186V13.8339V13.8489C130.315 13.8534 130.32 13.8962 130.264 14.15L130.261 14.1617H130.249H130.129L130.131 14.1439C130.145 14.0477 130.162 13.9519 130.172 13.8519C130.187 13.7567 130.193 13.6614 130.193 13.5629V13.5479H130.208H130.302L130.305 13.5586C130.328 13.6453 130.392 13.6457 130.479 13.6472H130.497H132.268C132.363 13.6457 132.433 13.6443 132.439 13.5545L132.44 13.5383L132.456 13.5417L132.553 13.5569L132.551 13.5719C132.537 13.6638 132.523 13.7567 132.513 13.8488C132.506 13.9403 132.506 14.0331 132.506 14.1257V14.1364L132.497 14.1403L132.375 14.1845L132.374 14.1645C132.365 14.0355 132.352 13.8488 132.135 13.8488H131.587V15.6609C131.59 15.92 131.692 15.9379 131.856 15.9412H131.936V15.9559V16.074L131.922 16.0741Z" fill="#211E1F"/>
<path d="M132.646 15.9559H132.694C132.817 15.9559 132.948 15.9393 132.948 15.7604V13.9614C132.948 13.7823 132.817 13.7654 132.694 13.7654H132.646V13.6624C132.855 13.6624 133.212 13.6759 133.5 13.6759C133.789 13.6759 134.146 13.6624 134.379 13.6624C134.373 13.8097 134.376 14.0369 134.386 14.1876L134.283 14.2152C134.267 13.9921 134.225 13.8138 133.865 13.8138H133.388V14.7131H133.796C134.002 14.7131 134.047 14.5967 134.067 14.4107H134.17C134.163 14.5452 134.16 14.6791 134.16 14.8129C134.16 14.9436 134.163 15.0738 134.17 15.2043L134.067 15.2248C134.047 15.0188 134.036 14.885 133.799 14.885H133.388V15.6848C133.388 15.9083 133.586 15.9083 133.806 15.9083C134.218 15.9083 134.4 15.8805 134.503 15.4895L134.599 15.5131C134.554 15.6955 134.513 15.8771 134.483 16.0595C134.263 16.0595 133.868 16.0459 133.559 16.0459C133.25 16.0459 132.841 16.0595 132.646 16.0595V15.9559V15.9559Z" fill="#211E1F"/>
<path d="M134.482 16.0741C134.262 16.0741 133.867 16.0601 133.559 16.0601C133.25 16.0601 132.841 16.0741 132.645 16.0741H132.631V16.0596V15.956V15.9413H132.645H132.694C132.818 15.9394 132.931 15.9284 132.933 15.7606V13.9615C132.931 13.7939 132.818 13.7827 132.694 13.7801H132.631V13.7656V13.6477H132.645C132.855 13.6477 133.212 13.6608 133.5 13.6608C133.789 13.6608 134.145 13.6477 134.379 13.6477H134.394L134.394 13.6629C134.391 13.7146 134.39 13.7755 134.39 13.8403C134.39 13.9591 134.394 14.0889 134.4 14.1868L134.401 14.1991L134.39 14.2025L134.269 14.2339L134.268 14.2163C134.248 13.9934 134.218 13.8318 133.865 13.8284H133.402L133.401 14.6977H133.796C133.993 14.6958 134.029 14.5946 134.052 14.4096L134.053 14.3961H134.067H134.185L134.185 14.4115C134.178 14.5453 134.174 14.6791 134.174 14.8129C134.174 14.9429 134.178 15.0732 134.185 15.2039L134.185 15.2161L134.173 15.2189L134.053 15.2427L134.052 15.2265C134.029 15.017 134.027 14.9022 133.799 14.8996L133.402 14.8994V15.6848C133.402 15.8934 133.582 15.8922 133.806 15.8934C134.219 15.891 134.385 15.8711 134.489 15.4853L134.492 15.4715L134.506 15.4741L134.617 15.5024L134.613 15.5168C134.569 15.6987 134.528 15.8801 134.497 16.062L134.494 16.0741H134.482V16.0741ZM134.47 16.0441C134.5 15.871 134.539 15.6972 134.581 15.5243L134.513 15.5072C134.41 15.8915 134.211 15.9258 133.806 15.9232C133.59 15.9232 133.373 15.9232 133.372 15.6848V14.8701H133.799C134.039 14.8674 134.063 15.0122 134.08 15.2077L134.154 15.1922C134.148 15.0658 134.145 14.9389 134.145 14.8129C134.145 14.6836 134.148 14.5551 134.154 14.4258H134.08C134.061 14.6046 134.005 14.7303 133.796 14.7279H133.372V13.7984H133.865C134.222 13.796 134.281 13.9803 134.296 14.1963L134.37 14.1763C134.364 14.0793 134.36 13.9551 134.36 13.8403C134.36 13.7815 134.362 13.726 134.364 13.6774C134.13 13.6784 133.783 13.6908 133.5 13.6908C133.218 13.6908 132.871 13.6784 132.66 13.6774V13.7503H132.694C132.816 13.7503 132.962 13.7717 132.963 13.9615V15.7606C132.962 15.9498 132.816 15.9708 132.694 15.9718H132.66V16.0441C132.861 16.0439 133.257 16.031 133.559 16.031C133.862 16.031 134.248 16.0439 134.47 16.0441Z" fill="#211E1F"/>
<path d="M135.063 14.0262C135.063 13.7757 134.925 13.7654 134.818 13.7654H134.757V13.6621C134.867 13.6621 135.079 13.6759 135.289 13.6759C135.495 13.6759 135.66 13.6621 135.842 13.6621C136.274 13.6621 136.659 13.779 136.659 14.2671C136.659 14.5754 136.453 14.7645 136.182 14.8714L136.769 15.75C136.865 15.8952 136.933 15.9359 137.102 15.9559V16.0595C136.988 16.0595 136.878 16.0459 136.765 16.0459C136.659 16.0459 136.549 16.0595 136.443 16.0595C136.178 15.7126 135.951 15.3416 135.728 14.9464H135.502V15.6816C135.502 15.9464 135.625 15.9559 135.783 15.9559H135.845V16.0595C135.649 16.0595 135.451 16.0459 135.255 16.0459C135.09 16.0459 134.928 16.0595 134.757 16.0595V15.9559H134.818C134.946 15.9559 135.063 15.8983 135.063 15.7709V14.0262V14.0262ZM135.502 14.8228H135.67C136.013 14.8228 136.198 14.6924 136.198 14.2871C136.198 13.9819 136.003 13.7859 135.697 13.7859C135.594 13.7859 135.55 13.7966 135.502 13.7997V14.8228H135.502Z" fill="#211E1F"/>
<path d="M137.102 16.0741C136.987 16.0741 136.878 16.0603 136.765 16.0603C136.66 16.0603 136.55 16.0741 136.431 16.0684C136.167 15.7229 135.942 15.3541 135.72 14.9617H135.517V15.6812C135.52 15.9396 135.624 15.9374 135.783 15.9412H135.86V15.956V16.0741H135.845C135.648 16.0741 135.449 16.0603 135.254 16.0603C135.09 16.0603 134.929 16.0741 134.757 16.0741H134.742V16.0593V15.9412H134.757H134.818C134.942 15.9405 135.047 15.8867 135.047 15.771V14.0263C135.044 13.7825 134.925 13.7839 134.818 13.7803H134.742V13.7656V13.6472H134.757C134.868 13.6472 135.08 13.6608 135.289 13.6608C135.494 13.6608 135.659 13.6472 135.842 13.6472C136.274 13.6482 136.673 13.7677 136.674 14.2663C136.674 14.5765 136.469 14.77 136.204 14.8782L136.781 15.742C136.877 15.8843 136.937 15.9198 137.104 15.9412L137.117 15.9431V15.956V16.0741H137.102V16.0741ZM135.502 14.9317H135.737L135.741 14.9393C135.964 15.3338 136.19 15.7043 136.443 16.0448C136.548 16.0448 136.658 16.0307 136.765 16.0307C136.874 16.0307 136.98 16.0426 137.087 16.0443V15.9691C136.926 15.9491 136.85 15.901 136.757 15.7583L136.159 14.8643L136.176 14.8574C136.445 14.7517 136.643 14.5681 136.644 14.2662C136.643 13.7897 136.273 13.6793 135.842 13.6774C135.661 13.6774 135.496 13.691 135.289 13.691C135.087 13.691 134.884 13.6783 134.771 13.6774V13.7502H134.818C134.925 13.7505 135.077 13.7681 135.077 14.0262V15.771C135.077 15.9088 134.948 15.9717 134.818 15.9719H134.771V16.0443C134.937 16.0438 135.093 16.0307 135.254 16.0307C135.446 16.0307 135.64 16.0438 135.83 16.0443V15.9719H135.783C135.626 15.9716 135.487 15.9521 135.487 15.6812V14.9317H135.502H135.502ZM135.502 14.8374H135.487V13.786L135.5 13.7848C135.547 13.7812 135.593 13.7714 135.697 13.7714C136.01 13.7714 136.213 13.9748 136.214 14.2878C136.213 14.6978 136.016 14.8371 135.67 14.8374H135.502V14.8374ZM135.67 14.8079C136.01 14.805 136.181 14.6869 136.184 14.2879C136.183 13.9879 135.996 13.8017 135.697 13.8005C135.604 13.8005 135.561 13.809 135.517 13.8129V14.8079H135.67V14.8079Z" fill="#211E1F"/>
<path d="M139.433 15.3826L139.439 15.3759V14.0883C139.439 13.8064 139.244 13.7655 139.141 13.7655H139.066V13.6624C139.227 13.6624 139.384 13.6759 139.546 13.6759C139.687 13.6759 139.827 13.6624 139.969 13.6624V13.7655H139.917C139.773 13.7655 139.612 13.7928 139.612 14.2014V15.7643C139.612 15.8843 139.615 16.0043 139.632 16.1107H139.502L137.734 14.1395V15.5545C137.734 15.8534 137.792 15.956 138.056 15.956H138.114V16.0595C137.967 16.0595 137.819 16.046 137.672 16.046C137.517 16.046 137.359 16.0595 137.205 16.0595V15.956H137.252C137.489 15.956 137.562 15.795 137.562 15.5205V14.0741C137.562 13.8819 137.404 13.7655 137.249 13.7655H137.205V13.6624C137.335 13.6624 137.469 13.6759 137.599 13.6759C137.702 13.6759 137.802 13.6624 137.905 13.6624L139.433 15.3826Z" fill="#211E1F"/>
<path d="M139.632 16.1255L139.491 16.1208L137.748 14.1784V15.5544C137.752 15.8532 137.797 15.9379 138.056 15.9413H138.129V15.956V16.0741H138.114C137.965 16.0741 137.818 16.06 137.671 16.06C137.518 16.06 137.359 16.0741 137.205 16.0741H137.189V16.0596V15.9413H137.205H137.252C137.479 15.9403 137.544 15.7944 137.546 15.5196V14.0741C137.546 13.8912 137.396 13.7803 137.249 13.7801H137.189V13.7656V13.6472H137.205C137.336 13.6472 137.47 13.6608 137.599 13.6608C137.7 13.6608 137.8 13.6472 137.915 13.652L139.424 15.3515V14.0881C139.423 13.8153 139.241 13.7815 139.141 13.7801H139.05V13.7656V13.6472H139.065C139.227 13.6472 139.386 13.6608 139.546 13.6608C139.686 13.6608 139.827 13.6472 139.968 13.6472H139.983V13.6627V13.7801H139.968H139.917C139.776 13.7839 139.63 13.7965 139.626 14.2015V15.7641C139.626 15.8841 139.629 16.0031 139.646 16.1089L139.648 16.1255H139.632ZM139.501 16.0955H139.614C139.599 15.9924 139.596 15.8781 139.596 15.7641V14.2015C139.596 13.7893 139.77 13.7512 139.917 13.7501H139.953V13.6774C139.818 13.6784 139.682 13.6908 139.546 13.6908C139.388 13.6908 139.235 13.6784 139.08 13.6774V13.7501H139.141C139.246 13.7512 139.455 13.7974 139.455 14.0881L139.45 15.3862L139.443 15.3934L139.433 15.4043L137.905 13.6775C137.803 13.6775 137.703 13.6908 137.599 13.6908C137.472 13.6908 137.344 13.6784 137.219 13.6775V13.7501H137.249C137.411 13.7513 137.576 13.8729 137.576 14.0741V15.5196C137.576 15.7953 137.498 15.9708 137.252 15.9717L137.219 15.9715V16.0441C137.367 16.0434 137.52 16.031 137.671 16.031C137.815 16.031 137.958 16.0434 138.1 16.0441V15.9717H138.056C137.786 15.9715 137.718 15.8532 137.718 15.5543V14.1015L139.501 16.0955ZM139.433 15.3824L139.443 15.3727L139.433 15.3824ZM139.424 15.376V15.3748L139.422 15.3722L139.424 15.376Z" fill="#211E1F"/>
<path d="M140.521 15.5683C140.486 15.6847 140.445 15.7747 140.445 15.8359C140.445 15.9393 140.589 15.9559 140.702 15.9559H140.741V16.0595C140.603 16.0521 140.463 16.0459 140.324 16.0459C140.201 16.0459 140.078 16.0521 139.954 16.0595V15.9559H139.975C140.109 15.9559 140.222 15.8771 140.273 15.7326L140.823 14.1569C140.867 14.0297 140.93 13.8581 140.95 13.7307C141.06 13.6933 141.197 13.6247 141.262 13.5833C141.273 13.5798 141.279 13.5762 141.29 13.5762C141.3 13.5762 141.307 13.5762 141.314 13.5869C141.324 13.614 141.334 13.6452 141.345 13.6726L141.977 15.4688C142.018 15.5888 142.059 15.7157 142.103 15.819C142.145 15.9152 142.217 15.9559 142.331 15.9559H142.351V16.0595C142.196 16.0521 142.042 16.046 141.877 16.046C141.709 16.046 141.537 16.0521 141.362 16.0595V15.9559H141.4C141.479 15.9559 141.613 15.9426 141.613 15.8566C141.613 15.8121 141.582 15.7195 141.544 15.6093L141.41 15.2109H140.631L140.521 15.5683ZM141.022 14.0469H141.015L140.696 15.0188H141.338L141.022 14.0469Z" fill="#211E1F"/>
<path d="M142.35 16.0741C142.195 16.0672 142.041 16.0601 141.877 16.0601C141.709 16.0601 141.538 16.0672 141.362 16.0741L141.347 16.0751V16.0596V15.9408H141.362H141.4C141.479 15.9408 141.597 15.9227 141.597 15.8568C141.598 15.8177 141.567 15.7234 141.529 15.6142L141.399 15.2258H140.641L140.535 15.5727C140.5 15.6898 140.459 15.7806 140.459 15.8365C140.46 15.9203 140.588 15.9408 140.702 15.9408H140.755V15.9563V16.0751L140.74 16.0741C140.602 16.0672 140.462 16.0601 140.325 16.0601C140.202 16.0601 140.078 16.0672 139.955 16.0741L139.939 16.0751V16.0596V15.9408H139.954H139.975C140.103 15.9403 140.209 15.8677 140.259 15.728L140.808 14.152C140.854 14.0246 140.915 13.8534 140.945 13.7165C141.053 13.6801 141.191 13.6111 141.257 13.5692C141.266 13.5661 141.276 13.5613 141.29 13.5613C141.298 13.5611 141.317 13.5632 141.328 13.5813C141.338 13.6096 141.348 13.6401 141.359 13.668L141.991 15.464C142.032 15.5844 142.073 15.7113 142.117 15.8127C142.157 15.9044 142.22 15.9404 142.331 15.9408H142.366V15.9563V16.0751L142.35 16.0741ZM141.377 16.0434C141.547 16.0375 141.713 16.0308 141.877 16.0308C142.037 16.0308 142.186 16.0375 142.335 16.0434V15.9717H142.331C142.213 15.9724 142.132 15.9263 142.09 15.8251C142.045 15.7208 142.003 15.5934 141.963 15.4732L141.331 13.6775C141.32 13.6501 141.31 13.6189 141.301 13.5946C141.298 13.5913 141.299 13.5913 141.296 13.5913H141.29C141.283 13.5913 141.279 13.5934 141.27 13.5958C141.204 13.6389 141.066 13.7063 140.964 13.7332C140.943 13.8632 140.881 14.0346 140.837 14.1617L140.287 15.7379C140.235 15.887 140.114 15.972 139.975 15.9717H139.969V16.0434C140.087 16.0375 140.206 16.0308 140.325 16.0308C140.458 16.0308 140.593 16.0375 140.724 16.0434V15.9717H140.702C140.591 15.9703 140.434 15.9577 140.43 15.8365C140.43 15.7679 140.473 15.6801 140.506 15.5641L140.521 15.5686L140.506 15.5636L140.619 15.1965H141.42L141.557 15.6046C141.596 15.7148 141.627 15.8063 141.627 15.8567C141.622 15.9622 141.477 15.9696 141.4 15.9717H141.377V16.0434H141.377ZM140.675 15.0336L141.004 14.032H141.015H141.022V14.047L141.018 14.0477L141.022 14.047V14.032H141.033L141.358 15.0336H140.675ZM140.716 15.0039H141.317L141.018 14.0836L140.716 15.0039ZM141.007 14.0513L141.015 14.0487L141.007 14.0513Z" fill="#211E1F"/>
<path d="M142.502 13.8337C142.244 13.8337 142.234 13.8957 142.182 14.1461H142.079C142.093 14.0502 142.11 13.9542 142.121 13.8542C142.135 13.758 142.141 13.6623 142.141 13.5628H142.224C142.251 13.6659 142.337 13.6623 142.429 13.6623H144.202C144.294 13.6623 144.379 13.659 144.387 13.5557L144.469 13.5695C144.456 13.6623 144.442 13.7549 144.432 13.8478C144.424 13.9404 144.424 14.0333 144.424 14.1256L144.321 14.164C144.315 14.0371 144.298 13.8337 144.068 13.8337H143.504V15.6609C143.504 15.9256 143.625 15.9559 143.789 15.9559H143.854V16.0595C143.721 16.0595 143.481 16.0459 143.295 16.0459C143.089 16.0459 142.848 16.0595 142.715 16.0595V15.9559H142.78C142.969 15.9559 143.065 15.939 143.065 15.668V13.8337H142.502V13.8337Z" fill="#211E1F"/>
<path d="M143.854 16.0741C143.72 16.0741 143.479 16.0603 143.295 16.0603C143.09 16.0603 142.849 16.0741 142.715 16.0741H142.699V16.0595V15.9412H142.715H142.78C142.969 15.9367 143.045 15.9343 143.05 15.6681L143.049 13.8488H142.502V13.8338V13.8186H143.079V15.6681C143.079 15.9436 142.968 15.9707 142.78 15.9714H142.729V16.0448C142.865 16.0433 143.096 16.0309 143.295 16.0309C143.474 16.0309 143.704 16.0434 143.839 16.0448V15.9714H143.789C143.624 15.9707 143.49 15.9309 143.489 15.6609V13.8186H144.067C144.298 13.8195 144.328 14.0155 144.335 14.1429L144.41 14.1155C144.41 14.0259 144.41 13.9362 144.417 13.8462C144.426 13.7579 144.439 13.6698 144.452 13.5821L144.4 13.5733C144.384 13.6733 144.287 13.6788 144.202 13.6774H142.429H142.412C142.331 13.6783 142.243 13.6735 142.212 13.5771H142.156C142.155 13.6724 142.149 13.7648 142.135 13.8562C142.126 13.9507 142.109 14.0417 142.096 14.1319H142.17C142.215 13.8926 142.245 13.815 142.502 13.8186V13.8338V13.8488C142.247 13.8531 142.253 13.8962 142.197 14.15L142.194 14.1617H142.182H142.062L142.064 14.1445C142.078 14.0476 142.095 13.9519 142.105 13.8526C142.119 13.7566 142.126 13.6614 142.126 13.5628V13.5478H142.141H142.235L142.237 13.5585C142.261 13.6452 142.324 13.6457 142.412 13.6471L142.429 13.6476H144.202C144.296 13.6457 144.366 13.6443 144.371 13.5548L144.372 13.5383L144.389 13.5417L144.486 13.5569L144.483 13.5719C144.469 13.6638 144.456 13.7567 144.446 13.8488C144.439 13.9403 144.439 14.0334 144.439 14.1257V14.1364L144.429 14.1403L144.307 14.1845L144.307 14.1645C144.298 14.0355 144.284 13.8488 144.067 13.8488H143.519V15.6609C143.523 15.92 143.625 15.9379 143.789 15.9412H143.869V15.9559V16.074L143.854 16.0741Z" fill="#211E1F"/>
<path d="M144.596 15.9559H144.644C144.768 15.9559 144.897 15.9393 144.897 15.7604V13.9614C144.897 13.7823 144.768 13.7654 144.644 13.7654H144.596V13.6624C144.73 13.6624 144.935 13.6759 145.103 13.6759C145.276 13.6759 145.481 13.6624 145.643 13.6624V13.7654H145.595C145.471 13.7654 145.34 13.7824 145.34 13.9614V15.7604C145.34 15.9393 145.471 15.9559 145.595 15.9559H145.643V16.0595C145.478 16.0595 145.272 16.0459 145.101 16.0459C144.932 16.0459 144.73 16.0595 144.596 16.0595V15.9559Z" fill="#211E1F"/>
<path d="M145.643 16.0741C145.477 16.0741 145.272 16.0601 145.1 16.0601C144.933 16.0601 144.73 16.0741 144.596 16.0741H144.581V16.0596V15.956V15.9413H144.596H144.644C144.768 15.9394 144.882 15.9287 144.882 15.7606V13.9615C144.882 13.7939 144.768 13.7824 144.644 13.7801H144.581V13.7656V13.6477H144.596C144.73 13.6477 144.936 13.6608 145.103 13.6608C145.274 13.6608 145.48 13.6477 145.643 13.6477H145.658V13.6624V13.7801H145.643H145.595C145.469 13.7824 145.357 13.7939 145.355 13.9615V15.7606C145.357 15.9287 145.469 15.9394 145.595 15.9413H145.658V15.956V16.0741H145.643ZM145.628 16.0441V15.9715H145.595C145.472 15.9715 145.326 15.9498 145.326 15.7606V13.9615C145.326 13.7717 145.472 13.7503 145.595 13.7503H145.628V13.6774C145.469 13.6784 145.271 13.6908 145.103 13.6908C144.941 13.6908 144.744 13.6784 144.611 13.6774V13.7503H144.644C144.766 13.7503 144.912 13.7717 144.913 13.9615V15.7606C144.912 15.9498 144.766 15.9715 144.644 15.9715H144.611V16.0441C144.743 16.0427 144.937 16.031 145.1 16.031C145.267 16.031 145.466 16.0434 145.628 16.0441H145.628Z" fill="#211E1F"/>
<path d="M147.012 13.6108C147.744 13.6108 148.327 14.0646 148.327 14.7958C148.327 15.5859 147.761 16.1108 147.03 16.1108C146.301 16.1108 145.746 15.6163 145.746 14.878C145.746 14.1639 146.298 13.6108 147.012 13.6108ZM147.064 15.9596C147.73 15.9596 147.846 15.372 147.846 14.8713C147.846 14.3694 147.576 13.7618 147.006 13.7618C146.405 13.7618 146.226 14.2975 146.226 14.7573C146.226 15.372 146.508 15.9596 147.064 15.9596Z" fill="#211E1F"/>
<path d="M145.73 14.8781C145.732 14.1557 146.291 13.5969 147.012 13.5959V13.6109V13.6254C146.306 13.6254 145.76 14.1714 145.759 14.8781C145.761 15.6081 146.309 16.0952 147.03 16.0954C147.754 16.0952 148.312 15.5776 148.313 14.7952C148.313 14.0733 147.738 13.6264 147.012 13.6254V13.6109V13.5959C147.75 13.5964 148.341 14.0548 148.342 14.7952C148.342 15.5935 147.768 16.124 147.03 16.1254C146.296 16.124 145.732 15.6245 145.73 14.8781H145.73V14.8781ZM146.211 14.7574C146.212 14.2955 146.393 13.7464 147.006 13.7464C147.588 13.7479 147.861 14.3669 147.862 14.8714C147.861 15.3721 147.743 15.9741 147.064 15.9741V15.9598V15.945C147.717 15.9441 147.83 15.3721 147.832 14.8714C147.832 14.3736 147.564 13.7776 147.006 13.7769C146.417 13.7776 146.242 14.3 146.241 14.7574C146.242 15.369 146.52 15.9436 147.064 15.945V15.9598V15.9741C146.494 15.9733 146.212 15.3757 146.211 14.7574Z" fill="#211E1F"/>
<path d="M150.641 15.3826L150.648 15.3759V14.0883C150.648 13.8064 150.452 13.7655 150.349 13.7655H150.275V13.6624C150.436 13.6624 150.593 13.6759 150.754 13.6759C150.896 13.6759 151.036 13.6624 151.177 13.6624V13.7655H151.125C150.981 13.7655 150.82 13.7928 150.82 14.2014V15.7643C150.82 15.8843 150.823 16.0043 150.841 16.1107H150.71L148.942 14.1395V15.5545C148.942 15.8534 149 15.956 149.264 15.956H149.323V16.0595C149.175 16.0595 149.028 16.046 148.88 16.046C148.725 16.046 148.567 16.0595 148.413 16.0595V15.956H148.461C148.698 15.956 148.77 15.795 148.77 15.5205V14.0741C148.77 13.8819 148.612 13.7655 148.457 13.7655H148.413V13.6624C148.543 13.6624 148.677 13.6759 148.807 13.6759C148.911 13.6759 149.01 13.6624 149.113 13.6624L150.641 15.3826Z" fill="#211E1F"/>
<path d="M150.841 16.1255L150.699 16.1205L148.957 14.1784V15.5546C148.96 15.8532 149.006 15.9377 149.264 15.9408H149.338V15.9563V16.0741H149.323C149.174 16.0741 149.027 16.0603 148.88 16.0603C148.726 16.0603 148.568 16.0741 148.412 16.0741H148.398V16.0594V15.9408H148.412H148.461C148.687 15.9401 148.752 15.7944 148.755 15.5206V14.0741C148.755 13.8913 148.605 13.7803 148.457 13.7801H148.398V13.7656V13.6477H148.412C148.544 13.6477 148.678 13.6608 148.807 13.6608C148.909 13.6608 149.008 13.6477 149.125 13.6527L150.633 15.3515V14.0887C150.632 13.8154 150.449 13.7825 150.349 13.7801H150.259V13.7656V13.6478H150.274C150.436 13.6478 150.594 13.6608 150.754 13.6608C150.895 13.6608 151.035 13.6478 151.177 13.6478H151.192V13.6625V13.7801H151.177H151.125C150.984 13.7842 150.838 13.797 150.835 14.2015V15.7642C150.835 15.8842 150.838 16.0039 150.854 16.1089L150.857 16.1256H150.841V16.1255ZM150.71 16.0955H150.823C150.808 15.9924 150.805 15.8782 150.805 15.7641V14.2015C150.805 13.7886 150.978 13.7513 151.125 13.7501H151.162V13.6774C151.027 13.6784 150.891 13.6908 150.754 13.6908C150.598 13.6908 150.444 13.6784 150.289 13.6774V13.7501H150.349C150.455 13.7513 150.662 13.7982 150.662 14.0886L150.659 15.3863L150.652 15.3934L150.641 15.4043L149.113 13.6775C149.012 13.6775 148.912 13.6908 148.808 13.6908C148.681 13.6908 148.552 13.6784 148.427 13.6775V13.7501H148.457C148.619 13.7513 148.785 13.8729 148.785 14.0741V15.5206C148.785 15.7951 148.708 15.9708 148.461 15.9718L148.427 15.9715V16.0441C148.576 16.0434 148.729 16.031 148.88 16.031C149.023 16.031 149.165 16.0434 149.308 16.0441V15.9718H149.264C148.994 15.9715 148.927 15.8532 148.927 15.5546V14.101L150.71 16.0955ZM150.641 15.3824L150.652 15.3727L150.641 15.3824ZM150.633 15.376V15.3748L150.63 15.3722L150.633 15.376Z" fill="#211E1F"/>
<path d="M151.729 15.5683C151.695 15.6847 151.654 15.7747 151.654 15.8359C151.654 15.9393 151.798 15.9559 151.911 15.9559H151.949V16.0595C151.812 16.0521 151.671 16.0459 151.533 16.0459C151.409 16.0459 151.286 16.0521 151.163 16.0595V15.9559H151.183C151.317 15.9559 151.431 15.8771 151.482 15.7326L152.032 14.1569C152.076 14.0297 152.138 13.8581 152.158 13.7307C152.268 13.6933 152.405 13.6247 152.471 13.5833C152.481 13.5798 152.488 13.5762 152.498 13.5762C152.509 13.5762 152.515 13.5762 152.522 13.5869C152.533 13.614 152.543 13.6452 152.553 13.6726L153.185 15.4688C153.226 15.5888 153.267 15.7157 153.312 15.819C153.353 15.9152 153.426 15.9559 153.539 15.9559H153.56V16.0595C153.405 16.0521 153.25 16.046 153.085 16.046C152.918 16.046 152.746 16.0521 152.57 16.0595V15.9559H152.609C152.687 15.9559 152.822 15.9426 152.822 15.8566C152.822 15.8121 152.79 15.7195 152.752 15.6093L152.619 15.2109H151.839L151.729 15.5683ZM152.231 14.0469H152.224L151.904 15.0188H152.547L152.231 14.0469Z" fill="#211E1F"/>
<path d="M153.558 16.0741C153.404 16.0679 153.249 16.0603 153.085 16.0603C152.918 16.0603 152.746 16.0679 152.571 16.0741L152.556 16.0751V16.0594V15.9413H152.57H152.608C152.688 15.9413 152.806 15.9227 152.806 15.8567C152.807 15.8177 152.776 15.7241 152.738 15.6141L152.607 15.2258H151.849L151.743 15.5727C151.709 15.6903 151.668 15.7805 151.669 15.836C151.669 15.9203 151.797 15.9413 151.911 15.9413H151.963V15.956V16.0751L151.948 16.0741C151.811 16.0679 151.67 16.0603 151.533 16.0603C151.41 16.0603 151.287 16.0679 151.163 16.0741L151.148 16.0751V16.0594V15.9413H151.163H151.183C151.311 15.9408 151.418 15.8672 151.468 15.7279L152.018 14.152C152.061 14.0246 152.123 13.8534 152.154 13.717C152.262 13.6796 152.399 13.611 152.466 13.5691C152.475 13.566 152.484 13.562 152.498 13.562C152.508 13.561 152.525 13.5631 152.536 13.582C152.546 13.6089 152.556 13.64 152.568 13.6679L153.199 15.4639C153.24 15.5844 153.281 15.7113 153.326 15.8134C153.366 15.9044 153.429 15.9403 153.538 15.9413H153.574V15.956V16.0751L153.558 16.0741ZM152.585 16.0439C152.755 16.0374 152.922 16.0308 153.085 16.0308C153.245 16.0308 153.395 16.0374 153.544 16.0434L153.544 15.9717H153.538C153.422 15.972 153.341 15.9262 153.298 15.825C153.253 15.7208 153.212 15.5934 153.171 15.4736L152.539 13.6774C152.529 13.65 152.518 13.6189 152.51 13.5955C152.507 13.5912 152.508 13.5912 152.505 13.5912H152.498C152.491 13.5912 152.487 13.5936 152.479 13.596C152.412 13.6381 152.275 13.7067 152.173 13.7331C152.152 13.8631 152.089 14.0343 152.045 14.1617L151.495 15.7379C151.443 15.887 151.323 15.972 151.183 15.9717H151.178V16.0434C151.296 16.0374 151.414 16.0308 151.533 16.0308C151.667 16.0308 151.802 16.0374 151.934 16.0434V15.9717H151.911C151.799 15.9703 151.642 15.9581 151.638 15.836C151.639 15.7679 151.682 15.6805 151.715 15.5641L151.729 15.5686L151.715 15.5636L151.828 15.1965H152.629L152.766 15.6045C152.804 15.715 152.835 15.8062 152.835 15.8567C152.83 15.9622 152.686 15.9695 152.608 15.9717H152.585V16.0439H152.585ZM151.884 15.0334L152.213 14.032H152.223H152.231V14.047L152.227 14.0477L152.231 14.047V14.032H152.242L152.566 15.0334H151.884ZM151.925 15.0039H152.525L152.227 14.0841L151.925 15.0039ZM152.217 14.0513L152.223 14.0486L152.217 14.0513Z" fill="#211E1F"/>
<path d="M154.425 15.7228C154.425 15.8602 154.52 15.9012 154.63 15.9152C154.771 15.9257 154.925 15.9257 155.084 15.9083C155.228 15.8909 155.352 15.8086 155.413 15.7228C155.468 15.6471 155.499 15.5509 155.519 15.4754H155.619C155.581 15.6712 155.533 15.864 155.492 16.0595C155.19 16.0595 154.888 16.0459 154.586 16.0459C154.283 16.0459 153.982 16.0595 153.679 16.0595V15.9559H153.727C153.851 15.9559 153.985 15.9393 153.985 15.7262V13.9614C153.985 13.7823 153.851 13.7654 153.727 13.7654H153.679V13.6624C153.861 13.6624 154.04 13.6759 154.221 13.6759C154.397 13.6759 154.568 13.6624 154.744 13.6624V13.7654H154.657C154.527 13.7654 154.425 13.7693 154.425 13.9507V15.7228V15.7228Z" fill="#211E1F"/>
<path d="M155.492 16.0741C155.189 16.0741 154.887 16.0603 154.586 16.0603C154.283 16.0603 153.981 16.0741 153.679 16.0741H153.664V16.0593V15.9413H153.679H153.727C153.851 15.9384 153.969 15.9298 153.97 15.7263V13.9608C153.969 13.7939 153.852 13.7825 153.727 13.7801H153.664V13.7656V13.6477H153.679C153.861 13.6477 154.04 13.6608 154.222 13.6608C154.396 13.6608 154.567 13.6477 154.744 13.6477H154.758V13.6625V13.7801H154.744H154.657C154.524 13.7839 154.442 13.7777 154.439 13.9508V15.7229C154.44 15.8508 154.524 15.8853 154.631 15.9003C154.692 15.9046 154.755 15.9072 154.821 15.9072C154.905 15.9072 154.993 15.9032 155.081 15.8937C155.221 15.8773 155.342 15.7965 155.401 15.7146C155.454 15.6413 155.484 15.547 155.505 15.472L155.508 15.4606H155.519H155.637L155.634 15.4787C155.595 15.6751 155.548 15.867 155.506 16.0625L155.503 16.0742H155.492H155.492V16.0741ZM155.479 16.0441C155.519 15.8579 155.564 15.6758 155.601 15.49H155.531C155.509 15.5648 155.479 15.6569 155.425 15.7319C155.361 15.821 155.233 15.9048 155.085 15.9231C154.995 15.9324 154.906 15.9372 154.821 15.9372C154.755 15.9372 154.69 15.9341 154.628 15.9298C154.517 15.9174 154.408 15.8698 154.409 15.7229V13.9508C154.409 13.76 154.529 13.7503 154.657 13.7503H154.728V13.6774C154.559 13.6784 154.392 13.691 154.221 13.691C154.044 13.691 153.87 13.6784 153.694 13.6774V13.7503H153.727C153.849 13.7503 153.999 13.7717 153.999 13.9608V15.7262C153.999 15.9484 153.85 15.9715 153.727 15.9715H153.694V16.0441C153.991 16.0438 154.287 16.031 154.586 16.031C154.884 16.031 155.182 16.0438 155.479 16.0441Z" fill="#211E1F"/>
<path d="M155.577 13.5647C155.784 13.5647 155.939 13.7237 155.939 13.9276C155.939 14.1304 155.784 14.288 155.577 14.288C155.37 14.288 155.216 14.1304 155.216 13.9276C155.216 13.7238 155.37 13.5647 155.577 13.5647ZM155.577 14.2206C155.739 14.2206 155.863 14.0826 155.863 13.9276C155.863 13.7716 155.741 13.6323 155.577 13.6323C155.415 13.6323 155.29 13.7716 155.29 13.9276C155.29 14.0826 155.415 14.2206 155.577 14.2206ZM155.397 14.118V14.1002C155.442 14.094 155.45 14.0954 155.45 14.0678V13.8002C155.45 13.7626 155.446 13.7497 155.399 13.7516V13.7333H155.584C155.648 13.7333 155.706 13.7635 155.706 13.8292C155.706 13.883 155.67 13.9228 155.621 13.9383L155.68 14.0211C155.708 14.0587 155.739 14.094 155.76 14.1063V14.118H155.689C155.655 14.118 155.626 14.0468 155.559 13.9513H155.519V14.0716C155.519 14.0954 155.527 14.094 155.572 14.1001V14.118H155.397V14.118ZM155.519 13.9276H155.562C155.608 13.9276 155.63 13.8921 155.63 13.8352C155.63 13.7776 155.596 13.7573 155.559 13.7573H155.519V13.9276V13.9276Z" fill="#211E1F"/>
</g>
<path d="M164.115 21.864H165.187L169.971 6.296H168.915L164.115 21.864Z" fill="black" fill-opacity="0.5"/>
<g clip-path="url(#clip3_1066_1218)">
<path d="M185.081 6.80495C184.687 7.27783 184.057 7.65081 183.427 7.59753C183.349 6.95814 183.657 6.27878 184.018 5.85918C184.412 5.37298 185.101 5.02664 185.659 5C185.724 5.66603 185.468 6.31874 185.081 6.80495ZM185.652 7.72407C184.74 7.67079 183.959 8.25024 183.526 8.25024C183.086 8.25024 182.423 7.75071 181.701 7.76403C180.763 7.77735 179.89 8.31684 179.411 9.17602C178.427 10.8944 179.155 13.4386 180.107 14.8373C180.573 15.53 181.13 16.2892 181.865 16.2626C182.561 16.236 182.837 15.803 183.677 15.803C184.523 15.803 184.766 16.2626 185.501 16.2493C186.262 16.236 186.741 15.5566 187.207 14.8639C187.739 14.078 187.956 13.3121 187.969 13.2721C187.956 13.2588 186.499 12.6927 186.485 10.9876C186.472 9.56232 187.634 8.88297 187.686 8.84301C187.03 7.85728 186.006 7.75071 185.652 7.72407ZM190.922 5.79258V16.176H192.51V12.6261H194.708C196.716 12.6261 198.127 11.2274 198.127 9.20266C198.127 7.17793 196.743 5.79258 194.761 5.79258H190.922V5.79258ZM192.51 7.15128H194.341C195.719 7.15128 196.506 7.89724 196.506 9.20932C196.506 10.5214 195.719 11.274 194.334 11.274H192.51V7.15128V7.15128ZM201.028 16.2559C202.025 16.2559 202.951 15.7431 203.371 14.9305H203.404V16.176H204.874V11.0076C204.874 9.50904 203.692 8.54329 201.875 8.54329C200.188 8.54329 198.941 9.52236 198.895 10.8677H200.326C200.444 10.2284 201.028 9.80875 201.829 9.80875C202.8 9.80875 203.345 10.2683 203.345 11.1142V11.687L201.363 11.8069C199.519 11.9201 198.521 12.686 198.521 14.0181C198.521 15.3635 199.551 16.2559 201.028 16.2559ZM201.455 15.0238C200.608 15.0238 200.07 14.6108 200.07 13.9781C200.07 13.3254 200.588 12.9458 201.579 12.8858L203.345 12.7726V13.3587C203.345 14.3311 202.531 15.0238 201.455 15.0238ZM206.836 19C208.385 19 209.113 18.4006 209.75 16.5823L212.539 8.6432H210.924L209.054 14.7774H209.021L207.151 8.6432H205.49L208.181 16.2027L208.037 16.6622C207.794 17.4415 207.4 17.7412 206.698 17.7412C206.573 17.7412 206.33 17.7279 206.232 17.7146V18.96C206.324 18.9867 206.718 19 206.836 19Z" fill="black"/>
</g>
<path d="M236.815 11.8251V15.9187H235.524V5.79468H238.88C239.698 5.79468 240.472 6.1028 241.075 6.67503C241.677 7.20324 241.978 7.99556 241.978 8.83189C241.978 9.66823 241.677 10.4165 241.075 10.9888C240.472 11.561 239.741 11.8691 238.88 11.8691L236.815 11.8251ZM236.815 7.02717V10.5486H238.966C239.44 10.5486 239.913 10.3725 240.214 10.0204C240.903 9.36011 240.903 8.25966 240.257 7.5994L240.214 7.55538C239.87 7.20324 239.44 6.98315 238.966 7.02717H236.815Z" fill="#5F6368"/>
<path d="M244.948 8.78784C245.894 8.78784 246.626 9.05195 247.185 9.58016C247.745 10.1084 248.003 10.8127 248.003 11.693V15.9187H246.798V14.9503H246.755C246.238 15.7426 245.507 16.1388 244.646 16.1388C243.915 16.1388 243.269 15.9187 242.753 15.4785C242.28 15.0383 241.978 14.4221 241.978 13.7618C241.978 13.0576 242.237 12.4853 242.753 12.0451C243.269 11.605 244.001 11.4289 244.862 11.4289C245.636 11.4289 246.238 11.561 246.712 11.8691V11.561C246.712 11.1208 246.54 10.6806 246.195 10.4165C245.851 10.1084 245.421 9.9323 244.948 9.9323C244.216 9.9323 243.657 10.2404 243.269 10.8567L242.151 10.1524C242.839 9.22802 243.743 8.78784 244.948 8.78784ZM243.312 13.8059C243.312 14.158 243.485 14.4661 243.743 14.6422C244.044 14.8623 244.388 14.9943 244.732 14.9943C245.249 14.9943 245.765 14.7742 246.152 14.3781C246.583 13.9819 246.798 13.4977 246.798 12.9695C246.411 12.6614 245.851 12.4853 245.12 12.4853C244.603 12.4853 244.173 12.6174 243.829 12.8815C243.485 13.1016 243.312 13.4097 243.312 13.8059Z" fill="#5F6368"/>
<path d="M254.973 9.00806L250.713 19.0001H249.423L251.015 15.5227L248.218 9.05207H249.595L251.617 14.0261H251.66L253.64 9.05207H254.973V9.00806Z" fill="#5F6368"/>
<path d="M231.694 10.9448C231.694 10.5487 231.651 10.1525 231.608 9.75635H226.229V12.0012H229.285C229.155 12.7055 228.768 13.3658 228.166 13.762V15.2145H230.016C231.092 14.2021 231.694 12.7055 231.694 10.9448Z" fill="#4285F4"/>
<path d="M226.229 16.623C227.779 16.623 229.069 16.0948 230.016 15.2144L228.166 13.7618C227.649 14.114 227.004 14.3341 226.229 14.3341C224.766 14.3341 223.476 13.3216 223.045 11.9131H221.152V13.4097C222.142 15.3905 224.078 16.623 226.229 16.623Z" fill="#34A853"/>
<path d="M223.045 11.9131C222.787 11.2088 222.787 10.4165 223.045 9.66823V8.17163H221.152C220.334 9.80028 220.334 11.7371 221.152 13.4097L223.045 11.9131Z" fill="#FBBC04"/>
<path d="M226.229 7.29128C227.047 7.29128 227.821 7.59941 228.424 8.17164L230.059 6.49897C229.026 5.53058 227.649 4.95835 226.272 5.00237C224.121 5.00237 222.141 6.23486 221.195 8.21565L223.088 9.71225C223.475 8.30369 224.766 7.29128 226.229 7.29128Z" fill="#EA4335"/>
<defs>
<linearGradient id="paint0_linear_1066_1218" x1="81.6036" y1="12.779" x2="86.5967" y2="12.779" gradientUnits="userSpaceOnUse">
<stop stop-color="#007940"/>
<stop offset="0.2285" stop-color="#00873F"/>
<stop offset="0.7433" stop-color="#40A737"/>
<stop offset="1" stop-color="#5CB531"/>
</linearGradient>
<linearGradient id="paint1_linear_1066_1218" x1="81.6036" y1="12.0006" x2="86.597" y2="12.0006" gradientUnits="userSpaceOnUse">
<stop stop-color="#007940"/>
<stop offset="0.2285" stop-color="#00873F"/>
<stop offset="0.7433" stop-color="#40A737"/>
<stop offset="1" stop-color="#5CB531"/>
</linearGradient>
<linearGradient id="paint2_linear_1066_1218" x1="81.6035" y1="11.154" x2="86.5967" y2="11.154" gradientUnits="userSpaceOnUse">
<stop stop-color="#007940"/>
<stop offset="0.2285" stop-color="#00873F"/>
<stop offset="0.7433" stop-color="#40A737"/>
<stop offset="1" stop-color="#5CB531"/>
</linearGradient>
<linearGradient id="paint3_linear_1066_1218" x1="70.4251" y1="12.0006" x2="75.4954" y2="12.0006" gradientUnits="userSpaceOnUse">
<stop stop-color="#1F286F"/>
<stop offset="0.4751" stop-color="#004E94"/>
<stop offset="0.8261" stop-color="#0066B1"/>
<stop offset="1" stop-color="#006FBC"/>
</linearGradient>
<linearGradient id="paint4_linear_1066_1218" x1="75.9876" y1="12.0006" x2="80.9121" y2="12.0006" gradientUnits="userSpaceOnUse">
<stop stop-color="#6C2C2F"/>
<stop offset="0.1735" stop-color="#882730"/>
<stop offset="0.5731" stop-color="#BE1833"/>
<stop offset="0.8585" stop-color="#DC0436"/>
<stop offset="1" stop-color="#E60039"/>
</linearGradient>
<clipPath id="clip0_1066_1218">
<rect width="38.7692" height="12" fill="white" transform="translate(0 6)"/>
</clipPath>
<clipPath id="clip1_1066_1218">
<rect width="14.0348" height="14" fill="white" transform="translate(91.5943 5)"/>
</clipPath>
<clipPath id="clip2_1066_1218">
<rect width="46.3095" height="12" fill="white" transform="translate(109.629 6)"/>
</clipPath>
<clipPath id="clip3_1066_1218">
<rect width="33.6" height="14" fill="white" transform="translate(178.939 5)"/>
</clipPath>
</defs>
</svg>
