<svg width="156" height="15" viewBox="0 0 156 15" fill="none" xmlns="http://www.w3.org/2000/svg">
<g clip-path="url(#clip0_1066_1504)">
<path d="M25.2461 1.51848C22.4961 1.51848 20.0385 2.87731 20.0385 5.38786C20.0385 8.26698 24.3971 8.46584 24.3971 9.91223C24.3971 10.5212 23.665 11.0664 22.4146 11.0664C20.64 11.0664 19.3136 10.3046 19.3136 10.3046L18.7461 12.8381C18.7461 12.8381 20.274 13.4815 22.3026 13.4815C25.3092 13.4815 27.6751 12.056 27.6751 9.5025C27.6751 6.46018 23.2984 6.26723 23.2984 4.92474C23.2984 4.44767 23.8994 3.92494 25.1462 3.92494C26.553 3.92494 27.7008 4.47894 27.7008 4.47894L28.2562 2.03209C28.2562 2.03209 27.0073 1.51848 25.2461 1.51848ZM0.08612 1.70315L0.0195312 2.07248C0.0195312 2.07248 1.17647 2.27434 2.21847 2.67698C3.56015 3.1387 3.65572 3.40749 3.88168 4.24234L6.34395 13.2911H9.64464L14.7296 1.70315H11.4365L8.16909 9.58185L6.8358 2.90349C6.71353 2.13916 6.09417 1.70315 5.33604 1.70315H0.08612ZM16.0538 1.70315L13.4705 13.2911H16.6107L19.185 1.70315H16.0538ZM33.5682 1.70315C32.8109 1.70315 32.4097 2.08963 32.1153 2.76499L27.5146 13.2911H30.8078L31.4449 11.5367H35.4569L35.8443 13.2911H38.75L36.2151 1.70315H33.5682ZM33.9965 4.83385L34.9726 9.18221H32.3575L33.9965 4.83385Z" fill="#1434CB"/>
</g>
<path d="M57.4632 1.99678H50.7251V13.0021H57.4632V1.99678Z" fill="#FF5F00"/>
<path d="M51.4191 7.5006C51.4183 6.44088 51.6585 5.39486 52.1216 4.44169C52.5847 3.48853 53.2586 2.65319 54.0922 1.9989C53.0597 1.18749 51.8198 0.682928 50.5141 0.54287C49.2085 0.402812 47.8897 0.632915 46.7087 1.20688C45.5276 1.78084 44.5318 2.67551 43.8351 3.78863C43.1385 4.90175 42.769 6.18842 42.769 7.50157C42.769 8.81472 43.1385 10.1014 43.8351 11.2145C44.5318 12.3276 45.5276 13.2223 46.7087 13.7963C47.8897 14.3702 49.2085 14.6003 50.5141 14.4603C51.8198 14.3202 53.0597 13.8156 54.0922 13.0042C53.2583 12.3497 52.5843 11.5141 52.1212 10.5606C51.658 9.60705 51.418 8.56064 51.4191 7.5006Z" fill="#EB001B"/>
<path d="M65.4164 7.50041C65.4164 8.81366 65.0469 10.1004 64.3501 11.2136C63.6533 12.3267 62.6574 13.2214 61.4762 13.7953C60.2949 14.3691 58.9761 14.5991 57.6703 14.4588C56.3646 14.3186 55.1247 13.8138 54.0923 13.0021C54.9256 12.3472 55.5992 11.5117 56.0625 10.5584C56.5257 9.60523 56.7664 8.55925 56.7664 7.49943C56.7664 6.43962 56.5257 5.39364 56.0625 4.44042C55.5992 3.4872 54.9256 2.65164 54.0923 1.99677C55.1247 1.18511 56.3646 0.680293 57.6703 0.540034C58.9761 0.399775 60.2949 0.62973 61.4762 1.20361C62.6574 1.77749 63.6533 2.67215 64.3501 3.7853C65.0469 4.89846 65.4164 6.18521 65.4164 7.49846V7.50041Z" fill="#F79E1B"/>
<path d="M87.5943 11.6778C87.5943 13.2333 86.3276 14.5 84.7721 14.5H69.4165V3.32222C69.4165 1.76667 70.6832 0.5 72.2387 0.5H87.5943V11.6778Z" fill="white"/>
<path d="M82.5947 8.81116H83.7614C83.7947 8.81116 83.8725 8.80005 83.9058 8.80005C84.1281 8.7556 84.3169 8.5556 84.3169 8.27782C84.3169 8.01116 84.1281 7.81116 83.9058 7.7556C83.8725 7.74449 83.8058 7.74449 83.7614 7.74449H82.5947V8.81116Z" fill="url(#paint0_linear_1066_1504)"/>
<path d="M83.6281 1.44444C82.5169 1.44444 81.6058 2.34444 81.6058 3.46667V5.56666H84.4614C84.5281 5.56666 84.6058 5.56667 84.6614 5.57778C85.3058 5.61111 85.7836 5.94444 85.7836 6.52222C85.7836 6.97778 85.4614 7.36666 84.8614 7.44444V7.46667C85.5169 7.51111 86.0169 7.87778 86.0169 8.44444C86.0169 9.05555 85.4614 9.45555 84.7281 9.45555H81.5947V13.5667H84.5614C85.6725 13.5667 86.5836 12.6667 86.5836 11.5444V1.44444H83.6281Z" fill="url(#paint1_linear_1066_1504)"/>
<path d="M84.1725 6.65558C84.1725 6.38891 83.9836 6.21113 83.7614 6.1778C83.7392 6.1778 83.6836 6.16669 83.6503 6.16669H82.5947V7.14446H83.6503C83.6836 7.14446 83.7503 7.14446 83.7614 7.13335C83.9836 7.10002 84.1725 6.92224 84.1725 6.65558Z" fill="url(#paint2_linear_1066_1504)"/>
<path d="M72.4498 1.44444C71.3387 1.44444 70.4276 2.34444 70.4276 3.46667V8.45555C70.9943 8.73333 71.5832 8.91111 72.1721 8.91111C72.8721 8.91111 73.2498 8.48889 73.2498 7.91111V5.55555H74.9832V7.9C74.9832 8.81111 74.4165 9.55555 72.4943 9.55555C71.3276 9.55555 70.4165 9.3 70.4165 9.3V13.5556H73.3832C74.4943 13.5556 75.4054 12.6556 75.4054 11.5333V1.44444H72.4498Z" fill="url(#paint3_linear_1066_1504)"/>
<path d="M78.0388 1.44444C76.9277 1.44444 76.0166 2.34444 76.0166 3.46667V6.11111C76.5277 5.67778 77.4166 5.4 78.8499 5.46667C79.6166 5.5 80.4388 5.71111 80.4388 5.71111V6.56666C80.0277 6.35555 79.5388 6.16666 78.9055 6.12222C77.8166 6.04444 77.161 6.57778 77.161 7.51111C77.161 8.45555 77.8166 8.98889 78.9055 8.9C79.5388 8.85555 80.0277 8.65555 80.4388 8.45555V9.31111C80.4388 9.31111 79.6277 9.52222 78.8499 9.55555C77.4166 9.62222 76.5277 9.34444 76.0166 8.91111V13.5778H78.9833C80.0944 13.5778 81.0055 12.6778 81.0055 11.5556V1.44444H78.0388Z" fill="url(#paint4_linear_1066_1504)"/>
<g clip-path="url(#clip1_1066_1504)">
<path d="M91.5942 0.500183H105.594V8.0578L104.901 9.14055L105.594 10.1042V14.5002H91.5942V7.37566L92.0273 6.8776L91.5942 6.40119V0.500183Z" fill="#016FD0"/>
<path d="M94.312 10.2556V8.05762H96.6393L96.889 8.38312L97.1469 8.05762H105.594V10.104C105.594 10.104 105.373 10.2534 105.118 10.2556H100.44L100.159 9.90913V10.2556H99.2364V9.66415C99.2364 9.66415 99.1104 9.74671 98.8379 9.74671H98.5239V10.2556H97.1272L96.8778 9.92312L96.6247 10.2556H94.312Z" fill="white"/>
<path d="M91.5942 6.401L92.119 5.17749H93.0266L93.3245 5.86285V5.17749H94.4527L94.63 5.67285L94.8019 5.17749H99.8665V5.42652C99.8665 5.42652 100.133 5.17749 100.57 5.17749L102.214 5.18323L102.506 5.85962V5.17749H103.45L103.71 5.56602V5.17749H104.663V7.37548H103.71L103.461 6.98569V7.37548H102.074L101.935 7.029H101.562L101.424 7.37548H100.484C100.107 7.37548 99.8665 7.13153 99.8665 7.13153V7.37548H98.4481L98.1665 7.029V7.37548H92.8922L92.7528 7.029H92.3811L92.2426 7.37548H91.5942V6.401Z" fill="white"/>
<path d="M92.305 5.44846L91.5972 7.09424H92.058L92.1886 6.76468H92.9479L93.0778 7.09424H93.5488L92.8417 5.44846H92.305ZM92.5669 5.83148L92.7983 6.40737H92.3348L92.5669 5.83148Z" fill="#016FD0"/>
<path d="M93.5972 7.09397V5.44818L94.2521 5.45061L94.633 6.51171L95.0047 5.44818H95.6544V7.09397H95.243V5.88128L94.8068 7.09397H94.446L94.0086 5.88128V7.09397H93.5972Z" fill="#016FD0"/>
<path d="M95.936 7.09397V5.44818H97.2786V5.81632H96.3518V6.09783H97.257V6.44431H96.3518V6.73666H97.2786V7.09397H95.936Z" fill="#016FD0"/>
<path d="M97.5171 5.44846V7.09424H97.9285V6.50955H98.1018L98.5951 7.09424H99.0979L98.5565 6.4879C98.7787 6.46915 99.0079 6.27845 99.0079 5.98239C99.0079 5.63606 98.7361 5.44846 98.4327 5.44846H97.5171ZM97.9285 5.81659H98.3989C98.5117 5.81659 98.5938 5.90485 98.5938 5.98983C98.5938 6.09917 98.4874 6.16307 98.4049 6.16307H97.9285V5.81659Z" fill="#016FD0"/>
<path d="M99.5959 7.09397H99.1758V5.44818H99.5959V7.09397Z" fill="#016FD0"/>
<path d="M100.592 7.09397H100.501C100.062 7.09397 99.7959 6.7483 99.7959 6.27784C99.7959 5.79576 100.059 5.44818 100.613 5.44818H101.068V5.83797H100.597C100.372 5.83797 100.213 6.0135 100.213 6.2819C100.213 6.60063 100.395 6.73449 100.657 6.73449H100.765L100.592 7.09397Z" fill="#016FD0"/>
<path d="M101.487 5.44846L100.779 7.09424H101.24L101.371 6.76468H102.13L102.26 7.09424H102.731L102.024 5.44846H101.487ZM101.749 5.83148L101.98 6.40737H101.517L101.749 5.83148Z" fill="#016FD0"/>
<path d="M102.779 7.09397V5.44818H103.302L103.97 6.48221V5.44818H104.382V7.09397H103.876L103.191 6.03287V7.09397H102.779Z" fill="#016FD0"/>
<path d="M94.5933 9.97409V8.32831H95.9359V8.69645H95.009V8.97796H95.9142V9.32444H95.009V9.61678H95.9359V9.97409H94.5933Z" fill="#016FD0"/>
<path d="M101.172 9.97409V8.32831H102.515V8.69645H101.588V8.97796H102.489V9.32444H101.588V9.61678H102.515V9.97409H101.172Z" fill="#016FD0"/>
<path d="M95.9882 9.97409L96.6419 9.16135L95.9727 8.32831H96.491L96.8896 8.84329L97.2896 8.32831H97.7876L97.1271 9.1512L97.7821 9.97409H97.2638L96.8768 9.46723L96.4991 9.97409H95.9882Z" fill="#016FD0"/>
<path d="M97.8311 8.32858V9.97437H98.2533V9.45465H98.6864C99.0529 9.45465 99.3307 9.26023 99.3307 8.88214C99.3307 8.56893 99.1128 8.32858 98.7399 8.32858H97.8311ZM98.2533 8.70078H98.7094C98.8278 8.70078 98.9125 8.77334 98.9125 8.89026C98.9125 9.0001 98.8283 9.07974 98.7081 9.07974H98.2533V8.70078Z" fill="#016FD0"/>
<path d="M99.5093 8.32831V9.97409H99.9207V9.38941H100.094L100.587 9.97409H101.09L100.549 9.36775C100.771 9.349 101 9.15831 101 8.86224C101 8.51591 100.728 8.32831 100.425 8.32831H99.5093ZM99.9207 8.69645H100.391C100.504 8.69645 100.586 8.7847 100.586 8.86968C100.586 8.97902 100.48 9.04293 100.397 9.04293H99.9207V8.69645Z" fill="#016FD0"/>
<path d="M102.706 9.97409V9.61678H103.529C103.651 9.61678 103.704 9.55094 103.704 9.47873C103.704 9.40955 103.651 9.3396 103.529 9.3396H103.157C102.833 9.3396 102.653 9.14254 102.653 8.84668C102.653 8.58279 102.818 8.32831 103.299 8.32831H104.1L103.927 8.69861H103.234C103.101 8.69861 103.061 8.76812 103.061 8.8345C103.061 8.90272 103.111 8.97796 103.212 8.97796H103.602C103.963 8.97796 104.119 9.18248 104.119 9.45031C104.119 9.73825 103.945 9.97409 103.582 9.97409H102.706Z" fill="#016FD0"/>
<path d="M104.215 9.97409V9.61678H105.039C105.161 9.61678 105.213 9.55094 105.213 9.47873C105.213 9.40955 105.161 9.3396 105.039 9.3396H104.667C104.343 9.3396 104.163 9.14254 104.163 8.84668C104.163 8.58279 104.328 8.32831 104.809 8.32831H105.61L105.437 8.69861H104.744C104.611 8.69861 104.57 8.76812 104.57 8.8345C104.57 8.90272 104.621 8.97796 104.722 8.97796H105.112C105.472 8.97796 105.629 9.18248 105.629 9.45031C105.629 9.73825 105.455 9.97409 105.092 9.97409H104.215Z" fill="#016FD0"/>
</g>
<g clip-path="url(#clip2_1066_1504)">
<path d="M118.502 13.5C121.782 13.5157 124.776 10.8252 124.776 7.55214C124.776 3.97286 121.782 1.49881 118.502 1.5H115.68C112.361 1.49881 109.629 3.9736 109.629 7.55214C109.629 10.8259 112.361 13.5157 115.68 13.5H118.502Z" fill="#0079BE"/>
<path d="M115.693 1.99596C112.66 1.99691 110.203 4.45524 110.202 7.48931C110.203 10.5229 112.66 12.981 115.693 12.9819C118.727 12.981 121.185 10.5229 121.185 7.48931C121.185 4.45524 118.727 1.99691 115.693 1.99596ZM112.213 7.48931C112.215 6.00669 113.141 4.74241 114.447 4.24V10.7379C113.141 10.2357 112.215 8.97215 112.213 7.48931ZM116.939 10.7393V4.23979C118.245 4.74098 119.173 6.00598 119.175 7.48931C119.173 8.9731 118.245 10.2371 116.939 10.7393Z" fill="white"/>
<path d="M126.699 4.08169C126.699 3.51404 126.403 3.55142 126.12 3.54526V3.38121C126.366 3.39335 126.618 3.39335 126.864 3.39335C127.129 3.39335 127.489 3.38121 127.956 3.38121C129.59 3.38121 130.48 4.47264 130.48 5.59023C130.48 6.21523 130.114 7.78642 127.88 7.78642C127.558 7.78642 127.262 7.77402 126.965 7.77402C126.681 7.77402 126.403 7.78023 126.12 7.78642V7.62261C126.498 7.5845 126.681 7.5719 126.699 7.14262V4.08169H126.699ZM127.318 7.0419C127.318 7.52785 127.665 7.58452 127.974 7.58452C129.338 7.58452 129.785 6.55571 129.785 5.61523C129.785 4.43547 129.028 3.58357 127.81 3.58357C127.551 3.58357 127.432 3.60214 127.318 3.60883L127.318 7.0419Z" fill="#211E1F"/>
<path d="M130.701 7.62265H130.82C130.997 7.62265 131.123 7.62265 131.123 7.41381V5.70384C131.123 5.42648 131.029 5.38788 130.795 5.26241V5.16122C131.091 5.07217 131.445 4.95312 131.47 4.93407C131.515 4.90884 131.552 4.90217 131.584 4.90217C131.615 4.90217 131.628 4.94027 131.628 4.99098V7.41381C131.628 7.62265 131.767 7.62265 131.944 7.62265H132.051V7.78669C131.836 7.78669 131.615 7.7741 131.388 7.7741C131.161 7.7741 130.934 7.78029 130.701 7.78669V7.62265H130.701ZM131.376 3.93048C131.211 3.93048 131.067 3.77907 131.067 3.615C131.067 3.45691 131.218 3.31143 131.376 3.31143C131.539 3.31143 131.685 3.44455 131.685 3.615C131.685 3.78548 131.546 3.93048 131.376 3.93048Z" fill="#211E1F"/>
<path d="M132.65 5.74145C132.65 5.50811 132.581 5.44526 132.285 5.32526V5.20552C132.556 5.11718 132.814 5.03504 133.117 4.90218C133.136 4.90218 133.155 4.91504 133.155 4.96528V5.37573C133.515 5.11718 133.824 4.90216 134.247 4.90216C134.783 4.90216 134.972 5.29357 134.972 5.78571V7.41383C134.972 7.62264 135.111 7.62264 135.288 7.62264H135.402V7.78668C135.18 7.78668 134.96 7.77409 134.733 7.77409C134.506 7.77409 134.278 7.78028 134.051 7.78668V7.62264H134.165C134.342 7.62264 134.467 7.62264 134.467 7.41383V5.77976C134.467 5.41952 134.247 5.24309 133.887 5.24309C133.686 5.24309 133.364 5.40716 133.155 5.54618V7.41378C133.155 7.62261 133.294 7.62261 133.471 7.62261H133.584V7.78666C133.364 7.78666 133.142 7.77404 132.915 7.77404C132.688 7.77404 132.461 7.78026 132.234 7.78666V7.62261H132.348C132.524 7.62261 132.65 7.62261 132.65 7.41378V5.74145H132.65Z" fill="#211E1F"/>
<path d="M135.882 6.04476C135.868 6.10169 135.868 6.19619 135.882 6.41095C135.919 7.01024 136.305 7.50241 136.809 7.50241C137.156 7.50241 137.428 7.31312 137.661 7.07979L137.749 7.16836C137.459 7.55312 137.099 7.88119 136.582 7.88119C135.578 7.88119 135.376 6.90905 135.376 6.5055C135.376 5.26834 136.209 4.90215 136.651 4.90215C137.162 4.90215 137.711 5.22384 137.717 5.89286C137.717 5.93119 137.717 5.96857 137.711 6.00691L137.654 6.04476H135.882ZM136.999 5.84265C137.156 5.84265 137.175 5.7605 137.175 5.68503C137.175 5.3631 136.979 5.10429 136.626 5.10429C136.241 5.10429 135.976 5.38786 135.9 5.84265H136.999Z" fill="#211E1F"/>
<path d="M137.863 7.62265H138.033C138.209 7.62265 138.336 7.62265 138.336 7.41381V5.64072C138.336 5.44524 138.103 5.40715 138.008 5.35667V5.26238C138.468 5.06643 138.721 4.90215 138.778 4.90215C138.816 4.90215 138.834 4.92119 138.834 4.98453V5.55238H138.848C139.005 5.30643 139.27 4.90215 139.655 4.90215C139.813 4.90215 140.014 5.00929 140.014 5.23667C140.014 5.40715 139.895 5.55905 139.718 5.55905C139.522 5.55905 139.522 5.40715 139.301 5.40715C139.194 5.40715 138.841 5.55238 138.841 5.93119V7.41381C138.841 7.62262 138.967 7.62262 139.144 7.62262H139.497V7.78669C139.15 7.78024 138.886 7.77407 138.614 7.77407C138.355 7.77407 138.09 7.78026 137.863 7.78669V7.62265H137.863Z" fill="#211E1F"/>
<path d="M140.292 6.90904C140.374 7.32571 140.626 7.6793 141.087 7.6793C141.459 7.6793 141.598 7.45216 141.598 7.23121C141.598 6.48645 140.223 6.72621 140.223 5.71026C140.223 5.35668 140.507 4.90216 141.201 4.90216C141.402 4.90216 141.673 4.9593 141.919 5.08573L141.964 5.72885H141.819C141.756 5.33168 141.535 5.10433 141.131 5.10433C140.878 5.10433 140.639 5.24959 140.639 5.52076C140.639 6.2598 142.103 6.03195 142.103 7.02266C142.103 7.43909 141.768 7.88123 141.017 7.88123C140.765 7.88123 140.468 7.7929 140.248 7.66695L140.178 6.94102L140.292 6.90904Z" fill="#211E1F"/>
<path d="M147.801 4.52357H147.644C147.524 3.78548 147 3.48857 146.293 3.48857C145.567 3.48857 144.513 3.97427 144.513 5.48881C144.513 6.76453 145.423 7.67927 146.394 7.67927C147.019 7.67927 147.537 7.25022 147.663 6.58738L147.807 6.625L147.663 7.54641C147.398 7.71093 146.685 7.88119 146.268 7.88119C144.792 7.88119 143.858 6.92812 143.858 5.5081C143.858 4.21429 145.012 3.28619 146.249 3.28619C146.76 3.28619 147.252 3.45096 147.738 3.62143L147.801 4.52357Z" fill="#211E1F"/>
<path d="M148.028 7.62264H148.148C148.325 7.62264 148.451 7.62264 148.451 7.41381V3.89907C148.451 3.48859 148.357 3.47595 148.117 3.40667V3.30571C148.369 3.22383 148.634 3.11 148.767 3.03407C148.835 2.99645 148.886 2.96452 148.905 2.96452C148.944 2.96452 148.956 3.00264 148.956 3.05333V7.41381C148.956 7.62264 149.095 7.62264 149.272 7.62264H149.378V7.78669C149.165 7.78669 148.944 7.77407 148.716 7.77407C148.489 7.77407 148.262 7.78028 148.028 7.78669V7.62264H148.028Z" fill="#211E1F"/>
<path d="M152.08 7.43908C152.08 7.55312 152.149 7.55931 152.256 7.55931C152.332 7.55931 152.426 7.55312 152.509 7.55312V7.68598C152.237 7.71098 151.72 7.8436 151.6 7.88122L151.568 7.86215V7.35146C151.19 7.66048 150.899 7.88122 150.451 7.88122C150.11 7.88122 149.757 7.66048 149.757 7.13072V5.51453C149.757 5.35048 149.732 5.1926 149.379 5.1612V5.0412C149.606 5.03501 150.11 4.99712 150.192 4.99712C150.262 4.99712 150.263 5.0412 150.263 5.18001V6.80784C150.263 6.99762 150.262 7.54022 150.811 7.54022C151.026 7.54022 151.309 7.37617 151.574 7.15593V5.45736C151.574 5.33165 151.272 5.26236 151.045 5.19901V5.08543C151.612 5.04734 151.966 4.9971 152.029 4.9971C152.08 4.9971 152.08 5.04115 152.08 5.11091V7.43908H152.08Z" fill="#211E1F"/>
<path d="M153.336 5.35669C153.588 5.14214 153.929 4.90217 154.276 4.90217C155.008 4.90217 155.449 5.54026 155.449 6.22762C155.449 7.05431 154.844 7.88119 153.941 7.88119C153.474 7.88119 153.228 7.72952 153.064 7.66045L152.875 7.80521L152.743 7.73619C152.799 7.36381 152.831 6.99762 152.831 6.61286V3.89905C152.831 3.48859 152.736 3.47595 152.496 3.40667V3.30571C152.749 3.22383 153.013 3.11 153.146 3.03405C153.216 2.99643 153.266 2.96452 153.285 2.96452C153.323 2.96452 153.336 3.00264 153.336 3.05333V5.35667H153.336V5.35669ZM153.336 7.07312C153.336 7.31312 153.563 7.7174 153.985 7.7174C154.661 7.7174 154.944 7.05431 154.944 6.49243C154.944 5.811 154.428 5.24314 153.935 5.24314C153.701 5.24314 153.506 5.39481 153.336 5.54026V7.07312H153.336Z" fill="#211E1F"/>
<path d="M126.112 11.456H126.161C126.284 11.456 126.414 11.4393 126.414 11.2605V9.46143C126.414 9.28236 126.284 9.26548 126.161 9.26548H126.112V9.16238C126.246 9.16238 126.452 9.17596 126.621 9.17596C126.793 9.17596 126.998 9.16238 127.16 9.16238V9.26548H127.111C126.988 9.26548 126.858 9.28238 126.858 9.46143V11.2605C126.858 11.4393 126.988 11.456 127.111 11.456H127.16V11.5596C126.995 11.5596 126.788 11.546 126.617 11.546C126.449 11.546 126.246 11.5596 126.112 11.5596V11.456Z" fill="#211E1F"/>
<path d="M127.16 11.5741C126.994 11.5741 126.788 11.5603 126.617 11.5603C126.449 11.5603 126.247 11.5741 126.112 11.5741H126.098V11.5593V11.4562V11.4412H126.112H126.161C126.285 11.4384 126.398 11.4284 126.4 11.2605V9.46143C126.398 9.29357 126.285 9.28236 126.161 9.28H126.098V9.2655V9.14714H126.112C126.247 9.14714 126.453 9.16071 126.621 9.16071C126.792 9.16071 126.997 9.14714 127.16 9.14714H127.175V9.16285V9.28H127.16H127.112C126.987 9.28238 126.873 9.29357 126.872 9.46143V11.2605C126.873 11.4284 126.987 11.4384 127.112 11.4412H127.175V11.4562V11.5741H127.16ZM127.145 11.5448V11.4714H127.112C126.989 11.4714 126.843 11.4502 126.842 11.2605V9.46143C126.843 9.27166 126.989 9.25024 127.112 9.25024H127.145V9.17738C126.986 9.17738 126.788 9.19071 126.621 9.19071C126.458 9.19071 126.26 9.17833 126.128 9.17738V9.25024H126.16C126.283 9.25024 126.429 9.27166 126.429 9.46143V11.2605C126.429 11.4503 126.283 11.4714 126.16 11.4714H126.128V11.5448C126.26 11.5433 126.455 11.531 126.617 11.531C126.784 11.531 126.983 11.5438 127.145 11.5448Z" fill="#211E1F"/>
<path d="M129.519 10.8826L129.526 10.8759V9.58833C129.526 9.30642 129.33 9.26547 129.227 9.26547H129.151V9.16235C129.313 9.16235 129.471 9.17593 129.632 9.17593C129.772 9.17593 129.914 9.16235 130.054 9.16235V9.26547H130.003C129.858 9.26547 129.697 9.29283 129.697 9.70142V11.2643C129.697 11.3843 129.7 11.5043 129.717 11.6107H129.587L127.819 9.63954V11.0545C127.819 11.3534 127.877 11.456 128.141 11.456H128.2V11.5595C128.052 11.5595 127.905 11.546 127.757 11.546C127.603 11.546 127.445 11.5595 127.29 11.5595V11.456H127.338C127.575 11.456 127.647 11.295 127.647 11.0205V9.57407C127.647 9.38192 127.489 9.2655 127.335 9.2655H127.29V9.1624C127.421 9.1624 127.554 9.17595 127.685 9.17595C127.788 9.17595 127.887 9.1624 127.99 9.1624L129.519 10.8826Z" fill="#211E1F"/>
<path d="M129.717 11.6257L129.575 11.6205L127.833 9.67836V11.0545C127.837 11.3531 127.883 11.4379 128.141 11.4412H128.215V11.456V11.5741H128.199C128.051 11.5741 127.903 11.5603 127.757 11.5603C127.603 11.5603 127.445 11.5741 127.289 11.5741H127.274V11.5593V11.4412H127.289H127.338C127.565 11.44 127.629 11.2943 127.632 11.0205V9.57431C127.632 9.39145 127.482 9.2805 127.334 9.28002H127.274V9.26479V9.14764H127.289C127.421 9.14764 127.555 9.16074 127.684 9.16074C127.786 9.16074 127.886 9.14764 128.001 9.15264L129.51 10.8515V9.58862C129.508 9.31529 129.326 9.28243 129.226 9.28002H129.135V9.26479V9.14764H129.151C129.313 9.14764 129.471 9.16074 129.631 9.16074C129.771 9.16074 129.912 9.14764 130.054 9.14764H130.069V9.16241V9.28H130.054H130.003C129.861 9.28407 129.715 9.29643 129.711 9.70143V11.264C129.711 11.384 129.715 11.504 129.732 11.6081L129.735 11.6257H129.717V11.6257ZM129.587 11.5955H129.7C129.685 11.4924 129.682 11.3781 129.682 11.264V9.70143C129.682 9.28929 129.855 9.25026 130.003 9.25026H130.039V9.17738C129.904 9.17834 129.768 9.19072 129.631 9.19072C129.474 9.19072 129.321 9.17834 129.166 9.17738L129.166 9.25026H129.226C129.332 9.25026 129.54 9.29738 129.54 9.5886L129.535 10.8862L129.529 10.8934L129.517 10.9041L127.99 9.17738C127.888 9.17738 127.789 9.19072 127.684 9.19072C127.558 9.19072 127.429 9.17834 127.305 9.17738L127.304 9.25024H127.335C127.496 9.25024 127.661 9.37333 127.661 9.57429V11.0205C127.661 11.295 127.585 11.4707 127.338 11.4716L127.305 11.4707V11.5447C127.454 11.5433 127.606 11.5309 127.757 11.5309C127.9 11.5309 128.043 11.5433 128.184 11.5447V11.4716H128.141C127.871 11.4707 127.804 11.3531 127.804 11.0545V9.60093L129.587 11.5955ZM129.518 10.8824L129.529 10.8724L129.518 10.8824ZM129.51 10.8757V10.8745L129.508 10.8721L129.51 10.8757Z" fill="#211E1F"/>
<path d="M130.568 9.33381C130.31 9.33381 130.301 9.39574 130.249 9.64619H130.146C130.16 9.55024 130.177 9.45429 130.187 9.35429C130.201 9.2581 130.208 9.16236 130.208 9.06286H130.29C130.318 9.16595 130.404 9.16238 130.497 9.16238H132.268C132.361 9.16238 132.446 9.15905 132.454 9.05574L132.535 9.06955C132.522 9.16238 132.508 9.25503 132.498 9.34786C132.492 9.4405 132.492 9.53334 132.492 9.62572L132.388 9.66405C132.381 9.53715 132.364 9.33381 132.134 9.33381H131.571V11.161C131.571 11.4257 131.691 11.456 131.856 11.456H131.921V11.5595C131.787 11.5595 131.547 11.546 131.362 11.546C131.156 11.546 130.915 11.5595 130.781 11.5595V11.456H130.846C131.036 11.456 131.131 11.439 131.131 11.1681V9.33381H130.568Z" fill="#211E1F"/>
<path d="M131.922 11.5741C131.787 11.5741 131.546 11.5603 131.362 11.5603C131.156 11.5603 130.916 11.5741 130.781 11.5741H130.767V11.5596V11.4412H130.781H130.847C131.036 11.4367 131.112 11.4343 131.116 11.1681V9.34884H130.568V9.33381V9.31858H131.146V11.1681C131.146 11.4436 131.035 11.4714 130.847 11.4717H130.796V11.5441C130.932 11.5434 131.163 11.531 131.362 11.531C131.541 11.531 131.77 11.5434 131.906 11.5441V11.4717H131.856C131.69 11.4714 131.556 11.4307 131.556 11.161V9.31858H132.134C132.365 9.31953 132.395 9.51548 132.403 9.64286L132.477 9.61548C132.477 9.52596 132.477 9.4362 132.483 9.34572C132.493 9.25739 132.506 9.16977 132.519 9.08215L132.466 9.07334C132.45 9.17334 132.354 9.17834 132.267 9.17739H130.497H130.479C130.398 9.17739 130.31 9.17358 130.279 9.07765H130.222C130.222 9.17265 130.215 9.26479 130.202 9.3562C130.192 9.4505 130.177 9.54122 130.164 9.63193H130.237C130.282 9.39262 130.312 9.31501 130.568 9.3186V9.33384V9.34884C130.314 9.35336 130.32 9.39622 130.264 9.65003L130.261 9.6617H130.249H130.129L130.131 9.64384C130.145 9.54765 130.162 9.45191 130.172 9.35191C130.187 9.25667 130.193 9.16143 130.193 9.06286V9.04786H130.208H130.302L130.304 9.05858C130.328 9.14524 130.392 9.14572 130.479 9.14715H130.497H132.267C132.363 9.14572 132.433 9.14429 132.439 9.05451L132.44 9.03831L132.456 9.04165L132.552 9.05691L132.55 9.07191C132.537 9.16381 132.523 9.25667 132.513 9.34881C132.506 9.44024 132.506 9.5331 132.506 9.62572V9.63643L132.497 9.64024L132.375 9.6845L132.374 9.6645C132.365 9.53546 132.351 9.34879 132.134 9.34879H131.586V11.1609C131.589 11.42 131.692 11.4378 131.856 11.4412H131.936V11.4559V11.574L131.922 11.5741Z" fill="#211E1F"/>
<path d="M132.646 11.456H132.694C132.817 11.456 132.948 11.4393 132.948 11.2605V9.46143C132.948 9.28236 132.817 9.26548 132.694 9.26548H132.646V9.16238C132.855 9.16238 133.212 9.17596 133.5 9.17596C133.789 9.17596 134.146 9.16238 134.379 9.16238C134.373 9.30976 134.376 9.53691 134.386 9.68765L134.283 9.71524C134.266 9.49217 134.225 9.31384 133.865 9.31384H133.388V10.2131H133.796C134.002 10.2131 134.047 10.0967 134.067 9.91077H134.17C134.163 10.0453 134.16 10.1791 134.16 10.3129C134.16 10.4436 134.163 10.5739 134.17 10.7043L134.067 10.7248C134.047 10.5189 134.036 10.385 133.799 10.385H133.388V11.1848C133.388 11.4084 133.586 11.4084 133.806 11.4084C134.218 11.4084 134.4 11.3805 134.503 10.9896L134.599 11.0131C134.554 11.1955 134.513 11.3772 134.483 11.5596C134.263 11.5596 133.868 11.546 133.559 11.546C133.25 11.546 132.841 11.5596 132.646 11.5596V11.456Z" fill="#211E1F"/>
<path d="M134.482 11.5741C134.262 11.5741 133.867 11.56 133.559 11.56C133.249 11.56 132.841 11.5741 132.645 11.5741H132.631V11.5595V11.456V11.4412H132.645H132.693C132.818 11.4393 132.931 11.4284 132.933 11.2605V9.46143C132.931 9.29381 132.818 9.28262 132.693 9.28H132.631V9.2655V9.14764H132.645C132.855 9.14764 133.212 9.16074 133.5 9.16074C133.789 9.16074 134.145 9.14764 134.379 9.14764H134.394L134.393 9.16288C134.391 9.21455 134.39 9.27548 134.39 9.34026C134.39 9.45905 134.393 9.58881 134.4 9.68669L134.401 9.69907L134.389 9.70243L134.269 9.73386L134.268 9.71624C134.248 9.49338 134.218 9.33172 133.864 9.32838H133.402L133.401 10.1977H133.796C133.993 10.1958 134.029 10.0946 134.052 9.90957L134.053 9.896H134.067H134.185L134.185 9.91145C134.178 10.0453 134.174 10.1791 134.174 10.3129C134.174 10.4429 134.178 10.5731 134.185 10.7038L134.185 10.716L134.173 10.7188L134.053 10.7426L134.052 10.7265C134.029 10.5169 134.027 10.4022 133.799 10.3996L133.402 10.3993V11.1848C133.402 11.3934 133.582 11.3922 133.806 11.3934C134.219 11.391 134.385 11.371 134.489 10.9853L134.492 10.9715L134.506 10.9741L134.616 11.0024L134.613 11.0167C134.569 11.1986 134.528 11.38 134.497 11.5619L134.494 11.5741H134.482ZM134.47 11.5441C134.499 11.371 134.539 11.1972 134.581 11.0243L134.513 11.0071C134.41 11.3915 134.211 11.4257 133.806 11.4231C133.59 11.4231 133.373 11.4231 133.372 11.1848V10.37H133.799C134.038 10.3674 134.063 10.5121 134.08 10.7076L134.154 10.6922C134.148 10.5657 134.144 10.4388 134.144 10.3129C134.144 10.1836 134.148 10.055 134.154 9.92572H134.08C134.061 10.1045 134.005 10.2302 133.796 10.2279H133.372V9.29833H133.864C134.222 9.29593 134.281 9.48024 134.296 9.69619L134.37 9.67619C134.364 9.57929 134.36 9.455 134.36 9.34024C134.36 9.28143 134.362 9.22595 134.363 9.17738C134.13 9.17834 133.783 9.19072 133.5 9.19072C133.218 9.19072 132.87 9.17834 132.66 9.17738V9.25024H132.693C132.816 9.25024 132.962 9.27167 132.963 9.46143V11.2605C132.962 11.4498 132.816 11.4707 132.693 11.4717H132.66V11.5441C132.86 11.5438 133.257 11.531 133.559 11.531C133.862 11.531 134.248 11.5438 134.47 11.5441Z" fill="#211E1F"/>
<path d="M135.062 9.52619C135.062 9.27571 134.925 9.26547 134.818 9.26547H134.756V9.16214C134.866 9.16214 135.079 9.17595 135.288 9.17595C135.494 9.17595 135.659 9.16214 135.841 9.16214C136.273 9.16214 136.659 9.27904 136.659 9.76714C136.659 10.0755 136.453 10.2645 136.181 10.3714L136.768 11.25C136.864 11.3952 136.933 11.4359 137.101 11.4559V11.5595C136.988 11.5595 136.878 11.5459 136.765 11.5459C136.658 11.5459 136.548 11.5595 136.442 11.5595C136.178 11.2126 135.951 10.8417 135.728 10.4464H135.502V11.1817C135.502 11.4464 135.625 11.4559 135.783 11.4559H135.845V11.5595C135.648 11.5595 135.45 11.546 135.254 11.546C135.089 11.546 134.928 11.5595 134.756 11.5595V11.4559H134.818C134.946 11.4559 135.062 11.3983 135.062 11.2709V9.52619ZM135.502 10.3229H135.669C136.013 10.3229 136.198 10.1924 136.198 9.78714C136.198 9.4819 136.003 9.28595 135.697 9.28595C135.593 9.28595 135.55 9.29666 135.502 9.29976V10.3229H135.502Z" fill="#211E1F"/>
<path d="M137.102 11.5741C136.987 11.5741 136.877 11.5603 136.765 11.5603C136.66 11.5603 136.55 11.5741 136.431 11.5684C136.167 11.2229 135.942 10.8541 135.72 10.4617H135.517V11.1812C135.52 11.4396 135.624 11.4374 135.783 11.4412H135.86V11.456V11.5741H135.845C135.648 11.5741 135.449 11.5603 135.254 11.5603C135.09 11.5603 134.929 11.5741 134.757 11.5741H134.742V11.5593V11.4412H134.757H134.818C134.942 11.4405 135.046 11.3867 135.047 11.271V9.52626C135.044 9.28245 134.925 9.28386 134.818 9.28031H134.742V9.26555V9.14722H134.757C134.868 9.14722 135.08 9.16076 135.289 9.16076C135.494 9.16076 135.659 9.14722 135.842 9.14722C136.274 9.14817 136.673 9.26769 136.674 9.76626C136.674 10.0765 136.469 10.27 136.204 10.3782L136.781 11.242C136.877 11.3843 136.937 11.4198 137.104 11.4412L137.116 11.4431V11.456V11.5741H137.102V11.5741ZM135.502 10.4317H135.737L135.741 10.4393C135.964 10.8338 136.19 11.2043 136.443 11.5448C136.547 11.5448 136.658 11.5307 136.765 11.5307C136.874 11.5307 136.98 11.5426 137.087 11.5443V11.4691C136.926 11.4491 136.85 11.401 136.757 11.2583L136.159 10.3643L136.176 10.3574C136.445 10.2517 136.643 10.0681 136.644 9.76617C136.643 9.28974 136.273 9.17929 135.842 9.17738C135.661 9.17738 135.496 9.19095 135.289 9.19095C135.087 9.19095 134.884 9.17834 134.771 9.17738V9.25024H134.818C134.925 9.2505 135.077 9.2681 135.077 9.52622V11.271C135.077 11.4088 134.948 11.4717 134.818 11.4719H134.771V11.5443C134.937 11.5438 135.093 11.5307 135.254 11.5307C135.446 11.5307 135.64 11.5438 135.83 11.5443V11.4719H135.783C135.626 11.4716 135.487 11.4521 135.487 11.1812V10.4317H135.502H135.502ZM135.502 10.3374H135.487V9.28595L135.5 9.28476C135.547 9.28122 135.593 9.27143 135.697 9.27143C136.01 9.27143 136.213 9.47476 136.214 9.78784C136.213 10.1978 136.016 10.3371 135.67 10.3374H135.502V10.3374ZM135.67 10.3079C136.01 10.305 136.181 10.1869 136.184 9.78786C136.182 9.48786 135.996 9.30167 135.697 9.30048C135.604 9.30048 135.561 9.30905 135.517 9.31288V10.3079H135.67Z" fill="#211E1F"/>
<path d="M139.433 10.8826L139.439 10.8759V9.58833C139.439 9.30642 139.244 9.26547 139.141 9.26547H139.066V9.16235C139.227 9.16235 139.384 9.17593 139.546 9.17593C139.687 9.17593 139.827 9.16235 139.969 9.16235V9.26547H139.917C139.773 9.26547 139.611 9.29283 139.611 9.70142V11.2643C139.611 11.3843 139.615 11.5043 139.632 11.6107H139.502L137.733 9.63954V11.0545C137.733 11.3534 137.792 11.456 138.056 11.456H138.114V11.5595C137.967 11.5595 137.819 11.546 137.672 11.546C137.517 11.546 137.359 11.5595 137.205 11.5595V11.456H137.252C137.489 11.456 137.561 11.295 137.561 11.0205V9.57407C137.561 9.38192 137.404 9.2655 137.249 9.2655H137.205V9.1624C137.335 9.1624 137.469 9.17595 137.599 9.17595C137.702 9.17595 137.802 9.1624 137.905 9.1624L139.433 10.8826Z" fill="#211E1F"/>
<path d="M139.632 11.6255L139.49 11.6207L137.748 9.67836V11.0543C137.752 11.3531 137.797 11.4379 138.056 11.4412H138.129V11.456V11.5741H138.114C137.965 11.5741 137.818 11.56 137.671 11.56C137.518 11.56 137.359 11.5741 137.204 11.5741H137.189V11.5596V11.4412H137.204H137.252C137.479 11.4403 137.544 11.2943 137.546 11.0196V9.57408C137.546 9.39119 137.396 9.28027 137.249 9.28H137.189V9.2655V9.14717H137.204C137.335 9.14717 137.47 9.16072 137.599 9.16072C137.7 9.16072 137.8 9.14717 137.915 9.15191L139.424 10.8515V9.5881C139.423 9.31524 139.24 9.28143 139.141 9.28003H139.05V9.2655V9.14717H139.065C139.227 9.14717 139.385 9.16072 139.546 9.16072C139.686 9.16072 139.827 9.14717 139.968 9.14717H139.983V9.16265V9.28003H139.968H139.917C139.775 9.28384 139.629 9.29643 139.626 9.70146V11.2641C139.626 11.3841 139.629 11.5031 139.646 11.6088L139.648 11.6255H139.632ZM139.501 11.5955H139.614C139.599 11.4924 139.596 11.3781 139.596 11.2641V9.70143C139.596 9.28927 139.77 9.25119 139.917 9.25H139.953V9.17739C139.818 9.17834 139.682 9.19072 139.546 9.19072C139.388 9.19072 139.235 9.17834 139.08 9.17739V9.25H139.141C139.246 9.25119 139.454 9.29739 139.454 9.5881L139.45 10.8862L139.443 10.8933L139.433 10.9043L137.904 9.17741C137.803 9.17741 137.703 9.19074 137.599 9.19074C137.472 9.19074 137.344 9.17836 137.219 9.17741V9.25003H137.249C137.41 9.25122 137.576 9.37289 137.576 9.57408V11.0195C137.576 11.2952 137.498 11.4707 137.252 11.4717L137.219 11.4714V11.5441C137.367 11.5433 137.52 11.531 137.671 11.531C137.815 11.531 137.958 11.5433 138.099 11.5441V11.4717H138.056C137.786 11.4714 137.718 11.3531 137.718 11.0543V9.60143L139.501 11.5955ZM139.433 10.8824L139.443 10.8726L139.433 10.8824ZM139.424 10.876V10.8747L139.422 10.8721L139.424 10.876Z" fill="#211E1F"/>
<path d="M140.521 11.0683C140.486 11.1848 140.445 11.2748 140.445 11.3359C140.445 11.4393 140.589 11.4559 140.702 11.4559H140.741V11.5595C140.603 11.5521 140.463 11.5459 140.324 11.5459C140.201 11.5459 140.078 11.5522 139.954 11.5595V11.4559H139.975C140.109 11.4559 140.222 11.3771 140.273 11.2326L140.823 9.65688C140.867 9.52973 140.93 9.35807 140.95 9.23071C141.06 9.19333 141.197 9.12476 141.262 9.08333C141.273 9.07978 141.279 9.07619 141.29 9.07619C141.3 9.07619 141.306 9.07619 141.314 9.0869C141.324 9.11404 141.334 9.14523 141.345 9.17262L141.977 10.9688C142.018 11.0888 142.059 11.2157 142.103 11.319C142.145 11.4152 142.217 11.4559 142.331 11.4559H142.351V11.5595C142.196 11.5521 142.042 11.546 141.877 11.546C141.709 11.546 141.537 11.5522 141.362 11.5595V11.4559H141.4C141.478 11.4559 141.613 11.4426 141.613 11.3567C141.613 11.3121 141.582 11.2195 141.543 11.1093L141.41 10.7109H140.631L140.521 11.0683ZM141.022 9.5469H141.015L140.696 10.5188H141.337L141.022 9.5469Z" fill="#211E1F"/>
<path d="M142.35 11.5741C142.195 11.5672 142.041 11.56 141.877 11.56C141.709 11.56 141.538 11.5672 141.362 11.5741L141.347 11.575V11.5595V11.4407H141.362H141.399C141.479 11.4407 141.597 11.4226 141.597 11.3567C141.598 11.3176 141.567 11.2234 141.529 11.1141L141.398 10.7258H140.641L140.534 11.0726C140.5 11.1898 140.458 11.2805 140.459 11.3364C140.46 11.4203 140.588 11.4407 140.702 11.4407H140.755V11.4562V11.575L140.739 11.5741C140.602 11.5672 140.462 11.56 140.325 11.56C140.202 11.56 140.078 11.5672 139.955 11.5741L139.939 11.575V11.5595V11.4407H139.954H139.974C140.102 11.4403 140.209 11.3677 140.258 11.2279L140.808 9.65195C140.853 9.52457 140.915 9.35338 140.945 9.21647C141.053 9.18004 141.19 9.111 141.257 9.06909C141.266 9.066 141.276 9.06123 141.29 9.06123C141.298 9.061 141.317 9.06314 141.328 9.08126C141.337 9.10957 141.348 9.14007 141.358 9.16793L141.991 10.9639C142.031 11.0844 142.072 11.2113 142.117 11.3127C142.157 11.4044 142.22 11.4403 142.33 11.4408H142.365V11.4563V11.5751L142.35 11.5741ZM141.377 11.5434C141.547 11.5374 141.713 11.5307 141.877 11.5307C142.037 11.5307 142.186 11.5374 142.335 11.5434V11.4717H142.33C142.213 11.4724 142.132 11.4262 142.089 11.325C142.045 11.2207 142.003 11.0934 141.963 10.9731L141.33 9.1774C141.32 9.15002 141.31 9.11883 141.301 9.09454C141.298 9.09121 141.299 9.09121 141.296 9.09121H141.29C141.282 9.09121 141.278 9.09335 141.27 9.09573C141.203 9.13883 141.066 9.20621 140.964 9.23312C140.943 9.36312 140.881 9.53454 140.836 9.66169L140.287 11.2379C140.234 11.3869 140.114 11.4719 139.974 11.4717H139.969V11.5434C140.087 11.5374 140.206 11.5307 140.325 11.5307C140.457 11.5307 140.593 11.5374 140.724 11.5434V11.4717H140.702C140.59 11.4702 140.434 11.4576 140.43 11.3364C140.43 11.2679 140.472 11.18 140.506 11.0641L140.521 11.0686L140.506 11.0636L140.619 10.6964H141.419L141.557 11.1045C141.596 11.2148 141.627 11.3062 141.627 11.3567C141.622 11.4622 141.477 11.4695 141.399 11.4717H141.377V11.5434H141.377ZM140.675 10.5336L141.003 9.5319H141.015H141.022V9.5469L141.018 9.54762L141.022 9.5469V9.5319H141.032L141.358 10.5336H140.675ZM140.716 10.5038H141.317L141.018 9.58357L140.716 10.5038ZM141.007 9.55121L141.015 9.54859L141.007 9.55121Z" fill="#211E1F"/>
<path d="M142.502 9.33381C142.244 9.33381 142.234 9.39574 142.182 9.64619H142.079C142.093 9.55024 142.11 9.45429 142.121 9.35429C142.135 9.2581 142.141 9.16236 142.141 9.06286H142.224C142.251 9.16595 142.337 9.16238 142.429 9.16238H144.202C144.294 9.16238 144.379 9.15905 144.387 9.05574L144.469 9.06955C144.456 9.16238 144.442 9.25503 144.432 9.34786C144.424 9.4405 144.424 9.53334 144.424 9.62572L144.321 9.66405C144.315 9.53715 144.298 9.33381 144.067 9.33381H143.504V11.161C143.504 11.4257 143.625 11.456 143.789 11.456H143.854V11.5595C143.721 11.5595 143.481 11.546 143.295 11.546C143.089 11.546 142.848 11.5595 142.715 11.5595V11.456H142.78C142.969 11.456 143.065 11.439 143.065 11.1681V9.33381H142.502Z" fill="#211E1F"/>
<path d="M143.854 11.5741C143.719 11.5741 143.479 11.5603 143.295 11.5603C143.089 11.5603 142.849 11.5741 142.714 11.5741H142.699V11.5595V11.4412H142.714H142.779C142.969 11.4367 143.045 11.4343 143.049 11.1681L143.049 9.34883H142.502V9.33381V9.31857H143.079V11.1681C143.079 11.4436 142.968 11.4707 142.779 11.4714H142.729V11.5448C142.865 11.5433 143.095 11.5309 143.295 11.5309C143.474 11.5309 143.703 11.5434 143.839 11.5448V11.4714H143.788C143.623 11.4707 143.49 11.4309 143.489 11.1609V9.31857H144.067C144.298 9.31952 144.328 9.51547 144.334 9.64285L144.409 9.61547C144.409 9.52595 144.41 9.43619 144.416 9.34619C144.426 9.25785 144.439 9.16976 144.451 9.08212L144.399 9.07331C144.384 9.17331 144.287 9.17881 144.201 9.17735H142.429H142.412C142.331 9.17831 142.243 9.17355 142.212 9.07712H142.156C142.155 9.17235 142.148 9.26476 142.135 9.35619C142.126 9.45071 142.109 9.54166 142.096 9.6319H142.17C142.215 9.39259 142.245 9.31497 142.502 9.31857V9.33381V9.34881C142.247 9.35312 142.253 9.39619 142.197 9.65L142.194 9.66166H142.182H142.062L142.064 9.6445C142.078 9.54762 142.095 9.45188 142.105 9.35259C142.119 9.25664 142.126 9.1614 142.126 9.06283V9.04783H142.141H142.234L142.237 9.05855C142.261 9.14521 142.324 9.14569 142.412 9.14712L142.429 9.14759H144.201C144.296 9.14571 144.365 9.14426 144.371 9.05476L144.372 9.03833L144.388 9.04169L144.486 9.05693L144.483 9.07193C144.469 9.16383 144.456 9.25669 144.446 9.34883C144.439 9.44026 144.439 9.53335 144.439 9.62574V9.63645L144.429 9.64026L144.307 9.68454L144.307 9.66452C144.298 9.5355 144.284 9.34881 144.067 9.34881H143.519V11.1609C143.523 11.42 143.625 11.4379 143.788 11.4412H143.869V11.4559V11.574L143.854 11.5741Z" fill="#211E1F"/>
<path d="M144.595 11.456H144.643C144.767 11.456 144.897 11.4393 144.897 11.2605V9.46143C144.897 9.28236 144.767 9.26548 144.643 9.26548H144.595V9.16238C144.729 9.16238 144.935 9.17596 145.103 9.17596C145.275 9.17596 145.481 9.16238 145.643 9.16238V9.26548H145.594C145.471 9.26548 145.34 9.28238 145.34 9.46143V11.2605C145.34 11.4393 145.471 11.456 145.594 11.456H145.643V11.5596C145.478 11.5596 145.271 11.546 145.1 11.546C144.932 11.546 144.729 11.5596 144.595 11.5596V11.456Z" fill="#211E1F"/>
<path d="M145.643 11.5741C145.477 11.5741 145.271 11.56 145.1 11.56C144.932 11.56 144.73 11.5741 144.596 11.5741H144.581V11.5595V11.456V11.4412H144.596H144.644C144.768 11.4393 144.882 11.4286 144.882 11.2605V9.46143C144.882 9.29381 144.768 9.28236 144.644 9.28H144.581V9.2655V9.14764H144.596C144.73 9.14764 144.936 9.16074 145.103 9.16074C145.274 9.16074 145.48 9.14764 145.643 9.14764H145.657V9.16238V9.28H145.643H145.595C145.469 9.28238 145.357 9.29381 145.355 9.46143V11.2605C145.357 11.4286 145.469 11.4393 145.595 11.4412H145.657V11.456V11.5741H145.643ZM145.627 11.5441V11.4714H145.595C145.472 11.4714 145.326 11.4498 145.326 11.2605V9.46143C145.326 9.27167 145.472 9.25024 145.595 9.25024H145.627V9.17738C145.469 9.17834 145.271 9.19072 145.103 9.19072C144.941 9.19072 144.744 9.17834 144.611 9.17738V9.25024H144.644C144.766 9.25024 144.912 9.27167 144.912 9.46143V11.2605C144.912 11.4498 144.766 11.4714 144.644 11.4714H144.611V11.5441C144.743 11.5426 144.937 11.531 145.1 11.531C145.267 11.531 145.466 11.5434 145.627 11.5441H145.627Z" fill="#211E1F"/>
<path d="M147.012 9.11095C147.744 9.11095 148.327 9.56476 148.327 10.2959C148.327 11.086 147.761 11.6109 147.03 11.6109C146.301 11.6109 145.746 11.1164 145.746 10.3781C145.746 9.66404 146.298 9.11095 147.012 9.11095ZM147.064 11.4598C147.73 11.4598 147.846 10.8721 147.846 10.3714C147.846 9.86952 147.576 9.2619 147.005 9.2619C146.404 9.2619 146.226 9.79761 146.226 10.2574C146.226 10.8721 146.508 11.4598 147.064 11.4598Z" fill="#211E1F"/>
<path d="M145.73 10.3781C145.731 9.65571 146.29 9.0969 147.012 9.09595V9.11095V9.12545C146.306 9.12545 145.76 9.67142 145.759 10.3781C145.761 11.1081 146.309 11.5952 147.03 11.5954C147.753 11.5952 148.312 11.0776 148.313 10.2952C148.312 9.57333 147.738 9.1264 147.012 9.12545V9.11095V9.09595C147.749 9.09642 148.34 9.55476 148.342 10.2952C148.341 11.0935 147.767 11.624 147.03 11.6254C146.295 11.624 145.731 11.1245 145.73 10.3781H145.73V10.3781ZM146.211 10.2574C146.212 9.79549 146.392 9.24642 147.005 9.24642C147.588 9.24788 147.86 9.86692 147.861 10.3714C147.86 10.8721 147.742 11.4741 147.064 11.4741V11.4598V11.445C147.717 11.4441 147.83 10.8721 147.831 10.3714C147.831 9.87359 147.563 9.27764 147.005 9.2769C146.416 9.27761 146.242 9.79999 146.241 10.2574C146.241 10.869 146.52 11.4436 147.064 11.445V11.4598V11.4741C146.494 11.4733 146.212 10.8757 146.211 10.2574Z" fill="#211E1F"/>
<path d="M150.641 10.8826L150.648 10.8759V9.58833C150.648 9.30642 150.452 9.26547 150.349 9.26547H150.275V9.16235C150.435 9.16235 150.593 9.17593 150.754 9.17593C150.895 9.17593 151.036 9.16235 151.177 9.16235V9.26547H151.125C150.981 9.26547 150.82 9.29283 150.82 9.70142V11.2643C150.82 11.3843 150.823 11.5043 150.84 11.6107H150.71L148.942 9.63954V11.0545C148.942 11.3534 149 11.456 149.264 11.456H149.323V11.5595C149.175 11.5595 149.028 11.546 148.88 11.546C148.725 11.546 148.567 11.5595 148.413 11.5595V11.456H148.461C148.698 11.456 148.77 11.295 148.77 11.0205V9.57407C148.77 9.38192 148.612 9.2655 148.457 9.2655H148.413V9.1624C148.543 9.1624 148.677 9.17595 148.807 9.17595C148.91 9.17595 149.01 9.1624 149.113 9.1624L150.641 10.8826Z" fill="#211E1F"/>
<path d="M150.841 11.6255L150.698 11.6205L148.956 9.67833V11.0545C148.96 11.3531 149.006 11.4376 149.263 11.4407H149.338V11.4562V11.5741H149.323C149.174 11.5741 149.027 11.5603 148.88 11.5603C148.726 11.5603 148.568 11.5741 148.412 11.5741H148.398V11.5593V11.4407H148.412H148.461C148.687 11.44 148.752 11.2943 148.755 11.0205V9.57407C148.755 9.39122 148.605 9.28026 148.457 9.28002H148.398V9.2655V9.14764H148.412C148.544 9.14764 148.678 9.16076 148.807 9.16076C148.909 9.16076 149.008 9.14764 149.124 9.15267L150.633 10.8515V9.58862C150.632 9.31531 150.449 9.28243 150.349 9.28005H150.258V9.26555V9.14769H150.274C150.436 9.14769 150.594 9.16079 150.754 9.16079C150.895 9.16079 151.035 9.14769 151.177 9.14769H151.192V9.16243V9.28005H151.177H151.125C150.984 9.2841 150.838 9.29695 150.835 9.70148V11.2641C150.835 11.3841 150.837 11.5038 150.854 11.6088L150.857 11.6255H150.841V11.6255ZM150.71 11.5955H150.823C150.808 11.4924 150.805 11.3781 150.805 11.264V9.70143C150.805 9.28857 150.978 9.25119 151.125 9.25H151.162V9.17738C151.027 9.17834 150.891 9.19072 150.754 9.19072C150.598 9.19072 150.444 9.17834 150.289 9.17738V9.25H150.349C150.455 9.25119 150.662 9.29812 150.662 9.58857L150.659 10.8862L150.652 10.8934L150.641 10.9043L149.113 9.17741C149.012 9.17741 148.912 9.19074 148.807 9.19074C148.681 9.19074 148.552 9.17836 148.427 9.17741V9.25003H148.457C148.619 9.25122 148.784 9.37288 148.784 9.57407V11.0205C148.784 11.295 148.708 11.4707 148.461 11.4717L148.427 11.4714V11.5441C148.576 11.5434 148.729 11.531 148.88 11.531C149.023 11.531 149.165 11.5434 149.308 11.5441V11.4717H149.264C148.994 11.4714 148.927 11.3531 148.927 11.0545V9.60095L150.71 11.5955ZM150.641 10.8824L150.652 10.8726L150.641 10.8824ZM150.633 10.876V10.8747L150.63 10.8721L150.633 10.876Z" fill="#211E1F"/>
<path d="M151.729 11.0683C151.695 11.1848 151.654 11.2748 151.654 11.3359C151.654 11.4393 151.798 11.4559 151.911 11.4559H151.949V11.5595C151.812 11.5521 151.671 11.5459 151.533 11.5459C151.409 11.5459 151.286 11.5522 151.163 11.5595V11.4559H151.183C151.317 11.4559 151.431 11.3771 151.482 11.2326L152.032 9.65688C152.076 9.52973 152.138 9.35807 152.158 9.23071C152.268 9.19333 152.405 9.12476 152.471 9.08333C152.481 9.07978 152.488 9.07619 152.498 9.07619C152.509 9.07619 152.515 9.07619 152.522 9.0869C152.532 9.11404 152.543 9.14523 152.553 9.17262L153.185 10.9688C153.226 11.0888 153.267 11.2157 153.312 11.319C153.353 11.4152 153.426 11.4559 153.539 11.4559H153.56V11.5595C153.405 11.5521 153.25 11.546 153.085 11.546C152.917 11.546 152.746 11.5522 152.57 11.5595V11.4559H152.608C152.687 11.4559 152.821 11.4426 152.821 11.3567C152.821 11.3121 152.79 11.2195 152.752 11.1093L152.619 10.7109H151.839L151.729 11.0683ZM152.231 9.5469H152.224L151.904 10.5188H152.547L152.231 9.5469Z" fill="#211E1F"/>
<path d="M153.558 11.5741C153.403 11.5679 153.249 11.5603 153.085 11.5603C152.918 11.5603 152.746 11.5679 152.571 11.5741L152.555 11.575V11.5593V11.4412H152.57H152.607C152.687 11.4412 152.806 11.4226 152.806 11.3567C152.807 11.3176 152.776 11.2241 152.738 11.1141L152.607 10.7257H151.849L151.743 11.0726C151.709 11.1902 151.668 11.2805 151.668 11.336C151.668 11.4203 151.797 11.4412 151.911 11.4412H151.963V11.456V11.575L151.948 11.5741C151.81 11.5679 151.67 11.5603 151.533 11.5603C151.41 11.5603 151.287 11.5679 151.163 11.5741L151.148 11.575V11.5593V11.4412H151.163H151.182C151.311 11.4407 151.418 11.3672 151.468 11.2279L152.017 9.65193C152.061 9.52455 152.123 9.35336 152.153 9.21693C152.261 9.17955 152.399 9.11098 152.466 9.06905C152.475 9.06595 152.484 9.06191 152.498 9.06191C152.507 9.06096 152.525 9.0631 152.536 9.08191C152.546 9.10884 152.556 9.14 152.567 9.16786L153.199 10.9638C153.24 11.0843 153.281 11.2112 153.326 11.3134C153.366 11.4043 153.428 11.4403 153.538 11.4412H153.574V11.456V11.575L153.558 11.5741ZM152.585 11.5438C152.755 11.5374 152.922 11.5307 153.085 11.5307C153.245 11.5307 153.395 11.5374 153.544 11.5433L153.544 11.4716H153.538C153.422 11.4719 153.341 11.4262 153.298 11.325C153.253 11.2207 153.212 11.0933 153.171 10.9736L152.539 9.17738C152.529 9.15 152.518 9.11881 152.51 9.09548C152.507 9.09119 152.507 9.09119 152.505 9.09119H152.498C152.491 9.09119 152.487 9.09357 152.479 9.09595C152.412 9.1381 152.274 9.20665 152.173 9.2331C152.151 9.3631 152.089 9.53429 152.045 9.66167L151.495 11.2379C151.443 11.3869 151.323 11.4719 151.182 11.4716H151.177V11.5433C151.296 11.5374 151.414 11.5307 151.533 11.5307C151.666 11.5307 151.802 11.5374 151.934 11.5433V11.4716H151.911C151.799 11.4702 151.642 11.4581 151.638 11.336C151.639 11.2679 151.681 11.1805 151.715 11.0641L151.729 11.0685L151.715 11.0636L151.828 10.6964H152.628L152.766 11.1045C152.804 11.215 152.835 11.3062 152.835 11.3567C152.83 11.4621 152.686 11.4695 152.607 11.4716H152.585V11.5438H152.585ZM151.883 10.5334L152.213 9.53191H152.223H152.231V9.54691L152.227 9.54762L152.231 9.54691V9.53191H152.241L152.566 10.5334H151.883ZM151.925 10.5038H152.525L152.227 9.58405L151.925 10.5038ZM152.216 9.55122L152.223 9.5486L152.216 9.55122Z" fill="#211E1F"/>
<path d="M154.425 11.2229C154.425 11.3603 154.52 11.4012 154.63 11.4152C154.771 11.4257 154.925 11.4257 155.084 11.4083C155.228 11.391 155.351 11.3086 155.413 11.2229C155.468 11.1471 155.498 11.051 155.519 10.9755H155.619C155.581 11.1712 155.533 11.3641 155.492 11.5595C155.19 11.5595 154.887 11.546 154.586 11.546C154.283 11.546 153.981 11.5595 153.679 11.5595V11.4559H153.726C153.851 11.4559 153.985 11.4393 153.985 11.2262V9.46143C153.985 9.28236 153.851 9.26548 153.726 9.26548H153.679V9.16238C153.861 9.16238 154.039 9.17596 154.221 9.17596C154.397 9.17596 154.568 9.16238 154.743 9.16238V9.26548H154.657C154.527 9.26548 154.425 9.26929 154.425 9.45072V11.2229Z" fill="#211E1F"/>
<path d="M155.492 11.5741C155.189 11.5741 154.887 11.5603 154.586 11.5603C154.283 11.5603 153.981 11.5741 153.679 11.5741H153.664V11.5593V11.4412H153.679H153.726C153.851 11.4383 153.969 11.4298 153.97 11.2262V9.46075C153.969 9.29385 153.852 9.28242 153.726 9.28002H153.664V9.26552V9.14766H153.679C153.861 9.14766 154.04 9.16075 154.221 9.16075C154.396 9.16075 154.567 9.14766 154.744 9.14766H154.758V9.16242V9.28002H154.744H154.657C154.524 9.28383 154.441 9.27764 154.439 9.45075V11.2229C154.44 11.3508 154.524 11.3853 154.631 11.4003C154.691 11.4046 154.755 11.4072 154.821 11.4072C154.905 11.4072 154.993 11.4031 155.081 11.3936C155.221 11.3772 155.342 11.2965 155.401 11.2146C155.454 11.1412 155.484 11.0469 155.505 10.9719L155.508 10.9605H155.519H155.637L155.634 10.9786C155.595 11.1751 155.548 11.367 155.506 11.5624L155.503 11.5741H155.492H155.492V11.5741ZM155.479 11.5441C155.519 11.3579 155.564 11.1757 155.601 10.99H155.53C155.509 11.0648 155.479 11.1569 155.425 11.2319C155.36 11.3209 155.233 11.4048 155.085 11.4231C154.995 11.4324 154.905 11.4371 154.821 11.4371C154.755 11.4371 154.69 11.434 154.628 11.4297C154.516 11.4174 154.408 11.3697 154.409 11.2228V9.45071C154.409 9.25999 154.529 9.25023 154.657 9.25023H154.728V9.17737C154.559 9.17833 154.392 9.19092 154.221 9.19092C154.044 9.19092 153.87 9.17833 153.694 9.17737V9.25023H153.726C153.849 9.25023 153.999 9.27166 153.999 9.46071V11.2262C153.999 11.4483 153.85 11.4714 153.726 11.4714H153.694V11.544C153.99 11.5438 154.287 11.5309 154.586 11.5309C154.884 11.5309 155.182 11.5438 155.479 11.5441Z" fill="#211E1F"/>
<path d="M155.577 9.06476C155.784 9.06476 155.938 9.22381 155.938 9.42762C155.938 9.63047 155.784 9.78809 155.577 9.78809C155.37 9.78809 155.215 9.63047 155.215 9.42762C155.215 9.22383 155.37 9.06476 155.577 9.06476ZM155.577 9.72071C155.739 9.72071 155.863 9.58262 155.863 9.42762C155.863 9.27166 155.741 9.13238 155.577 9.13238C155.414 9.13238 155.29 9.27169 155.29 9.42762C155.29 9.58262 155.414 9.72071 155.577 9.72071ZM155.397 9.61809V9.60023C155.441 9.59404 155.45 9.59547 155.45 9.56785V9.30023C155.45 9.26264 155.446 9.24978 155.399 9.25166V9.23333H155.584C155.647 9.23333 155.706 9.26357 155.706 9.32928C155.706 9.38309 155.67 9.42285 155.62 9.43833L155.68 9.52116C155.707 9.55878 155.739 9.59404 155.759 9.6064V9.61807H155.689C155.655 9.61807 155.626 9.54688 155.559 9.4514H155.519V9.57164C155.519 9.59545 155.527 9.59402 155.572 9.60021V9.61807H155.397V9.61809ZM155.519 9.42762H155.562C155.608 9.42762 155.63 9.39214 155.63 9.33523C155.63 9.27762 155.596 9.25735 155.559 9.25735H155.519V9.42762Z" fill="#211E1F"/>
<path d="M118.502 13.5C121.782 13.5157 124.776 10.8252 124.776 7.55214C124.776 3.97286 121.782 1.49881 118.502 1.5H115.68C112.361 1.49881 109.629 3.9736 109.629 7.55214C109.629 10.8259 112.361 13.5157 115.68 13.5H118.502Z" fill="#0079BE"/>
<path d="M115.693 1.99596C112.66 1.99691 110.203 4.45524 110.202 7.48931C110.203 10.5229 112.66 12.981 115.693 12.9819C118.727 12.981 121.185 10.5229 121.185 7.48931C121.185 4.45524 118.727 1.99691 115.693 1.99596ZM112.213 7.48931C112.215 6.00669 113.141 4.74241 114.447 4.24V10.7379C113.141 10.2357 112.215 8.97215 112.213 7.48931ZM116.939 10.7393V4.23979C118.245 4.74098 119.173 6.00598 119.175 7.48931C119.173 8.9731 118.245 10.2371 116.939 10.7393Z" fill="white"/>
<path d="M126.699 4.08169C126.699 3.51404 126.403 3.55142 126.12 3.54526V3.38121C126.366 3.39335 126.618 3.39335 126.864 3.39335C127.129 3.39335 127.489 3.38121 127.956 3.38121C129.59 3.38121 130.48 4.47264 130.48 5.59023C130.48 6.21523 130.114 7.78642 127.88 7.78642C127.558 7.78642 127.262 7.77402 126.965 7.77402C126.681 7.77402 126.403 7.78023 126.12 7.78642V7.62261C126.498 7.5845 126.681 7.5719 126.699 7.14262V4.08169H126.699ZM127.318 7.0419C127.318 7.52785 127.665 7.58452 127.974 7.58452C129.338 7.58452 129.785 6.55571 129.785 5.61523C129.785 4.43547 129.028 3.58357 127.81 3.58357C127.551 3.58357 127.432 3.60214 127.318 3.60883L127.318 7.0419Z" fill="#211E1F"/>
<path d="M130.701 7.62265H130.82C130.997 7.62265 131.123 7.62265 131.123 7.41381V5.70384C131.123 5.42648 131.029 5.38788 130.795 5.26241V5.16122C131.091 5.07217 131.445 4.95312 131.47 4.93407C131.515 4.90884 131.552 4.90217 131.584 4.90217C131.615 4.90217 131.628 4.94027 131.628 4.99098V7.41381C131.628 7.62265 131.767 7.62265 131.944 7.62265H132.051V7.78669C131.836 7.78669 131.615 7.7741 131.388 7.7741C131.161 7.7741 130.934 7.78029 130.701 7.78669V7.62265H130.701ZM131.376 3.93048C131.211 3.93048 131.067 3.77907 131.067 3.615C131.067 3.45691 131.218 3.31143 131.376 3.31143C131.539 3.31143 131.685 3.44455 131.685 3.615C131.685 3.78548 131.546 3.93048 131.376 3.93048Z" fill="#211E1F"/>
<path d="M132.65 5.74145C132.65 5.50811 132.581 5.44526 132.285 5.32526V5.20552C132.556 5.11718 132.814 5.03504 133.117 4.90218C133.136 4.90218 133.155 4.91504 133.155 4.96528V5.37573C133.515 5.11718 133.824 4.90216 134.247 4.90216C134.783 4.90216 134.972 5.29357 134.972 5.78571V7.41383C134.972 7.62264 135.111 7.62264 135.288 7.62264H135.402V7.78668C135.18 7.78668 134.96 7.77409 134.733 7.77409C134.506 7.77409 134.278 7.78028 134.051 7.78668V7.62264H134.165C134.342 7.62264 134.467 7.62264 134.467 7.41383V5.77976C134.467 5.41952 134.247 5.24309 133.887 5.24309C133.686 5.24309 133.364 5.40716 133.155 5.54618V7.41378C133.155 7.62261 133.294 7.62261 133.471 7.62261H133.584V7.78666C133.364 7.78666 133.142 7.77404 132.915 7.77404C132.688 7.77404 132.461 7.78026 132.234 7.78666V7.62261H132.348C132.524 7.62261 132.65 7.62261 132.65 7.41378V5.74145H132.65Z" fill="#211E1F"/>
<path d="M135.882 6.04476C135.868 6.10169 135.868 6.19619 135.882 6.41095C135.919 7.01024 136.305 7.50241 136.809 7.50241C137.156 7.50241 137.428 7.31312 137.661 7.07979L137.749 7.16836C137.459 7.55312 137.099 7.88119 136.582 7.88119C135.578 7.88119 135.376 6.90905 135.376 6.5055C135.376 5.26834 136.209 4.90215 136.651 4.90215C137.162 4.90215 137.711 5.22384 137.717 5.89286C137.717 5.93119 137.717 5.96857 137.711 6.00691L137.654 6.04476H135.882ZM136.999 5.84265C137.156 5.84265 137.175 5.7605 137.175 5.68503C137.175 5.3631 136.979 5.10429 136.626 5.10429C136.241 5.10429 135.976 5.38786 135.9 5.84265H136.999Z" fill="#211E1F"/>
<path d="M137.863 7.62265H138.033C138.209 7.62265 138.336 7.62265 138.336 7.41381V5.64072C138.336 5.44524 138.103 5.40715 138.008 5.35667V5.26238C138.468 5.06643 138.721 4.90215 138.778 4.90215C138.816 4.90215 138.834 4.92119 138.834 4.98453V5.55238H138.848C139.005 5.30643 139.27 4.90215 139.655 4.90215C139.813 4.90215 140.014 5.00929 140.014 5.23667C140.014 5.40715 139.895 5.55905 139.718 5.55905C139.522 5.55905 139.522 5.40715 139.301 5.40715C139.194 5.40715 138.841 5.55238 138.841 5.93119V7.41381C138.841 7.62262 138.967 7.62262 139.144 7.62262H139.497V7.78669C139.15 7.78024 138.886 7.77407 138.614 7.77407C138.355 7.77407 138.09 7.78026 137.863 7.78669V7.62265H137.863Z" fill="#211E1F"/>
<path d="M140.292 6.90904C140.374 7.32571 140.626 7.6793 141.087 7.6793C141.459 7.6793 141.598 7.45216 141.598 7.23121C141.598 6.48645 140.223 6.72621 140.223 5.71026C140.223 5.35668 140.507 4.90216 141.201 4.90216C141.402 4.90216 141.673 4.9593 141.919 5.08573L141.964 5.72885H141.819C141.756 5.33168 141.535 5.10433 141.131 5.10433C140.878 5.10433 140.639 5.24959 140.639 5.52076C140.639 6.2598 142.103 6.03195 142.103 7.02266C142.103 7.43909 141.768 7.88123 141.017 7.88123C140.765 7.88123 140.468 7.7929 140.248 7.66695L140.178 6.94102L140.292 6.90904Z" fill="#211E1F"/>
<path d="M147.801 4.52357H147.644C147.524 3.78548 147 3.48857 146.293 3.48857C145.567 3.48857 144.513 3.97427 144.513 5.48881C144.513 6.76453 145.423 7.67927 146.394 7.67927C147.019 7.67927 147.537 7.25022 147.663 6.58738L147.807 6.625L147.663 7.54641C147.398 7.71093 146.685 7.88119 146.268 7.88119C144.792 7.88119 143.858 6.92812 143.858 5.5081C143.858 4.21429 145.012 3.28619 146.249 3.28619C146.76 3.28619 147.252 3.45096 147.738 3.62143L147.801 4.52357Z" fill="#211E1F"/>
<path d="M148.028 7.62264H148.148C148.325 7.62264 148.451 7.62264 148.451 7.41381V3.89907C148.451 3.48859 148.357 3.47595 148.117 3.40667V3.30571C148.369 3.22383 148.634 3.11 148.767 3.03407C148.835 2.99645 148.886 2.96452 148.905 2.96452C148.944 2.96452 148.956 3.00264 148.956 3.05333V7.41381C148.956 7.62264 149.095 7.62264 149.272 7.62264H149.378V7.78669C149.165 7.78669 148.944 7.77407 148.716 7.77407C148.489 7.77407 148.262 7.78028 148.028 7.78669V7.62264H148.028Z" fill="#211E1F"/>
<path d="M152.08 7.43908C152.08 7.55312 152.149 7.55931 152.256 7.55931C152.332 7.55931 152.426 7.55312 152.509 7.55312V7.68598C152.237 7.71098 151.72 7.8436 151.6 7.88122L151.568 7.86215V7.35146C151.19 7.66048 150.899 7.88122 150.451 7.88122C150.11 7.88122 149.757 7.66048 149.757 7.13072V5.51453C149.757 5.35048 149.732 5.1926 149.379 5.1612V5.0412C149.606 5.03501 150.11 4.99712 150.192 4.99712C150.262 4.99712 150.263 5.0412 150.263 5.18001V6.80784C150.263 6.99762 150.262 7.54022 150.811 7.54022C151.026 7.54022 151.309 7.37617 151.574 7.15593V5.45736C151.574 5.33165 151.272 5.26236 151.045 5.19901V5.08543C151.612 5.04734 151.966 4.9971 152.029 4.9971C152.08 4.9971 152.08 5.04115 152.08 5.11091V7.43908H152.08Z" fill="#211E1F"/>
<path d="M153.336 5.35669C153.588 5.14214 153.929 4.90217 154.276 4.90217C155.008 4.90217 155.449 5.54026 155.449 6.22762C155.449 7.05431 154.844 7.88119 153.941 7.88119C153.474 7.88119 153.228 7.72952 153.064 7.66045L152.875 7.80521L152.743 7.73619C152.799 7.36381 152.831 6.99762 152.831 6.61286V3.89905C152.831 3.48859 152.736 3.47595 152.496 3.40667V3.30571C152.749 3.22383 153.013 3.11 153.146 3.03405C153.216 2.99643 153.266 2.96452 153.285 2.96452C153.323 2.96452 153.336 3.00264 153.336 3.05333V5.35667H153.336V5.35669ZM153.336 7.07312C153.336 7.31312 153.563 7.7174 153.985 7.7174C154.661 7.7174 154.944 7.05431 154.944 6.49243C154.944 5.811 154.428 5.24314 153.935 5.24314C153.701 5.24314 153.506 5.39481 153.336 5.54026V7.07312H153.336Z" fill="#211E1F"/>
<path d="M126.112 11.456H126.161C126.284 11.456 126.414 11.4393 126.414 11.2605V9.46143C126.414 9.28236 126.284 9.26548 126.161 9.26548H126.112V9.16238C126.246 9.16238 126.452 9.17596 126.621 9.17596C126.793 9.17596 126.998 9.16238 127.16 9.16238V9.26548H127.111C126.988 9.26548 126.858 9.28238 126.858 9.46143V11.2605C126.858 11.4393 126.988 11.456 127.111 11.456H127.16V11.5596C126.995 11.5596 126.788 11.546 126.617 11.546C126.449 11.546 126.246 11.5596 126.112 11.5596V11.456Z" fill="#211E1F"/>
<path d="M127.16 11.5741C126.994 11.5741 126.788 11.5603 126.617 11.5603C126.449 11.5603 126.247 11.5741 126.112 11.5741H126.098V11.5593V11.4562V11.4412H126.112H126.161C126.285 11.4384 126.398 11.4284 126.4 11.2605V9.46143C126.398 9.29357 126.285 9.28236 126.161 9.28H126.098V9.2655V9.14714H126.112C126.247 9.14714 126.453 9.16071 126.621 9.16071C126.792 9.16071 126.997 9.14714 127.16 9.14714H127.175V9.16285V9.28H127.16H127.112C126.987 9.28238 126.873 9.29357 126.872 9.46143V11.2605C126.873 11.4284 126.987 11.4384 127.112 11.4412H127.175V11.4562V11.5741H127.16ZM127.145 11.5448V11.4714H127.112C126.989 11.4714 126.843 11.4502 126.842 11.2605V9.46143C126.843 9.27166 126.989 9.25024 127.112 9.25024H127.145V9.17738C126.986 9.17738 126.788 9.19071 126.621 9.19071C126.458 9.19071 126.26 9.17833 126.128 9.17738V9.25024H126.16C126.283 9.25024 126.429 9.27166 126.429 9.46143V11.2605C126.429 11.4503 126.283 11.4714 126.16 11.4714H126.128V11.5448C126.26 11.5433 126.455 11.531 126.617 11.531C126.784 11.531 126.983 11.5438 127.145 11.5448Z" fill="#211E1F"/>
<path d="M129.519 10.8826L129.526 10.8759V9.58833C129.526 9.30642 129.33 9.26547 129.227 9.26547H129.151V9.16235C129.313 9.16235 129.471 9.17593 129.632 9.17593C129.772 9.17593 129.914 9.16235 130.054 9.16235V9.26547H130.003C129.858 9.26547 129.697 9.29283 129.697 9.70142V11.2643C129.697 11.3843 129.7 11.5043 129.717 11.6107H129.587L127.819 9.63954V11.0545C127.819 11.3534 127.877 11.456 128.141 11.456H128.2V11.5595C128.052 11.5595 127.905 11.546 127.757 11.546C127.603 11.546 127.445 11.5595 127.29 11.5595V11.456H127.338C127.575 11.456 127.647 11.295 127.647 11.0205V9.57407C127.647 9.38192 127.489 9.2655 127.335 9.2655H127.29V9.1624C127.421 9.1624 127.554 9.17595 127.685 9.17595C127.788 9.17595 127.887 9.1624 127.99 9.1624L129.519 10.8826Z" fill="#211E1F"/>
<path d="M129.717 11.6257L129.575 11.6205L127.833 9.67836V11.0545C127.837 11.3531 127.883 11.4379 128.141 11.4412H128.215V11.456V11.5741H128.199C128.051 11.5741 127.903 11.5603 127.757 11.5603C127.603 11.5603 127.445 11.5741 127.289 11.5741H127.274V11.5593V11.4412H127.289H127.338C127.565 11.44 127.629 11.2943 127.632 11.0205V9.57431C127.632 9.39145 127.482 9.2805 127.334 9.28002H127.274V9.26479V9.14764H127.289C127.421 9.14764 127.555 9.16074 127.684 9.16074C127.786 9.16074 127.886 9.14764 128.001 9.15264L129.51 10.8515V9.58862C129.508 9.31529 129.326 9.28243 129.226 9.28002H129.135V9.26479V9.14764H129.151C129.313 9.14764 129.471 9.16074 129.631 9.16074C129.771 9.16074 129.912 9.14764 130.054 9.14764H130.069V9.16241V9.28H130.054H130.003C129.861 9.28407 129.715 9.29643 129.711 9.70143V11.264C129.711 11.384 129.715 11.504 129.732 11.6081L129.735 11.6257H129.717V11.6257ZM129.587 11.5955H129.7C129.685 11.4924 129.682 11.3781 129.682 11.264V9.70143C129.682 9.28929 129.855 9.25026 130.003 9.25026H130.039V9.17738C129.904 9.17834 129.768 9.19072 129.631 9.19072C129.474 9.19072 129.321 9.17834 129.166 9.17738L129.166 9.25026H129.226C129.332 9.25026 129.54 9.29738 129.54 9.5886L129.535 10.8862L129.529 10.8934L129.517 10.9041L127.99 9.17738C127.888 9.17738 127.789 9.19072 127.684 9.19072C127.558 9.19072 127.429 9.17834 127.305 9.17738L127.304 9.25024H127.335C127.496 9.25024 127.661 9.37333 127.661 9.57429V11.0205C127.661 11.295 127.585 11.4707 127.338 11.4716L127.305 11.4707V11.5447C127.454 11.5433 127.606 11.5309 127.757 11.5309C127.9 11.5309 128.043 11.5433 128.184 11.5447V11.4716H128.141C127.871 11.4707 127.804 11.3531 127.804 11.0545V9.60093L129.587 11.5955ZM129.518 10.8824L129.529 10.8724L129.518 10.8824ZM129.51 10.8757V10.8745L129.508 10.8721L129.51 10.8757Z" fill="#211E1F"/>
<path d="M130.568 9.33381C130.31 9.33381 130.301 9.39574 130.249 9.64619H130.146C130.16 9.55024 130.177 9.45429 130.187 9.35429C130.201 9.2581 130.208 9.16236 130.208 9.06286H130.29C130.318 9.16595 130.404 9.16238 130.497 9.16238H132.268C132.361 9.16238 132.446 9.15905 132.454 9.05574L132.535 9.06955C132.522 9.16238 132.508 9.25503 132.498 9.34786C132.492 9.4405 132.492 9.53334 132.492 9.62572L132.388 9.66405C132.381 9.53715 132.364 9.33381 132.134 9.33381H131.571V11.161C131.571 11.4257 131.691 11.456 131.856 11.456H131.921V11.5595C131.787 11.5595 131.547 11.546 131.362 11.546C131.156 11.546 130.915 11.5595 130.781 11.5595V11.456H130.846C131.036 11.456 131.131 11.439 131.131 11.1681V9.33381H130.568Z" fill="#211E1F"/>
<path d="M131.922 11.5741C131.787 11.5741 131.546 11.5603 131.362 11.5603C131.156 11.5603 130.916 11.5741 130.781 11.5741H130.767V11.5596V11.4412H130.781H130.847C131.036 11.4367 131.112 11.4343 131.116 11.1681V9.34884H130.568V9.33381V9.31858H131.146V11.1681C131.146 11.4436 131.035 11.4714 130.847 11.4717H130.796V11.5441C130.932 11.5434 131.163 11.531 131.362 11.531C131.541 11.531 131.77 11.5434 131.906 11.5441V11.4717H131.856C131.69 11.4714 131.556 11.4307 131.556 11.161V9.31858H132.134C132.365 9.31953 132.395 9.51548 132.403 9.64286L132.477 9.61548C132.477 9.52596 132.477 9.4362 132.483 9.34572C132.493 9.25739 132.506 9.16977 132.519 9.08215L132.466 9.07334C132.45 9.17334 132.354 9.17834 132.267 9.17739H130.497H130.479C130.398 9.17739 130.31 9.17358 130.279 9.07765H130.222C130.222 9.17265 130.215 9.26479 130.202 9.3562C130.192 9.4505 130.177 9.54122 130.164 9.63193H130.237C130.282 9.39262 130.312 9.31501 130.568 9.3186V9.33384V9.34884C130.314 9.35336 130.32 9.39622 130.264 9.65003L130.261 9.6617H130.249H130.129L130.131 9.64384C130.145 9.54765 130.162 9.45191 130.172 9.35191C130.187 9.25667 130.193 9.16143 130.193 9.06286V9.04786H130.208H130.302L130.304 9.05858C130.328 9.14524 130.392 9.14572 130.479 9.14715H130.497H132.267C132.363 9.14572 132.433 9.14429 132.439 9.05451L132.44 9.03831L132.456 9.04165L132.552 9.05691L132.55 9.07191C132.537 9.16381 132.523 9.25667 132.513 9.34881C132.506 9.44024 132.506 9.5331 132.506 9.62572V9.63643L132.497 9.64024L132.375 9.6845L132.374 9.6645C132.365 9.53546 132.351 9.34879 132.134 9.34879H131.586V11.1609C131.589 11.42 131.692 11.4378 131.856 11.4412H131.936V11.4559V11.574L131.922 11.5741Z" fill="#211E1F"/>
<path d="M132.646 11.456H132.694C132.817 11.456 132.948 11.4393 132.948 11.2605V9.46143C132.948 9.28236 132.817 9.26548 132.694 9.26548H132.646V9.16238C132.855 9.16238 133.212 9.17596 133.5 9.17596C133.789 9.17596 134.146 9.16238 134.379 9.16238C134.373 9.30976 134.376 9.53691 134.386 9.68765L134.283 9.71524C134.266 9.49217 134.225 9.31384 133.865 9.31384H133.388V10.2131H133.796C134.002 10.2131 134.047 10.0967 134.067 9.91077H134.17C134.163 10.0453 134.16 10.1791 134.16 10.3129C134.16 10.4436 134.163 10.5739 134.17 10.7043L134.067 10.7248C134.047 10.5189 134.036 10.385 133.799 10.385H133.388V11.1848C133.388 11.4084 133.586 11.4084 133.806 11.4084C134.218 11.4084 134.4 11.3805 134.503 10.9896L134.599 11.0131C134.554 11.1955 134.513 11.3772 134.483 11.5596C134.263 11.5596 133.868 11.546 133.559 11.546C133.25 11.546 132.841 11.5596 132.646 11.5596V11.456Z" fill="#211E1F"/>
<path d="M134.482 11.5741C134.262 11.5741 133.867 11.56 133.559 11.56C133.249 11.56 132.841 11.5741 132.645 11.5741H132.631V11.5595V11.456V11.4412H132.645H132.693C132.818 11.4393 132.931 11.4284 132.933 11.2605V9.46143C132.931 9.29381 132.818 9.28262 132.693 9.28H132.631V9.2655V9.14764H132.645C132.855 9.14764 133.212 9.16074 133.5 9.16074C133.789 9.16074 134.145 9.14764 134.379 9.14764H134.394L134.393 9.16288C134.391 9.21455 134.39 9.27548 134.39 9.34026C134.39 9.45905 134.393 9.58881 134.4 9.68669L134.401 9.69907L134.389 9.70243L134.269 9.73386L134.268 9.71624C134.248 9.49338 134.218 9.33172 133.864 9.32838H133.402L133.401 10.1977H133.796C133.993 10.1958 134.029 10.0946 134.052 9.90957L134.053 9.896H134.067H134.185L134.185 9.91145C134.178 10.0453 134.174 10.1791 134.174 10.3129C134.174 10.4429 134.178 10.5731 134.185 10.7038L134.185 10.716L134.173 10.7188L134.053 10.7426L134.052 10.7265C134.029 10.5169 134.027 10.4022 133.799 10.3996L133.402 10.3993V11.1848C133.402 11.3934 133.582 11.3922 133.806 11.3934C134.219 11.391 134.385 11.371 134.489 10.9853L134.492 10.9715L134.506 10.9741L134.616 11.0024L134.613 11.0167C134.569 11.1986 134.528 11.38 134.497 11.5619L134.494 11.5741H134.482ZM134.47 11.5441C134.499 11.371 134.539 11.1972 134.581 11.0243L134.513 11.0071C134.41 11.3915 134.211 11.4257 133.806 11.4231C133.59 11.4231 133.373 11.4231 133.372 11.1848V10.37H133.799C134.038 10.3674 134.063 10.5121 134.08 10.7076L134.154 10.6922C134.148 10.5657 134.144 10.4388 134.144 10.3129C134.144 10.1836 134.148 10.055 134.154 9.92572H134.08C134.061 10.1045 134.005 10.2302 133.796 10.2279H133.372V9.29833H133.864C134.222 9.29593 134.281 9.48024 134.296 9.69619L134.37 9.67619C134.364 9.57929 134.36 9.455 134.36 9.34024C134.36 9.28143 134.362 9.22595 134.363 9.17738C134.13 9.17834 133.783 9.19072 133.5 9.19072C133.218 9.19072 132.87 9.17834 132.66 9.17738V9.25024H132.693C132.816 9.25024 132.962 9.27167 132.963 9.46143V11.2605C132.962 11.4498 132.816 11.4707 132.693 11.4717H132.66V11.5441C132.86 11.5438 133.257 11.531 133.559 11.531C133.862 11.531 134.248 11.5438 134.47 11.5441Z" fill="#211E1F"/>
<path d="M135.062 9.52619C135.062 9.27571 134.925 9.26547 134.818 9.26547H134.756V9.16214C134.866 9.16214 135.079 9.17595 135.288 9.17595C135.494 9.17595 135.659 9.16214 135.841 9.16214C136.273 9.16214 136.659 9.27904 136.659 9.76714C136.659 10.0755 136.453 10.2645 136.181 10.3714L136.768 11.25C136.864 11.3952 136.933 11.4359 137.101 11.4559V11.5595C136.988 11.5595 136.878 11.5459 136.765 11.5459C136.658 11.5459 136.548 11.5595 136.442 11.5595C136.178 11.2126 135.951 10.8417 135.728 10.4464H135.502V11.1817C135.502 11.4464 135.625 11.4559 135.783 11.4559H135.845V11.5595C135.648 11.5595 135.45 11.546 135.254 11.546C135.089 11.546 134.928 11.5595 134.756 11.5595V11.4559H134.818C134.946 11.4559 135.062 11.3983 135.062 11.2709V9.52619ZM135.502 10.3229H135.669C136.013 10.3229 136.198 10.1924 136.198 9.78714C136.198 9.4819 136.003 9.28595 135.697 9.28595C135.593 9.28595 135.55 9.29666 135.502 9.29976V10.3229H135.502Z" fill="#211E1F"/>
<path d="M137.102 11.5741C136.987 11.5741 136.877 11.5603 136.765 11.5603C136.66 11.5603 136.55 11.5741 136.431 11.5684C136.167 11.2229 135.942 10.8541 135.72 10.4617H135.517V11.1812C135.52 11.4396 135.624 11.4374 135.783 11.4412H135.86V11.456V11.5741H135.845C135.648 11.5741 135.449 11.5603 135.254 11.5603C135.09 11.5603 134.929 11.5741 134.757 11.5741H134.742V11.5593V11.4412H134.757H134.818C134.942 11.4405 135.046 11.3867 135.047 11.271V9.52626C135.044 9.28245 134.925 9.28386 134.818 9.28031H134.742V9.26555V9.14722H134.757C134.868 9.14722 135.08 9.16076 135.289 9.16076C135.494 9.16076 135.659 9.14722 135.842 9.14722C136.274 9.14817 136.673 9.26769 136.674 9.76626C136.674 10.0765 136.469 10.27 136.204 10.3782L136.781 11.242C136.877 11.3843 136.937 11.4198 137.104 11.4412L137.116 11.4431V11.456V11.5741H137.102V11.5741ZM135.502 10.4317H135.737L135.741 10.4393C135.964 10.8338 136.19 11.2043 136.443 11.5448C136.547 11.5448 136.658 11.5307 136.765 11.5307C136.874 11.5307 136.98 11.5426 137.087 11.5443V11.4691C136.926 11.4491 136.85 11.401 136.757 11.2583L136.159 10.3643L136.176 10.3574C136.445 10.2517 136.643 10.0681 136.644 9.76617C136.643 9.28974 136.273 9.17929 135.842 9.17738C135.661 9.17738 135.496 9.19095 135.289 9.19095C135.087 9.19095 134.884 9.17834 134.771 9.17738V9.25024H134.818C134.925 9.2505 135.077 9.2681 135.077 9.52622V11.271C135.077 11.4088 134.948 11.4717 134.818 11.4719H134.771V11.5443C134.937 11.5438 135.093 11.5307 135.254 11.5307C135.446 11.5307 135.64 11.5438 135.83 11.5443V11.4719H135.783C135.626 11.4716 135.487 11.4521 135.487 11.1812V10.4317H135.502H135.502ZM135.502 10.3374H135.487V9.28595L135.5 9.28476C135.547 9.28122 135.593 9.27143 135.697 9.27143C136.01 9.27143 136.213 9.47476 136.214 9.78784C136.213 10.1978 136.016 10.3371 135.67 10.3374H135.502V10.3374ZM135.67 10.3079C136.01 10.305 136.181 10.1869 136.184 9.78786C136.182 9.48786 135.996 9.30167 135.697 9.30048C135.604 9.30048 135.561 9.30905 135.517 9.31288V10.3079H135.67Z" fill="#211E1F"/>
<path d="M139.433 10.8826L139.439 10.8759V9.58833C139.439 9.30642 139.244 9.26547 139.141 9.26547H139.066V9.16235C139.227 9.16235 139.384 9.17593 139.546 9.17593C139.687 9.17593 139.827 9.16235 139.969 9.16235V9.26547H139.917C139.773 9.26547 139.611 9.29283 139.611 9.70142V11.2643C139.611 11.3843 139.615 11.5043 139.632 11.6107H139.502L137.733 9.63954V11.0545C137.733 11.3534 137.792 11.456 138.056 11.456H138.114V11.5595C137.967 11.5595 137.819 11.546 137.672 11.546C137.517 11.546 137.359 11.5595 137.205 11.5595V11.456H137.252C137.489 11.456 137.561 11.295 137.561 11.0205V9.57407C137.561 9.38192 137.404 9.2655 137.249 9.2655H137.205V9.1624C137.335 9.1624 137.469 9.17595 137.599 9.17595C137.702 9.17595 137.802 9.1624 137.905 9.1624L139.433 10.8826Z" fill="#211E1F"/>
<path d="M139.632 11.6255L139.49 11.6207L137.748 9.67836V11.0543C137.752 11.3531 137.797 11.4379 138.056 11.4412H138.129V11.456V11.5741H138.114C137.965 11.5741 137.818 11.56 137.671 11.56C137.518 11.56 137.359 11.5741 137.204 11.5741H137.189V11.5596V11.4412H137.204H137.252C137.479 11.4403 137.544 11.2943 137.546 11.0196V9.57408C137.546 9.39119 137.396 9.28027 137.249 9.28H137.189V9.2655V9.14717H137.204C137.335 9.14717 137.47 9.16072 137.599 9.16072C137.7 9.16072 137.8 9.14717 137.915 9.15191L139.424 10.8515V9.5881C139.423 9.31524 139.24 9.28143 139.141 9.28003H139.05V9.2655V9.14717H139.065C139.227 9.14717 139.385 9.16072 139.546 9.16072C139.686 9.16072 139.827 9.14717 139.968 9.14717H139.983V9.16265V9.28003H139.968H139.917C139.775 9.28384 139.629 9.29643 139.626 9.70146V11.2641C139.626 11.3841 139.629 11.5031 139.646 11.6088L139.648 11.6255H139.632ZM139.501 11.5955H139.614C139.599 11.4924 139.596 11.3781 139.596 11.2641V9.70143C139.596 9.28927 139.77 9.25119 139.917 9.25H139.953V9.17739C139.818 9.17834 139.682 9.19072 139.546 9.19072C139.388 9.19072 139.235 9.17834 139.08 9.17739V9.25H139.141C139.246 9.25119 139.454 9.29739 139.454 9.5881L139.45 10.8862L139.443 10.8933L139.433 10.9043L137.904 9.17741C137.803 9.17741 137.703 9.19074 137.599 9.19074C137.472 9.19074 137.344 9.17836 137.219 9.17741V9.25003H137.249C137.41 9.25122 137.576 9.37289 137.576 9.57408V11.0195C137.576 11.2952 137.498 11.4707 137.252 11.4717L137.219 11.4714V11.5441C137.367 11.5433 137.52 11.531 137.671 11.531C137.815 11.531 137.958 11.5433 138.099 11.5441V11.4717H138.056C137.786 11.4714 137.718 11.3531 137.718 11.0543V9.60143L139.501 11.5955ZM139.433 10.8824L139.443 10.8726L139.433 10.8824ZM139.424 10.876V10.8747L139.422 10.8721L139.424 10.876Z" fill="#211E1F"/>
<path d="M140.521 11.0683C140.486 11.1848 140.445 11.2748 140.445 11.3359C140.445 11.4393 140.589 11.4559 140.702 11.4559H140.741V11.5595C140.603 11.5521 140.463 11.5459 140.324 11.5459C140.201 11.5459 140.078 11.5522 139.954 11.5595V11.4559H139.975C140.109 11.4559 140.222 11.3771 140.273 11.2326L140.823 9.65688C140.867 9.52973 140.93 9.35807 140.95 9.23071C141.06 9.19333 141.197 9.12476 141.262 9.08333C141.273 9.07978 141.279 9.07619 141.29 9.07619C141.3 9.07619 141.306 9.07619 141.314 9.0869C141.324 9.11404 141.334 9.14523 141.345 9.17262L141.977 10.9688C142.018 11.0888 142.059 11.2157 142.103 11.319C142.145 11.4152 142.217 11.4559 142.331 11.4559H142.351V11.5595C142.196 11.5521 142.042 11.546 141.877 11.546C141.709 11.546 141.537 11.5522 141.362 11.5595V11.4559H141.4C141.478 11.4559 141.613 11.4426 141.613 11.3567C141.613 11.3121 141.582 11.2195 141.543 11.1093L141.41 10.7109H140.631L140.521 11.0683ZM141.022 9.5469H141.015L140.696 10.5188H141.337L141.022 9.5469Z" fill="#211E1F"/>
<path d="M142.35 11.5741C142.195 11.5672 142.041 11.56 141.877 11.56C141.709 11.56 141.538 11.5672 141.362 11.5741L141.347 11.575V11.5595V11.4407H141.362H141.399C141.479 11.4407 141.597 11.4226 141.597 11.3567C141.598 11.3176 141.567 11.2234 141.529 11.1141L141.398 10.7258H140.641L140.534 11.0726C140.5 11.1898 140.458 11.2805 140.459 11.3364C140.46 11.4203 140.588 11.4407 140.702 11.4407H140.755V11.4562V11.575L140.739 11.5741C140.602 11.5672 140.462 11.56 140.325 11.56C140.202 11.56 140.078 11.5672 139.955 11.5741L139.939 11.575V11.5595V11.4407H139.954H139.974C140.102 11.4403 140.209 11.3677 140.258 11.2279L140.808 9.65195C140.853 9.52457 140.915 9.35338 140.945 9.21647C141.053 9.18004 141.19 9.111 141.257 9.06909C141.266 9.066 141.276 9.06123 141.29 9.06123C141.298 9.061 141.317 9.06314 141.328 9.08126C141.337 9.10957 141.348 9.14007 141.358 9.16793L141.991 10.9639C142.031 11.0844 142.072 11.2113 142.117 11.3127C142.157 11.4044 142.22 11.4403 142.33 11.4408H142.365V11.4563V11.5751L142.35 11.5741ZM141.377 11.5434C141.547 11.5374 141.713 11.5307 141.877 11.5307C142.037 11.5307 142.186 11.5374 142.335 11.5434V11.4717H142.33C142.213 11.4724 142.132 11.4262 142.089 11.325C142.045 11.2207 142.003 11.0934 141.963 10.9731L141.33 9.1774C141.32 9.15002 141.31 9.11883 141.301 9.09454C141.298 9.09121 141.299 9.09121 141.296 9.09121H141.29C141.282 9.09121 141.278 9.09335 141.27 9.09573C141.203 9.13883 141.066 9.20621 140.964 9.23312C140.943 9.36312 140.881 9.53454 140.836 9.66169L140.287 11.2379C140.234 11.3869 140.114 11.4719 139.974 11.4717H139.969V11.5434C140.087 11.5374 140.206 11.5307 140.325 11.5307C140.457 11.5307 140.593 11.5374 140.724 11.5434V11.4717H140.702C140.59 11.4702 140.434 11.4576 140.43 11.3364C140.43 11.2679 140.472 11.18 140.506 11.0641L140.521 11.0686L140.506 11.0636L140.619 10.6964H141.419L141.557 11.1045C141.596 11.2148 141.627 11.3062 141.627 11.3567C141.622 11.4622 141.477 11.4695 141.399 11.4717H141.377V11.5434H141.377ZM140.675 10.5336L141.003 9.5319H141.015H141.022V9.5469L141.018 9.54762L141.022 9.5469V9.5319H141.032L141.358 10.5336H140.675ZM140.716 10.5038H141.317L141.018 9.58357L140.716 10.5038ZM141.007 9.55121L141.015 9.54859L141.007 9.55121Z" fill="#211E1F"/>
<path d="M142.502 9.33381C142.244 9.33381 142.234 9.39574 142.182 9.64619H142.079C142.093 9.55024 142.11 9.45429 142.121 9.35429C142.135 9.2581 142.141 9.16236 142.141 9.06286H142.224C142.251 9.16595 142.337 9.16238 142.429 9.16238H144.202C144.294 9.16238 144.379 9.15905 144.387 9.05574L144.469 9.06955C144.456 9.16238 144.442 9.25503 144.432 9.34786C144.424 9.4405 144.424 9.53334 144.424 9.62572L144.321 9.66405C144.315 9.53715 144.298 9.33381 144.067 9.33381H143.504V11.161C143.504 11.4257 143.625 11.456 143.789 11.456H143.854V11.5595C143.721 11.5595 143.481 11.546 143.295 11.546C143.089 11.546 142.848 11.5595 142.715 11.5595V11.456H142.78C142.969 11.456 143.065 11.439 143.065 11.1681V9.33381H142.502Z" fill="#211E1F"/>
<path d="M143.854 11.5741C143.719 11.5741 143.479 11.5603 143.295 11.5603C143.089 11.5603 142.849 11.5741 142.714 11.5741H142.699V11.5595V11.4412H142.714H142.779C142.969 11.4367 143.045 11.4343 143.049 11.1681L143.049 9.34883H142.502V9.33381V9.31857H143.079V11.1681C143.079 11.4436 142.968 11.4707 142.779 11.4714H142.729V11.5448C142.865 11.5433 143.095 11.5309 143.295 11.5309C143.474 11.5309 143.703 11.5434 143.839 11.5448V11.4714H143.788C143.623 11.4707 143.49 11.4309 143.489 11.1609V9.31857H144.067C144.298 9.31952 144.328 9.51547 144.334 9.64285L144.409 9.61547C144.409 9.52595 144.41 9.43619 144.416 9.34619C144.426 9.25785 144.439 9.16976 144.451 9.08212L144.399 9.07331C144.384 9.17331 144.287 9.17881 144.201 9.17735H142.429H142.412C142.331 9.17831 142.243 9.17355 142.212 9.07712H142.156C142.155 9.17235 142.148 9.26476 142.135 9.35619C142.126 9.45071 142.109 9.54166 142.096 9.6319H142.17C142.215 9.39259 142.245 9.31497 142.502 9.31857V9.33381V9.34881C142.247 9.35312 142.253 9.39619 142.197 9.65L142.194 9.66166H142.182H142.062L142.064 9.6445C142.078 9.54762 142.095 9.45188 142.105 9.35259C142.119 9.25664 142.126 9.1614 142.126 9.06283V9.04783H142.141H142.234L142.237 9.05855C142.261 9.14521 142.324 9.14569 142.412 9.14712L142.429 9.14759H144.201C144.296 9.14571 144.365 9.14426 144.371 9.05476L144.372 9.03833L144.388 9.04169L144.486 9.05693L144.483 9.07193C144.469 9.16383 144.456 9.25669 144.446 9.34883C144.439 9.44026 144.439 9.53335 144.439 9.62574V9.63645L144.429 9.64026L144.307 9.68454L144.307 9.66452C144.298 9.5355 144.284 9.34881 144.067 9.34881H143.519V11.1609C143.523 11.42 143.625 11.4379 143.788 11.4412H143.869V11.4559V11.574L143.854 11.5741Z" fill="#211E1F"/>
<path d="M144.595 11.456H144.643C144.767 11.456 144.897 11.4393 144.897 11.2605V9.46143C144.897 9.28236 144.767 9.26548 144.643 9.26548H144.595V9.16238C144.729 9.16238 144.935 9.17596 145.103 9.17596C145.275 9.17596 145.481 9.16238 145.643 9.16238V9.26548H145.594C145.471 9.26548 145.34 9.28238 145.34 9.46143V11.2605C145.34 11.4393 145.471 11.456 145.594 11.456H145.643V11.5596C145.478 11.5596 145.271 11.546 145.1 11.546C144.932 11.546 144.729 11.5596 144.595 11.5596V11.456Z" fill="#211E1F"/>
<path d="M145.643 11.5741C145.477 11.5741 145.271 11.56 145.1 11.56C144.932 11.56 144.73 11.5741 144.596 11.5741H144.581V11.5595V11.456V11.4412H144.596H144.644C144.768 11.4393 144.882 11.4286 144.882 11.2605V9.46143C144.882 9.29381 144.768 9.28236 144.644 9.28H144.581V9.2655V9.14764H144.596C144.73 9.14764 144.936 9.16074 145.103 9.16074C145.274 9.16074 145.48 9.14764 145.643 9.14764H145.657V9.16238V9.28H145.643H145.595C145.469 9.28238 145.357 9.29381 145.355 9.46143V11.2605C145.357 11.4286 145.469 11.4393 145.595 11.4412H145.657V11.456V11.5741H145.643ZM145.627 11.5441V11.4714H145.595C145.472 11.4714 145.326 11.4498 145.326 11.2605V9.46143C145.326 9.27167 145.472 9.25024 145.595 9.25024H145.627V9.17738C145.469 9.17834 145.271 9.19072 145.103 9.19072C144.941 9.19072 144.744 9.17834 144.611 9.17738V9.25024H144.644C144.766 9.25024 144.912 9.27167 144.912 9.46143V11.2605C144.912 11.4498 144.766 11.4714 144.644 11.4714H144.611V11.5441C144.743 11.5426 144.937 11.531 145.1 11.531C145.267 11.531 145.466 11.5434 145.627 11.5441H145.627Z" fill="#211E1F"/>
<path d="M147.012 9.11095C147.744 9.11095 148.327 9.56476 148.327 10.2959C148.327 11.086 147.761 11.6109 147.03 11.6109C146.301 11.6109 145.746 11.1164 145.746 10.3781C145.746 9.66404 146.298 9.11095 147.012 9.11095ZM147.064 11.4598C147.73 11.4598 147.846 10.8721 147.846 10.3714C147.846 9.86952 147.576 9.2619 147.005 9.2619C146.404 9.2619 146.226 9.79761 146.226 10.2574C146.226 10.8721 146.508 11.4598 147.064 11.4598Z" fill="#211E1F"/>
<path d="M145.73 10.3781C145.731 9.65571 146.29 9.0969 147.012 9.09595V9.11095V9.12545C146.306 9.12545 145.76 9.67142 145.759 10.3781C145.761 11.1081 146.309 11.5952 147.03 11.5954C147.753 11.5952 148.312 11.0776 148.313 10.2952C148.312 9.57333 147.738 9.1264 147.012 9.12545V9.11095V9.09595C147.749 9.09642 148.34 9.55476 148.342 10.2952C148.341 11.0935 147.767 11.624 147.03 11.6254C146.295 11.624 145.731 11.1245 145.73 10.3781H145.73V10.3781ZM146.211 10.2574C146.212 9.79549 146.392 9.24642 147.005 9.24642C147.588 9.24788 147.86 9.86692 147.861 10.3714C147.86 10.8721 147.742 11.4741 147.064 11.4741V11.4598V11.445C147.717 11.4441 147.83 10.8721 147.831 10.3714C147.831 9.87359 147.563 9.27764 147.005 9.2769C146.416 9.27761 146.242 9.79999 146.241 10.2574C146.241 10.869 146.52 11.4436 147.064 11.445V11.4598V11.4741C146.494 11.4733 146.212 10.8757 146.211 10.2574Z" fill="#211E1F"/>
<path d="M150.641 10.8826L150.648 10.8759V9.58833C150.648 9.30642 150.452 9.26547 150.349 9.26547H150.275V9.16235C150.435 9.16235 150.593 9.17593 150.754 9.17593C150.895 9.17593 151.036 9.16235 151.177 9.16235V9.26547H151.125C150.981 9.26547 150.82 9.29283 150.82 9.70142V11.2643C150.82 11.3843 150.823 11.5043 150.84 11.6107H150.71L148.942 9.63954V11.0545C148.942 11.3534 149 11.456 149.264 11.456H149.323V11.5595C149.175 11.5595 149.028 11.546 148.88 11.546C148.725 11.546 148.567 11.5595 148.413 11.5595V11.456H148.461C148.698 11.456 148.77 11.295 148.77 11.0205V9.57407C148.77 9.38192 148.612 9.2655 148.457 9.2655H148.413V9.1624C148.543 9.1624 148.677 9.17595 148.807 9.17595C148.91 9.17595 149.01 9.1624 149.113 9.1624L150.641 10.8826Z" fill="#211E1F"/>
<path d="M150.841 11.6255L150.698 11.6205L148.956 9.67833V11.0545C148.96 11.3531 149.006 11.4376 149.263 11.4407H149.338V11.4562V11.5741H149.323C149.174 11.5741 149.027 11.5603 148.88 11.5603C148.726 11.5603 148.568 11.5741 148.412 11.5741H148.398V11.5593V11.4407H148.412H148.461C148.687 11.44 148.752 11.2943 148.755 11.0205V9.57407C148.755 9.39122 148.605 9.28026 148.457 9.28002H148.398V9.2655V9.14764H148.412C148.544 9.14764 148.678 9.16076 148.807 9.16076C148.909 9.16076 149.008 9.14764 149.124 9.15267L150.633 10.8515V9.58862C150.632 9.31531 150.449 9.28243 150.349 9.28005H150.258V9.26555V9.14769H150.274C150.436 9.14769 150.594 9.16079 150.754 9.16079C150.895 9.16079 151.035 9.14769 151.177 9.14769H151.192V9.16243V9.28005H151.177H151.125C150.984 9.2841 150.838 9.29695 150.835 9.70148V11.2641C150.835 11.3841 150.837 11.5038 150.854 11.6088L150.857 11.6255H150.841V11.6255ZM150.71 11.5955H150.823C150.808 11.4924 150.805 11.3781 150.805 11.264V9.70143C150.805 9.28857 150.978 9.25119 151.125 9.25H151.162V9.17738C151.027 9.17834 150.891 9.19072 150.754 9.19072C150.598 9.19072 150.444 9.17834 150.289 9.17738V9.25H150.349C150.455 9.25119 150.662 9.29812 150.662 9.58857L150.659 10.8862L150.652 10.8934L150.641 10.9043L149.113 9.17741C149.012 9.17741 148.912 9.19074 148.807 9.19074C148.681 9.19074 148.552 9.17836 148.427 9.17741V9.25003H148.457C148.619 9.25122 148.784 9.37288 148.784 9.57407V11.0205C148.784 11.295 148.708 11.4707 148.461 11.4717L148.427 11.4714V11.5441C148.576 11.5434 148.729 11.531 148.88 11.531C149.023 11.531 149.165 11.5434 149.308 11.5441V11.4717H149.264C148.994 11.4714 148.927 11.3531 148.927 11.0545V9.60095L150.71 11.5955ZM150.641 10.8824L150.652 10.8726L150.641 10.8824ZM150.633 10.876V10.8747L150.63 10.8721L150.633 10.876Z" fill="#211E1F"/>
<path d="M151.729 11.0683C151.695 11.1848 151.654 11.2748 151.654 11.3359C151.654 11.4393 151.798 11.4559 151.911 11.4559H151.949V11.5595C151.812 11.5521 151.671 11.5459 151.533 11.5459C151.409 11.5459 151.286 11.5522 151.163 11.5595V11.4559H151.183C151.317 11.4559 151.431 11.3771 151.482 11.2326L152.032 9.65688C152.076 9.52973 152.138 9.35807 152.158 9.23071C152.268 9.19333 152.405 9.12476 152.471 9.08333C152.481 9.07978 152.488 9.07619 152.498 9.07619C152.509 9.07619 152.515 9.07619 152.522 9.0869C152.532 9.11404 152.543 9.14523 152.553 9.17262L153.185 10.9688C153.226 11.0888 153.267 11.2157 153.312 11.319C153.353 11.4152 153.426 11.4559 153.539 11.4559H153.56V11.5595C153.405 11.5521 153.25 11.546 153.085 11.546C152.917 11.546 152.746 11.5522 152.57 11.5595V11.4559H152.608C152.687 11.4559 152.821 11.4426 152.821 11.3567C152.821 11.3121 152.79 11.2195 152.752 11.1093L152.619 10.7109H151.839L151.729 11.0683ZM152.231 9.5469H152.224L151.904 10.5188H152.547L152.231 9.5469Z" fill="#211E1F"/>
<path d="M153.558 11.5741C153.403 11.5679 153.249 11.5603 153.085 11.5603C152.918 11.5603 152.746 11.5679 152.571 11.5741L152.555 11.575V11.5593V11.4412H152.57H152.607C152.687 11.4412 152.806 11.4226 152.806 11.3567C152.807 11.3176 152.776 11.2241 152.738 11.1141L152.607 10.7257H151.849L151.743 11.0726C151.709 11.1902 151.668 11.2805 151.668 11.336C151.668 11.4203 151.797 11.4412 151.911 11.4412H151.963V11.456V11.575L151.948 11.5741C151.81 11.5679 151.67 11.5603 151.533 11.5603C151.41 11.5603 151.287 11.5679 151.163 11.5741L151.148 11.575V11.5593V11.4412H151.163H151.182C151.311 11.4407 151.418 11.3672 151.468 11.2279L152.017 9.65193C152.061 9.52455 152.123 9.35336 152.153 9.21693C152.261 9.17955 152.399 9.11098 152.466 9.06905C152.475 9.06595 152.484 9.06191 152.498 9.06191C152.507 9.06096 152.525 9.0631 152.536 9.08191C152.546 9.10884 152.556 9.14 152.567 9.16786L153.199 10.9638C153.24 11.0843 153.281 11.2112 153.326 11.3134C153.366 11.4043 153.428 11.4403 153.538 11.4412H153.574V11.456V11.575L153.558 11.5741ZM152.585 11.5438C152.755 11.5374 152.922 11.5307 153.085 11.5307C153.245 11.5307 153.395 11.5374 153.544 11.5433L153.544 11.4716H153.538C153.422 11.4719 153.341 11.4262 153.298 11.325C153.253 11.2207 153.212 11.0933 153.171 10.9736L152.539 9.17738C152.529 9.15 152.518 9.11881 152.51 9.09548C152.507 9.09119 152.507 9.09119 152.505 9.09119H152.498C152.491 9.09119 152.487 9.09357 152.479 9.09595C152.412 9.1381 152.274 9.20665 152.173 9.2331C152.151 9.3631 152.089 9.53429 152.045 9.66167L151.495 11.2379C151.443 11.3869 151.323 11.4719 151.182 11.4716H151.177V11.5433C151.296 11.5374 151.414 11.5307 151.533 11.5307C151.666 11.5307 151.802 11.5374 151.934 11.5433V11.4716H151.911C151.799 11.4702 151.642 11.4581 151.638 11.336C151.639 11.2679 151.681 11.1805 151.715 11.0641L151.729 11.0685L151.715 11.0636L151.828 10.6964H152.628L152.766 11.1045C152.804 11.215 152.835 11.3062 152.835 11.3567C152.83 11.4621 152.686 11.4695 152.607 11.4716H152.585V11.5438H152.585ZM151.883 10.5334L152.213 9.53191H152.223H152.231V9.54691L152.227 9.54762L152.231 9.54691V9.53191H152.241L152.566 10.5334H151.883ZM151.925 10.5038H152.525L152.227 9.58405L151.925 10.5038ZM152.216 9.55122L152.223 9.5486L152.216 9.55122Z" fill="#211E1F"/>
<path d="M154.425 11.2229C154.425 11.3603 154.52 11.4012 154.63 11.4152C154.771 11.4257 154.925 11.4257 155.084 11.4083C155.228 11.391 155.351 11.3086 155.413 11.2229C155.468 11.1471 155.498 11.051 155.519 10.9755H155.619C155.581 11.1712 155.533 11.3641 155.492 11.5595C155.19 11.5595 154.887 11.546 154.586 11.546C154.283 11.546 153.981 11.5595 153.679 11.5595V11.4559H153.726C153.851 11.4559 153.985 11.4393 153.985 11.2262V9.46143C153.985 9.28236 153.851 9.26548 153.726 9.26548H153.679V9.16238C153.861 9.16238 154.039 9.17596 154.221 9.17596C154.397 9.17596 154.568 9.16238 154.743 9.16238V9.26548H154.657C154.527 9.26548 154.425 9.26929 154.425 9.45072V11.2229Z" fill="#211E1F"/>
<path d="M155.492 11.5741C155.189 11.5741 154.887 11.5603 154.586 11.5603C154.283 11.5603 153.981 11.5741 153.679 11.5741H153.664V11.5593V11.4412H153.679H153.726C153.851 11.4383 153.969 11.4298 153.97 11.2262V9.46075C153.969 9.29385 153.852 9.28242 153.726 9.28002H153.664V9.26552V9.14766H153.679C153.861 9.14766 154.04 9.16075 154.221 9.16075C154.396 9.16075 154.567 9.14766 154.744 9.14766H154.758V9.16242V9.28002H154.744H154.657C154.524 9.28383 154.441 9.27764 154.439 9.45075V11.2229C154.44 11.3508 154.524 11.3853 154.631 11.4003C154.691 11.4046 154.755 11.4072 154.821 11.4072C154.905 11.4072 154.993 11.4031 155.081 11.3936C155.221 11.3772 155.342 11.2965 155.401 11.2146C155.454 11.1412 155.484 11.0469 155.505 10.9719L155.508 10.9605H155.519H155.637L155.634 10.9786C155.595 11.1751 155.548 11.367 155.506 11.5624L155.503 11.5741H155.492H155.492V11.5741ZM155.479 11.5441C155.519 11.3579 155.564 11.1757 155.601 10.99H155.53C155.509 11.0648 155.479 11.1569 155.425 11.2319C155.36 11.3209 155.233 11.4048 155.085 11.4231C154.995 11.4324 154.905 11.4371 154.821 11.4371C154.755 11.4371 154.69 11.434 154.628 11.4297C154.516 11.4174 154.408 11.3697 154.409 11.2228V9.45071C154.409 9.25999 154.529 9.25023 154.657 9.25023H154.728V9.17737C154.559 9.17833 154.392 9.19092 154.221 9.19092C154.044 9.19092 153.87 9.17833 153.694 9.17737V9.25023H153.726C153.849 9.25023 153.999 9.27166 153.999 9.46071V11.2262C153.999 11.4483 153.85 11.4714 153.726 11.4714H153.694V11.544C153.99 11.5438 154.287 11.5309 154.586 11.5309C154.884 11.5309 155.182 11.5438 155.479 11.5441Z" fill="#211E1F"/>
<path d="M155.577 9.06476C155.784 9.06476 155.938 9.22381 155.938 9.42762C155.938 9.63047 155.784 9.78809 155.577 9.78809C155.37 9.78809 155.215 9.63047 155.215 9.42762C155.215 9.22383 155.37 9.06476 155.577 9.06476ZM155.577 9.72071C155.739 9.72071 155.863 9.58262 155.863 9.42762C155.863 9.27166 155.741 9.13238 155.577 9.13238C155.414 9.13238 155.29 9.27169 155.29 9.42762C155.29 9.58262 155.414 9.72071 155.577 9.72071ZM155.397 9.61809V9.60023C155.441 9.59404 155.45 9.59547 155.45 9.56785V9.30023C155.45 9.26264 155.446 9.24978 155.399 9.25166V9.23333H155.584C155.647 9.23333 155.706 9.26357 155.706 9.32928C155.706 9.38309 155.67 9.42285 155.62 9.43833L155.68 9.52116C155.707 9.55878 155.739 9.59404 155.759 9.6064V9.61807H155.689C155.655 9.61807 155.626 9.54688 155.559 9.4514H155.519V9.57164C155.519 9.59545 155.527 9.59402 155.572 9.60021V9.61807H155.397V9.61809ZM155.519 9.42762H155.562C155.608 9.42762 155.63 9.39214 155.63 9.33523C155.63 9.27762 155.596 9.25735 155.559 9.25735H155.519V9.42762Z" fill="#211E1F"/>
</g>
<defs>
<linearGradient id="paint0_linear_1066_1504" x1="81.604" y1="8.27915" x2="86.597" y2="8.27915" gradientUnits="userSpaceOnUse">
<stop stop-color="#007940"/>
<stop offset="0.2285" stop-color="#00873F"/>
<stop offset="0.7433" stop-color="#40A737"/>
<stop offset="1" stop-color="#5CB531"/>
</linearGradient>
<linearGradient id="paint1_linear_1066_1504" x1="81.6038" y1="7.5007" x2="86.5973" y2="7.5007" gradientUnits="userSpaceOnUse">
<stop stop-color="#007940"/>
<stop offset="0.2285" stop-color="#00873F"/>
<stop offset="0.7433" stop-color="#40A737"/>
<stop offset="1" stop-color="#5CB531"/>
</linearGradient>
<linearGradient id="paint2_linear_1066_1504" x1="81.6039" y1="6.65419" x2="86.5971" y2="6.65419" gradientUnits="userSpaceOnUse">
<stop stop-color="#007940"/>
<stop offset="0.2285" stop-color="#00873F"/>
<stop offset="0.7433" stop-color="#40A737"/>
<stop offset="1" stop-color="#5CB531"/>
</linearGradient>
<linearGradient id="paint3_linear_1066_1504" x1="70.4253" y1="7.5007" x2="75.4956" y2="7.5007" gradientUnits="userSpaceOnUse">
<stop stop-color="#1F286F"/>
<stop offset="0.4751" stop-color="#004E94"/>
<stop offset="0.8261" stop-color="#0066B1"/>
<stop offset="1" stop-color="#006FBC"/>
</linearGradient>
<linearGradient id="paint4_linear_1066_1504" x1="75.9879" y1="7.5007" x2="80.9123" y2="7.5007" gradientUnits="userSpaceOnUse">
<stop stop-color="#6C2C2F"/>
<stop offset="0.1735" stop-color="#882730"/>
<stop offset="0.5731" stop-color="#BE1833"/>
<stop offset="0.8585" stop-color="#DC0436"/>
<stop offset="1" stop-color="#E60039"/>
</linearGradient>
<clipPath id="clip0_1066_1504">
<rect width="38.7692" height="12" fill="white" transform="translate(0 1.5)"/>
</clipPath>
<clipPath id="clip1_1066_1504">
<rect width="14.0348" height="14" fill="white" transform="translate(91.5942 0.5)"/>
</clipPath>
<clipPath id="clip2_1066_1504">
<rect width="46.3095" height="12" fill="white" transform="translate(109.629 1.5)"/>
</clipPath>
</defs>
</svg>
