<svg width="48" height="48" viewBox="0 0 48 48" fill="none" xmlns="http://www.w3.org/2000/svg">
<rect width="48" height="48" rx="24" fill="#F0F0EE"/>
<g clip-path="url(#clip0_177335_171654)">
<path d="M24.0002 23.2998C22.5335 23.2998 21.3335 22.8331 20.4002 21.8998C19.4668 20.9665 19.0002 19.7665 19.0002 18.2998C19.0002 16.8331 19.4668 15.6331 20.4002 14.6998C21.3335 13.7665 22.5335 13.2998 24.0002 13.2998C25.4668 13.2998 26.6668 13.7665 27.6002 14.6998C28.5335 15.6331 29.0002 16.8331 29.0002 18.2998C29.0002 19.7665 28.5335 20.9665 27.6002 21.8998C26.6668 22.8331 25.4668 23.2998 24.0002 23.2998V23.2998ZM13.3335 33.9998V30.8665C13.3335 30.022 13.5446 29.2998 13.9668 28.6998C14.3891 28.0998 14.9335 27.6442 15.6002 27.3331C17.0891 26.6665 18.5168 26.1665 19.8835 25.8331C21.2502 25.4998 22.6224 25.3331 24.0002 25.3331C25.3779 25.3331 26.7446 25.5054 28.1002 25.8498C29.4557 26.1943 30.8779 26.6887 32.3668 27.3331C33.0557 27.6442 33.6113 28.0998 34.0335 28.6998C34.4557 29.2998 34.6668 30.022 34.6668 30.8665V33.9998H13.3335Z" fill="black" fill-opacity="0.5"/>
</g>
<defs>
<clipPath id="clip0_177335_171654">
<rect x="8" y="8" width="32" height="32" rx="16" fill="white"/>
</clipPath>
</defs>
</svg>
