<svg width="32" height="32" viewBox="0 0 32 32" fill="none" xmlns="http://www.w3.org/2000/svg">
<rect width="32" height="32" rx="16" fill="#D9D9D7"/>
<path d="M16 15.6064C15.175 15.6064 14.5 15.3439 13.975 14.8189C13.45 14.2939 13.1875 13.6189 13.1875 12.7939C13.1875 11.9689 13.45 11.2939 13.975 10.7689C14.5 10.2439 15.175 9.98145 16 9.98145C16.825 9.98145 17.5 10.2439 18.025 10.7689C18.55 11.2939 18.8125 11.9689 18.8125 12.7939C18.8125 13.6189 18.55 14.2939 18.025 14.8189C17.5 15.3439 16.825 15.6064 16 15.6064ZM10 21.6252V19.8627C10 19.3877 10.1187 18.9814 10.3562 18.6439C10.5937 18.3064 10.9 18.0502 11.275 17.8752C12.1125 17.5002 12.9156 17.2189 13.6844 17.0314C14.4531 16.8439 15.225 16.7502 16 16.7502C16.775 16.7502 17.5437 16.8471 18.3062 17.0408C19.0687 17.2346 19.8687 17.5127 20.7062 17.8752C21.0938 18.0502 21.4062 18.3064 21.6437 18.6439C21.8812 18.9814 22 19.3877 22 19.8627V21.6252H10Z" fill="white"/>
</svg>
