<svg width="120" height="26" viewBox="0 0 120 26" fill="none" xmlns="http://www.w3.org/2000/svg">
<path d="M39.2937 7.40341C38.7881 7.18676 38.0658 7.04248 37.2231 7.04248C33.708 7.04248 30.9873 9.71509 30.9873 13.2783C30.9873 16.3602 33.0338 18.3104 35.947 18.3104C36.8462 18.3155 37.735 18.118 38.5474 17.7326C39.2937 17.4436 39.8474 16.986 39.8474 16.2155C39.8234 15.5415 39.2937 15.2045 38.764 15.2045C38.4751 15.2045 38.1622 15.349 37.7288 15.5415C37.311 15.6874 36.8712 15.7607 36.4287 15.7582C34.8155 15.7583 33.8043 14.8675 33.8043 13.1342C33.8043 10.9434 35.4656 9.5709 37.2953 9.5709C37.7307 9.56206 38.1637 9.6356 38.5718 9.78763C38.9088 9.90815 39.1737 10.0285 39.5108 10.0285C40.1608 10.0285 40.6182 9.52284 40.6182 8.80045C40.6179 8.12605 40.0883 7.69268 39.2937 7.40341Z" fill="#8D8D8D"/>
<path d="M47.3351 7.04248C43.844 7.04248 41.2197 9.73913 41.2197 13.3505C41.2197 16.3362 43.2902 18.3104 46.3239 18.3104C49.8391 18.3104 52.4634 15.5896 52.4634 11.9782C52.4634 8.99289 50.3929 7.04248 47.3351 7.04248ZM46.4201 15.927C44.9997 15.927 43.9885 14.9398 43.9885 13.2302C43.9885 10.967 45.5535 9.42609 47.2632 9.42609C48.6838 9.42609 49.695 10.4133 49.695 12.1228C49.6946 14.3619 48.1296 15.927 46.4201 15.927Z" fill="#8D8D8D"/>
<path d="M115.749 10.2324C115.818 9.81626 116.085 9.61872 116.468 9.61872H118.748C119.518 9.61872 120 9.11307 120 8.43911C120 7.76514 119.518 7.25949 118.748 7.25949H116.808C116.423 7.25949 116.194 7.14461 116.258 6.63985L116.292 6.39292C116.388 5.7186 116.051 5.42969 115.642 5.42969C115.305 5.42969 115.088 5.59827 114.751 5.86306L111.91 8.07827C111.573 8.34307 111.356 8.58374 111.356 8.94493C111.358 9.04032 111.379 9.13443 111.417 9.22165C111.456 9.30887 111.512 9.38741 111.581 9.45257C111.651 9.51774 111.733 9.5682 111.823 9.60093C111.912 9.63367 112.008 9.64801 112.103 9.6431H112.522C112.911 9.6431 113.142 9.75913 113.071 10.2789L112.44 14.675C112.416 14.964 112.392 15.253 112.392 15.4937C112.392 17.1791 113.523 18.2625 115.738 18.2625C116.609 18.2706 117.472 18.09 118.266 17.7329C118.82 17.5161 119.157 17.0827 119.157 16.4564C119.157 15.8302 118.652 15.4693 118.146 15.4693C117.881 15.4693 117.616 15.5662 117.327 15.6619C117.014 15.7543 116.69 15.8029 116.364 15.8063C115.57 15.8063 115.16 15.4212 115.16 14.6989C115.16 14.5544 115.184 14.3618 115.209 14.097L115.749 10.2324Z" fill="#8D8D8D"/>
<path d="M75.795 7.18689C75.5786 7.19237 75.3661 7.24603 75.1731 7.34398C74.98 7.44193 74.8112 7.58169 74.6789 7.7531L74.6753 7.75178C74.4534 7.97811 74.2427 8.01015 73.9308 7.77819C73.3762 7.36445 72.6066 7.04199 71.5818 7.04199C68.4278 7.04199 65.972 10.1479 65.972 13.3983C65.972 16.0948 67.6573 18.3099 70.1372 18.3099C70.9445 18.3058 71.7332 18.0676 72.4078 17.6242V17.6278C72.8512 17.4012 73.0381 17.7598 72.9875 18.1416L72.9061 18.6951C72.6172 20.7897 71.3171 21.536 69.8966 21.536C68.9336 21.536 68.2112 21.2472 67.6815 21.0305C67.3927 20.91 67.1278 20.7897 66.8149 20.7897C66.1406 20.7897 65.5869 21.2712 65.5869 22.0416C65.5869 22.6917 66.0203 23.1252 66.5981 23.39C67.3445 23.7753 68.5484 24.1363 69.9688 24.1363C72.689 24.1363 75.1212 22.6196 75.6509 18.8876L77.0955 8.63112C77.2152 7.837 76.6133 7.18689 75.795 7.18689ZM70.889 15.9268C69.5672 15.9268 68.6266 14.9397 68.6266 13.2301C68.6266 10.9668 70.0828 9.42595 71.6734 9.42595C72.9952 9.42595 73.9363 10.4131 73.9363 12.1227C73.9356 14.3617 72.4793 15.9268 70.8887 15.9268H70.889Z" fill="#8D8D8D"/>
<path d="M96.26 7.09077C96.0653 7.08323 95.8716 7.12246 95.6951 7.20517C95.5187 7.28787 95.3646 7.41165 95.2458 7.56614V7.56534C94.9671 7.95972 94.733 7.97768 94.4704 7.8098C93.9139 7.3759 93.1365 7.04297 92.0951 7.04297C88.9172 7.04297 86.4854 10.1489 86.4854 13.3993C86.4854 16.0958 88.1467 18.3109 90.6506 18.3109C91.5336 18.3055 92.3919 18.0183 93.1003 17.4912V17.4937C93.501 17.1887 93.7262 17.2111 93.883 17.5383H93.8835C93.9961 17.7495 94.1657 17.9249 94.373 18.0444C94.5804 18.164 94.8171 18.2229 95.0563 18.2146C95.8509 18.2146 96.3083 17.6609 96.4046 16.9144L97.4639 9.42658C97.5121 9.0896 97.5602 8.75253 97.5844 8.39134C97.5865 8.21793 97.5535 8.04588 97.4874 7.88555C97.4213 7.72523 97.3235 7.57993 97.1998 7.45842C97.076 7.33691 96.929 7.2417 96.7675 7.17851C96.606 7.11533 96.4334 7.08548 96.26 7.09077ZM91.519 15.9269C90.1809 15.9269 89.2289 14.9398 89.2289 13.2302C89.2289 10.9669 90.7027 9.42605 92.3125 9.42605C93.6506 9.42605 94.6026 10.4132 94.6026 12.1228C94.6026 14.3618 93.1288 15.9269 91.519 15.9269Z" fill="#8D8D8D"/>
<path d="M61.0831 7.04248C60.0462 7.04248 59.1238 7.41379 58.3147 8.04471L58.3143 8.04365C58.0023 8.27518 57.7199 8.37588 57.5816 7.99964H57.5812C57.5029 7.73279 57.3389 7.49916 57.1145 7.33488C56.8901 7.1706 56.6178 7.08482 56.3398 7.09081C55.5452 7.09081 55.0638 7.64461 54.9674 8.41506L53.9084 15.9028C53.8498 16.2368 53.8175 16.5749 53.8115 16.9139C53.8115 17.6123 54.3172 18.2141 55.1117 18.2141C55.9063 18.2141 56.3877 17.6604 56.484 16.9139L57.0225 13.0141C57.4117 10.0604 58.988 9.42635 59.9992 9.42635C61.0104 9.42635 61.5642 10.0043 61.5642 10.9192C61.5547 11.1373 61.5306 11.3545 61.4919 11.5693L60.891 15.9512C60.8187 16.3847 60.7705 16.6495 60.7705 16.9142C60.7705 17.6127 61.2762 18.2145 62.0948 18.2145C62.8893 18.2145 63.3467 17.6607 63.4431 16.9142L64.2857 11.0157C64.3098 10.7267 64.3338 10.4859 64.3338 10.2452C64.333 8.24639 62.8893 7.04248 61.0831 7.04248Z" fill="#8D8D8D"/>
<path d="M85.354 7.1148C84.5441 7.1148 83.7835 7.47467 83.1075 8.17276L83.1067 8.17108C82.7949 8.40269 82.504 8.50023 82.3658 8.12363H82.3651C82.3094 7.82876 82.1509 7.56318 81.9179 7.37406C81.6849 7.18493 81.3925 7.0845 81.0924 7.09059C80.298 7.09059 79.816 7.6444 79.7201 8.41484L78.6607 15.9028C78.6024 16.2369 78.5702 16.5749 78.5645 16.9139C78.5645 17.6124 79.07 18.2142 79.8646 18.2142C80.6591 18.2142 81.1406 17.6604 81.2369 16.9139L81.7465 13.2615C82.0737 11.1033 83.2399 9.83425 85.3059 9.71514C86.027 9.6735 86.63 9.16134 86.63 8.3909C86.63 7.59651 86.0763 7.1148 85.354 7.1148Z" fill="#8D8D8D"/>
<path d="M106.397 7.04248C105.36 7.04248 104.438 7.41379 103.629 8.04471L103.628 8.04365C103.317 8.27518 103.034 8.37588 102.896 7.99964H102.895C102.817 7.73282 102.653 7.49921 102.429 7.33493C102.204 7.17066 101.932 7.08486 101.654 7.09081C100.859 7.09081 100.378 7.64461 100.282 8.41506L99.2223 15.9028C99.164 16.2368 99.1318 16.5749 99.126 16.9139C99.126 17.6123 99.6315 18.2141 100.426 18.2141C101.221 18.2141 101.703 17.6604 101.798 16.9139L102.337 13.0141C102.726 10.0604 104.302 9.42635 105.314 9.42635C106.325 9.42635 106.879 10.0043 106.879 10.9192C106.869 11.1373 106.845 11.3544 106.806 11.5693L106.204 15.9511C106.132 16.3846 106.084 16.6494 106.084 16.9142C106.084 17.6126 106.59 18.2144 107.408 18.2144C108.203 18.2144 108.66 17.6607 108.757 16.9142L109.599 11.0156C109.623 10.7267 109.647 10.4858 109.647 10.2451C109.648 8.24639 108.203 7.04248 106.397 7.04248Z" fill="#8D8D8D"/>
<path d="M19.7189 4.5776C19.7189 1.7019 16.3737 0 12.6764 0C5.05886 0 0 5.05895 0 12.6764C0 20.2939 5.05886 25.3529 12.6764 25.3529C16.3737 25.3529 19.7189 23.651 19.7189 20.7753C19.7189 18.3531 16.5498 17.3112 16.5498 12.6764C16.5498 8.0417 19.7189 6.99976 19.7189 4.5776ZM5.45791 14.437C5.10969 14.437 4.76929 14.3338 4.47976 14.1403C4.19023 13.9469 3.96457 13.6719 3.83131 13.3502C3.69805 13.0285 3.66319 12.6745 3.73112 12.3329C3.79905 11.9914 3.96674 11.6777 4.21296 11.4315C4.45919 11.1853 4.7729 11.0176 5.11443 10.9496C5.45595 10.8817 5.80995 10.9166 6.13166 11.0498C6.45338 11.1831 6.72835 11.4088 6.9218 11.6983C7.11526 11.9878 7.21852 12.3282 7.21852 12.6764C7.21575 13.1425 7.02937 13.5887 6.69979 13.9183C6.37021 14.2479 5.924 14.4343 5.45791 14.437ZM12.1394 16.1977C10.9158 16.1977 10.0355 14.7385 10.0355 12.6764C10.0355 10.5589 10.9151 9.1552 12.1394 9.1552C13.3683 9.1552 14.261 10.5537 14.261 12.6764C14.261 14.7991 13.368 16.1977 12.1394 16.1977Z" fill="#8D8D8D"/>
<path d="M22.5219 18.3104C20.5839 18.3104 19.3672 15.9758 19.3672 12.6764C19.3672 9.2885 20.5839 7.04248 22.5219 7.04248C24.4673 7.04248 26.0575 9.28013 26.0575 12.6764C26.0575 16.0728 24.4675 18.3104 22.5219 18.3104Z" fill="#8D8D8D"/>
</svg>
