<svg width="113" height="25" viewBox="0 0 113 25" fill="none" xmlns="http://www.w3.org/2000/svg">
<path d="M10.7715 3.47152C10.1311 3.19435 9.21607 3.00977 8.14874 3.00977C3.6962 3.00977 0.25 6.42898 0.25 10.9876C0.25 14.9304 2.84229 17.4254 6.53235 17.4254C7.67131 17.432 8.7971 17.1793 9.82612 16.6862C10.7715 16.3164 11.4728 15.731 11.4728 14.7453C11.4424 13.883 10.7715 13.4519 10.1005 13.4519C9.73457 13.4519 9.33817 13.6367 8.78923 13.883C8.25997 14.0697 7.70299 14.1634 7.1424 14.1603C5.09905 14.1604 3.81819 13.0208 3.81819 10.8032C3.81819 8.0004 5.92253 6.2445 8.24017 6.2445C8.7916 6.2332 9.34017 6.32728 9.85701 6.52178C10.284 6.67596 10.6195 6.82991 11.0464 6.82991C11.8698 6.82991 12.4492 6.18301 12.4492 5.25883C12.4487 4.39603 11.7779 3.84159 10.7715 3.47152Z" fill="#6BC634"/>
<path d="M20.9581 3.00977C16.536 3.00977 13.2119 6.45973 13.2119 11.0799C13.2119 14.8996 15.8345 17.4254 19.6772 17.4254C24.1298 17.4254 27.4539 13.9446 27.4539 9.32427C27.4539 5.50503 24.8313 3.00977 20.9581 3.00977ZM19.7991 14.3762C17.9999 14.3762 16.719 13.1132 16.719 10.9261C16.719 8.03058 18.7013 6.05924 20.867 6.05924C22.6664 6.05924 23.9472 7.32219 23.9472 9.50931C23.9468 12.3739 21.9645 14.3762 19.7991 14.3762Z" fill="#6BC634"/>
<path d="M107.616 7.0916C107.703 6.55924 108.042 6.30651 108.526 6.30651H111.414C112.39 6.30651 113 5.65961 113 4.79737C113 3.93514 112.39 3.28823 111.414 3.28823H108.958C108.47 3.28823 108.18 3.14126 108.26 2.49548L108.304 2.17958C108.426 1.31689 107.999 0.947266 107.48 0.947266C107.053 0.947266 106.779 1.16294 106.352 1.5017L102.753 4.33573C102.326 4.6745 102.052 4.98241 102.052 5.4445C102.054 5.56653 102.08 5.68693 102.129 5.79852C102.178 5.9101 102.248 6.01058 102.337 6.09395C102.425 6.17732 102.529 6.24188 102.642 6.28376C102.756 6.32564 102.877 6.34399 102.997 6.33771H103.528C104.021 6.33771 104.314 6.48614 104.223 7.15107L103.424 12.7753C103.394 13.1451 103.363 13.5147 103.363 13.8227C103.363 15.9789 104.796 17.3649 107.602 17.3649C108.706 17.3754 109.798 17.1443 110.804 16.6874C111.506 16.4101 111.933 15.8555 111.933 15.0543C111.933 14.2531 111.292 13.7914 110.652 13.7914C110.316 13.7914 109.981 13.9153 109.615 14.0377C109.219 14.1559 108.808 14.2181 108.395 14.2225C107.389 14.2225 106.87 13.7299 106.87 12.8057C106.87 12.6209 106.901 12.3745 106.931 12.0357L107.616 7.0916Z" fill="#6BC634"/>
<path d="M57.0065 3.19514C56.7323 3.20215 56.4632 3.27081 56.2186 3.39612C55.9741 3.52143 55.7602 3.70024 55.5927 3.91953L55.5881 3.91784C55.307 4.20739 55.0402 4.2485 54.6451 3.95163C53.9427 3.4223 52.9678 3.00977 51.6697 3.00977C47.6746 3.00977 44.5639 6.98331 44.5639 11.1418C44.5639 14.5915 46.6987 17.4254 49.8399 17.4254C50.8624 17.4202 51.8615 17.1154 52.716 16.5481V16.5527C53.2776 16.2628 53.5144 16.7216 53.4502 17.2101L53.3472 17.9181C52.9812 20.5979 51.3344 21.5527 49.5352 21.5527C48.3153 21.5527 47.4003 21.1833 46.7293 20.906C46.3635 20.7518 46.028 20.5979 45.6316 20.5979C44.7775 20.5979 44.0762 21.2139 44.0762 22.1996C44.0762 23.0313 44.6251 23.5859 45.357 23.9246C46.3025 24.4176 47.8273 24.8794 49.6266 24.8794C53.0728 24.8794 56.1529 22.939 56.8238 18.1645L58.6538 5.04282C58.8054 4.02686 58.0429 3.19514 57.0065 3.19514ZM50.7922 14.3766C49.1179 14.3766 47.9265 13.1137 47.9265 10.9266C47.9265 8.03103 49.771 6.05969 51.7858 6.05969C53.4601 6.05969 54.6521 7.32264 54.6521 9.50976C54.6512 12.3743 52.8065 14.3766 50.7917 14.3766H50.7922Z" fill="#6BC634"/>
<path d="M82.9296 3.07287C82.6829 3.06322 82.4376 3.1134 82.2141 3.21921C81.9906 3.32502 81.7955 3.48339 81.645 3.68103L81.6445 3.68002C81.2914 4.18457 80.9949 4.20754 80.6623 3.99277C79.9574 3.43766 78.9727 3.01172 77.6536 3.01172C73.6282 3.01172 70.5479 6.98526 70.5479 11.1437C70.5479 14.5935 72.6522 17.4274 75.8239 17.4274C76.9424 17.4205 78.0295 17.053 78.9268 16.3786V16.3819C79.4343 15.9917 79.7197 16.0204 79.9182 16.439H79.9188C80.0615 16.7092 80.2763 16.9335 80.5389 17.0864C80.8016 17.2394 81.1014 17.3148 81.4044 17.3042C82.4108 17.3042 82.9902 16.5958 83.1122 15.6407L84.4541 6.06119C84.5151 5.63007 84.5761 5.19884 84.6066 4.73675C84.6093 4.51495 84.5676 4.29488 84.4839 4.08979C84.4002 3.8847 84.2763 3.69884 84.1196 3.5434C83.9629 3.38795 83.7767 3.26613 83.5722 3.18526C83.3677 3.1044 83.1491 3.06617 82.9296 3.07287ZM76.9242 14.3775C75.2293 14.3775 74.0236 13.1145 74.0236 10.9274C74.0236 8.03186 75.8903 6.06052 77.9294 6.06052C79.6243 6.06052 80.8301 7.32346 80.8301 9.51059C80.8301 12.3751 78.9633 14.3775 76.9242 14.3775Z" fill="#6BC634"/>
<path d="M38.3718 3.00977C37.0585 3.00977 35.8901 3.48481 34.8652 4.29197L34.8647 4.29062C34.4695 4.58682 34.1118 4.71566 33.9366 4.23431H33.936C33.8369 3.89291 33.6291 3.59402 33.3449 3.38385C33.0606 3.17368 32.7158 3.06394 32.3636 3.07159C31.3572 3.07159 30.7473 3.7801 30.6252 4.76577L29.2838 14.3452C29.2097 14.7725 29.1687 15.205 29.1611 15.6388C29.1611 16.5323 29.8016 17.3022 30.8081 17.3022C31.8145 17.3022 32.4243 16.5938 32.5463 15.6388L33.2284 10.6496C33.7214 6.87068 35.718 6.05958 36.9989 6.05958C38.2797 6.05958 38.9812 6.79894 38.9812 7.96943C38.9692 8.24843 38.9386 8.5263 38.8897 8.80114L38.1284 14.4071C38.0369 14.9617 37.9759 15.3005 37.9759 15.6392C37.9759 16.5328 38.6164 17.3027 39.6533 17.3027C40.6597 17.3027 41.2391 16.5943 41.3611 15.6392L42.4284 8.09286C42.459 7.72324 42.4894 7.4151 42.4894 7.10719C42.4883 4.54999 40.6596 3.00977 38.3718 3.00977Z" fill="#6BC634"/>
<path d="M69.1138 3.10357C68.0879 3.10357 67.1245 3.56397 66.2682 4.45707L66.2673 4.45493C65.8722 4.75124 65.5038 4.87602 65.3287 4.39422H65.3278C65.2572 4.01698 65.0566 3.67721 64.7614 3.43525C64.4663 3.19329 64.0958 3.0648 63.7158 3.0726C62.7094 3.0726 62.0989 3.78111 61.9775 4.76678L60.6355 14.3465C60.5617 14.7739 60.521 15.2064 60.5137 15.6401C60.5137 16.5337 61.154 17.3036 62.1605 17.3036C63.167 17.3036 63.7768 16.5952 63.8988 15.6401L64.5443 10.9674C64.9587 8.20626 66.4359 6.5827 69.0528 6.43032C69.9662 6.37705 70.7301 5.72181 70.7301 4.73614C70.7301 3.71984 70.0287 3.10357 69.1138 3.10357Z" fill="#6BC634"/>
<path d="M95.7689 3.00977C94.4555 3.00977 93.2871 3.48481 92.2623 4.29197L92.2618 4.29062C91.8667 4.58682 91.5088 4.71566 91.3337 4.23431H91.333C91.2339 3.89295 91.0262 3.59408 90.742 3.38392C90.4578 3.17375 90.113 3.06399 89.7608 3.07159C88.7544 3.07159 88.144 3.7801 88.0224 4.76577L86.6806 14.3452C86.6067 14.7725 86.566 15.205 86.5586 15.6388C86.5586 16.5323 87.199 17.3022 88.2054 17.3022C89.2119 17.3022 89.8222 16.5938 89.9437 15.6388L90.6259 10.6496C91.1188 6.87068 93.1153 6.05958 94.3963 6.05958C95.6773 6.05958 96.3786 6.79894 96.3786 7.96943C96.3666 8.24842 96.336 8.52628 96.2871 8.80114L95.5247 14.407C95.4332 14.9616 95.3722 15.3004 95.3722 15.6391C95.3722 16.5327 96.0126 17.3026 97.0495 17.3026C98.056 17.3026 98.6353 16.5942 98.7573 15.6391L99.8248 8.09275C99.8553 7.72312 99.8858 7.41499 99.8858 7.10708C99.886 4.54999 98.0562 3.00977 95.7689 3.00977Z" fill="#6BC634"/>
</svg>
