<svg width="154" height="35" viewBox="0 0 154 35" fill="none" xmlns="http://www.w3.org/2000/svg">
<path d="M50.4265 10.909C49.7777 10.631 48.8507 10.4458 47.7693 10.4458C43.2581 10.4458 39.7666 13.8757 39.7666 18.4485C39.7666 22.4035 42.393 24.9064 46.1316 24.9064C47.2856 24.9129 48.4262 24.6594 49.4687 24.1648C50.4265 23.7939 51.1371 23.2067 51.1371 22.2179C51.1063 21.3529 50.4265 20.9204 49.7468 20.9204C49.376 20.9204 48.9744 21.1058 48.4182 21.3529C47.882 21.5401 47.3177 21.6342 46.7497 21.631C44.6795 21.6311 43.3817 20.488 43.3817 18.2635C43.3817 15.452 45.5138 13.6906 47.8619 13.6906C48.4206 13.6793 48.9764 13.7736 49.5 13.9688C49.9326 14.1234 50.2725 14.2778 50.7051 14.2778C51.5393 14.2778 52.1263 13.6289 52.1263 12.7019C52.1259 11.8364 51.4462 11.2802 50.4265 10.909Z" fill="#8D8D8D"/>
<path d="M60.7468 10.4458C56.2665 10.4458 52.8987 13.9065 52.8987 18.5411C52.8987 22.3727 55.5558 24.9064 59.4491 24.9064C63.9602 24.9064 67.3281 21.4147 67.3281 16.78C67.3281 12.9488 64.6709 10.4458 60.7468 10.4458ZM59.5726 21.8476C57.7496 21.8476 56.4519 20.5807 56.4519 18.3868C56.4519 15.4823 58.4603 13.5048 60.6545 13.5048C62.4776 13.5048 63.7753 14.7717 63.7753 16.9656C63.7748 19.8391 61.7664 21.8476 59.5726 21.8476Z" fill="#8D8D8D"/>
<path d="M148.545 14.5399C148.633 14.0059 148.977 13.7524 149.468 13.7524H152.394C153.382 13.7524 154 13.1035 154 12.2386C154 11.3736 153.382 10.7247 152.394 10.7247H149.904C149.41 10.7247 149.116 10.5773 149.198 9.92951L149.242 9.61262C149.365 8.74724 148.933 8.37646 148.408 8.37646C147.975 8.37646 147.697 8.59281 147.264 8.93263L143.618 11.7755C143.186 12.1153 142.908 12.4242 142.908 12.8877C142.91 13.0101 142.936 13.1309 142.986 13.2428C143.035 13.3548 143.107 13.4556 143.196 13.5392C143.286 13.6228 143.391 13.6876 143.506 13.7296C143.621 13.7716 143.743 13.79 143.866 13.7837H144.403C144.903 13.7837 145.199 13.9326 145.108 14.5996L144.298 20.2413C144.267 20.6122 144.236 20.983 144.236 21.292C144.236 23.4549 145.689 24.8452 148.531 24.8452C149.649 24.8557 150.756 24.6239 151.776 24.1656C152.486 23.8874 152.919 23.3312 152.919 22.5275C152.919 21.7238 152.27 21.2607 151.621 21.2607C151.281 21.2607 150.941 21.385 150.57 21.5078C150.169 21.6264 149.753 21.6887 149.334 21.6932C148.315 21.6932 147.79 21.1989 147.79 20.272C147.79 20.0866 147.82 19.8394 147.851 19.4996L148.545 14.5399Z" fill="#8D8D8D"/>
<path d="M97.2699 10.6318C96.9921 10.6388 96.7195 10.7077 96.4717 10.8334C96.2239 10.9591 96.0072 11.1384 95.8375 11.3584L95.8329 11.3567C95.5481 11.6472 95.2777 11.6883 94.8775 11.3906C94.1657 10.8596 93.178 10.4458 91.8629 10.4458C87.8152 10.4458 84.6636 14.4317 84.6636 18.6031C84.6636 22.0636 86.8264 24.9064 90.009 24.9064C91.045 24.9011 92.0572 24.5954 92.9229 24.0263V24.0309C93.492 23.7401 93.7318 24.2004 93.6669 24.6903L93.5625 25.4006C93.1917 28.0887 91.5232 29.0465 89.7003 29.0465C88.4643 29.0465 87.5373 28.6759 86.8575 28.3978C86.4869 28.2431 86.1469 28.0887 85.7453 28.0887C84.88 28.0887 84.1694 28.7067 84.1694 29.6954C84.1694 30.5297 84.7256 31.086 85.4672 31.4258C86.4251 31.9203 87.97 32.3836 89.7929 32.3836C93.2838 32.3836 96.4051 30.4371 97.0849 25.6477L98.9389 12.4852C99.0925 11.4661 98.32 10.6318 97.2699 10.6318ZM90.9738 21.8481C89.2775 21.8481 88.0704 20.5812 88.0704 18.3872C88.0704 15.4827 89.9392 13.5052 91.9805 13.5052C93.6768 13.5052 94.8845 14.7721 94.8845 16.966C94.8836 19.8395 93.0147 21.8481 90.9734 21.8481H90.9738Z" fill="#8D8D8D"/>
<path d="M123.534 10.5081C123.284 10.4984 123.035 10.5488 122.809 10.6549C122.582 10.7611 122.385 10.9199 122.232 11.1182V11.1172C121.875 11.6233 121.574 11.6463 121.237 11.4309C120.523 10.874 119.525 10.4468 118.189 10.4468C114.111 10.4468 110.99 14.4327 110.99 18.6041C110.99 22.0646 113.122 24.9073 116.335 24.9073C117.468 24.9004 118.57 24.5318 119.479 23.8553V23.8586C119.993 23.4671 120.282 23.496 120.483 23.9159H120.484C120.628 24.1869 120.846 24.4119 121.112 24.5653C121.378 24.7188 121.682 24.7944 121.989 24.7837C123.009 24.7837 123.596 24.0731 123.719 23.1151L125.079 13.5057C125.141 13.0733 125.202 12.6407 125.233 12.1772C125.236 11.9546 125.194 11.7339 125.109 11.5281C125.024 11.3223 124.899 11.1359 124.74 10.9799C124.581 10.824 124.392 10.7018 124.185 10.6207C123.978 10.5396 123.756 10.5013 123.534 10.5081ZM117.449 21.8479C115.732 21.8479 114.511 20.581 114.511 18.3871C114.511 15.4826 116.402 13.5051 118.468 13.5051C120.185 13.5051 121.407 14.772 121.407 16.9659C121.407 19.8394 119.515 21.8479 117.449 21.8479Z" fill="#8D8D8D"/>
<path d="M78.3901 10.4458C77.0594 10.4458 75.8757 10.9223 74.8374 11.732L74.8368 11.7306C74.4364 12.0278 74.074 12.157 73.8965 11.6742H73.896C73.7955 11.3317 73.585 11.0319 73.297 10.821C73.009 10.6102 72.6596 10.5001 72.3028 10.5078C71.2831 10.5078 70.6653 11.2185 70.5416 12.2073L69.1825 21.8165C69.1074 22.2452 69.0659 22.679 69.0582 23.1141C69.0582 24.0105 69.7071 24.7828 70.7268 24.7828C71.7465 24.7828 72.3644 24.0722 72.488 23.1141L73.179 18.1094C73.6785 14.3187 75.7014 13.5051 76.9991 13.5051C78.2968 13.5051 79.0075 14.2468 79.0075 15.4209C78.9954 15.7008 78.9644 15.9795 78.9148 16.2552L78.1435 21.8787C78.0508 22.435 77.989 22.7748 77.989 23.1146C77.989 24.0109 78.6379 24.7832 79.6884 24.7832C80.7081 24.7832 81.2951 24.0726 81.4187 23.1146L82.5001 15.5447C82.5311 15.1739 82.5619 14.8649 82.5619 14.556C82.5608 11.9908 80.708 10.4458 78.3901 10.4458Z" fill="#8D8D8D"/>
<path d="M109.537 10.5387C108.497 10.5387 107.521 11.0006 106.654 11.8964L106.653 11.8943C106.252 12.1915 105.879 12.3167 105.702 11.8334H105.701C105.629 11.455 105.426 11.1142 105.127 10.8714C104.828 10.6287 104.453 10.4998 104.068 10.5077C103.048 10.5077 102.43 11.2184 102.306 12.2071L100.947 21.8167C100.872 22.2454 100.831 22.6792 100.823 23.1143C100.823 24.0107 101.472 24.7829 102.492 24.7829C103.512 24.7829 104.129 24.0723 104.253 23.1143L104.907 18.4271C105.327 15.6573 106.823 14.0287 109.475 13.8758C110.4 13.8224 111.174 13.1651 111.174 12.1764C111.174 11.1569 110.464 10.5387 109.537 10.5387Z" fill="#8D8D8D"/>
<path d="M136.543 10.4458C135.212 10.4458 134.028 10.9223 132.99 11.732L132.989 11.7306C132.589 12.0278 132.226 12.157 132.049 11.6742H132.048C131.948 11.3317 131.737 11.0319 131.449 10.8211C131.162 10.6103 130.812 10.5002 130.455 10.5078C129.436 10.5078 128.817 11.2185 128.694 12.2073L127.335 21.8165C127.26 22.2452 127.219 22.6791 127.211 23.1141C127.211 24.0105 127.86 24.7828 128.88 24.7828C129.899 24.7828 130.518 24.0722 130.641 23.1141L131.332 18.1094C131.831 14.3187 133.854 13.5051 135.152 13.5051C136.45 13.5051 137.16 14.2468 137.16 15.4209C137.148 15.7008 137.117 15.9795 137.068 16.2552L136.295 21.8786C136.202 22.4348 136.141 22.7747 136.141 23.1145C136.141 24.0108 136.789 24.7831 137.84 24.7831C138.86 24.7831 139.447 24.0725 139.57 23.1145L140.652 15.5446C140.683 15.1738 140.714 14.8647 140.714 14.5559C140.714 11.9908 138.86 10.4458 136.543 10.4458Z" fill="#8D8D8D"/>
<path d="M25.306 7.2828C25.306 3.59231 21.013 1.4082 16.2681 1.4082C6.49222 1.4082 0 7.90054 0 17.6763C0 27.4521 6.49222 33.9444 16.2681 33.9444C21.013 33.9444 25.306 31.7603 25.306 28.0698C25.306 24.9614 21.2389 23.6242 21.2389 17.6763C21.2389 11.7284 25.306 10.3913 25.306 7.2828ZM7.00433 19.9358C6.55745 19.9358 6.12061 19.8033 5.74904 19.555C5.37747 19.3067 5.08787 18.9538 4.91686 18.541C4.74585 18.1281 4.7011 17.6738 4.78828 17.2355C4.87546 16.7972 5.09066 16.3946 5.40665 16.0786C5.72264 15.7627 6.12524 15.5475 6.56353 15.4603C7.00182 15.3731 7.45612 15.4178 7.86899 15.5889C8.28185 15.7599 8.63473 16.0495 8.883 16.421C9.13127 16.7926 9.26379 17.2294 9.26379 17.6763C9.26023 18.2745 9.02104 18.8471 8.59808 19.2701C8.17512 19.693 7.60248 19.9322 7.00433 19.9358ZM15.579 22.1952C14.0087 22.1952 12.8789 20.3227 12.8789 17.6763C12.8789 14.9589 14.0078 13.1574 15.579 13.1574C17.1561 13.1574 18.3016 14.9522 18.3016 17.6763C18.3016 20.4004 17.1556 22.1952 15.579 22.1952Z" fill="#8D8D8D"/>
<path d="M28.9025 24.9068C26.4154 24.9068 24.854 21.9108 24.854 17.6766C24.854 13.3287 26.4154 10.4463 28.9025 10.4463C31.3992 10.4463 33.44 13.318 33.44 17.6766C33.44 22.0352 31.3994 24.9068 28.9025 24.9068Z" fill="#8D8D8D"/>
</svg>
