<svg width="20" height="20" viewBox="0 0 20 20" fill="none" xmlns="http://www.w3.org/2000/svg">
<path d="M17.8931 5.95059C17.9052 6.12559 17.9052 6.30059 17.9052 6.47721C17.9052 11.8587 13.8085 18.0651 6.31733 18.0651V18.0619C4.10442 18.0651 1.93749 17.4312 0.074585 16.2361C0.396359 16.2748 0.719746 16.2941 1.04394 16.2949C2.87781 16.2966 4.65926 15.6812 6.102 14.5482C4.35926 14.5151 2.83104 13.3788 2.29717 11.7199C2.90765 11.8377 3.53668 11.8135 4.13588 11.6498C2.23588 11.2659 0.86894 9.59656 0.86894 7.65785C0.86894 7.64011 0.86894 7.62317 0.86894 7.60624C1.43507 7.92156 2.06894 8.09656 2.71733 8.11592C0.927811 6.91995 0.376198 4.5393 1.45684 2.67801C3.52458 5.22237 6.57539 6.76914 9.85039 6.93285C9.52217 5.51833 9.97055 4.03608 11.0286 3.04172C12.6689 1.49979 15.2488 1.57882 16.7907 3.21833C17.7028 3.0385 18.577 2.70382 19.377 2.22963C19.073 3.17237 18.4367 3.97317 17.5867 4.48204C18.3939 4.38688 19.1826 4.17075 19.9254 3.84092C19.3786 4.66027 18.6899 5.37398 17.8931 5.95059Z" fill="#1D9BF0"/>
</svg>
