<svg width="20" height="20" viewBox="0 0 20 20" fill="none" xmlns="http://www.w3.org/2000/svg">
<g clip-path="url(#clip0_716_1862)">
<path d="M10.0008 1.80167C12.6711 1.80167 12.9871 1.81199 14.0418 1.86002C15.0167 1.90448 15.5462 2.06723 15.8987 2.20418C16.3655 2.38559 16.6986 2.60232 17.0487 2.95204C17.3988 3.30215 17.6155 3.63519 17.7965 4.102C17.9335 4.4545 18.0962 4.98403 18.1407 5.95894C18.1887 7.01325 18.199 7.32962 18.199 9.99991C18.199 12.6702 18.1887 12.9862 18.1407 14.0409C18.0962 15.0158 17.9335 15.5453 17.7965 15.8978C17.6151 16.3646 17.3984 16.6977 17.0487 17.0478C16.6986 17.3979 16.3655 17.6146 15.8987 17.7956C15.5462 17.9326 15.0167 18.0953 14.0418 18.1398C12.9875 18.1878 12.6711 18.1981 10.0008 18.1981C7.3305 18.1981 7.01413 18.1878 5.95983 18.1398C4.98492 18.0953 4.45538 17.9326 4.10289 17.7956C3.63607 17.6142 3.30303 17.3975 2.95292 17.0478C2.60281 16.6977 2.38607 16.3646 2.20506 15.8978C2.06812 15.5453 1.90537 15.0158 1.86091 14.0409C1.81288 12.9866 1.80256 12.6702 1.80256 9.99991C1.80256 7.32962 1.81288 7.01364 1.86091 5.95894C1.90537 4.98403 2.06812 4.4545 2.20506 4.102C2.38647 3.63519 2.60321 3.30215 2.95292 2.95204C3.30264 2.60193 3.63607 2.38519 4.10289 2.20418C4.45538 2.06723 4.98492 1.90448 5.95983 1.86002C7.01413 1.81199 7.3305 1.80167 10.0008 1.80167ZM10.0008 -9.13298e-05C7.28485 -9.13298e-05 6.94427 0.0114203 5.87766 0.0602453C4.81343 0.108673 4.08622 0.277775 3.4503 0.525075C2.79255 0.780712 2.23484 1.12249 1.6791 1.67862C1.12297 2.23475 0.7812 2.79207 0.525563 3.44981C0.278659 4.08573 0.109558 4.81255 0.0611301 5.87677C0.012305 6.94338 0.000793457 7.28397 0.000793457 9.99991C0.000793457 12.7159 0.012305 13.0564 0.0611301 14.123C0.109558 15.1873 0.278659 15.9145 0.52596 16.5504C0.781597 17.2082 1.12337 17.7659 1.6795 18.3216C2.23563 18.8777 2.79295 19.2195 3.4507 19.4751C4.08661 19.7224 4.81383 19.8915 5.87806 19.94C6.94466 19.9888 7.28525 20.0003 10.0012 20.0003C12.7171 20.0003 13.0577 19.9888 14.1243 19.94C15.1885 19.8915 15.9158 19.7224 16.5517 19.4751C17.2094 19.2195 17.7671 18.8777 18.3229 18.3216C18.879 17.7655 19.2208 17.2082 19.4764 16.5504C19.7237 15.9145 19.8928 15.1873 19.9412 14.123C19.9901 13.0564 20.0016 12.7159 20.0016 9.99991C20.0016 7.28397 19.9901 6.94338 19.9412 5.87677C19.8928 4.81255 19.7237 4.08533 19.4764 3.44942C19.2208 2.79167 18.879 2.23395 18.3229 1.67822C17.7668 1.12209 17.2094 0.780315 16.5517 0.524678C15.9158 0.277378 15.1885 0.108276 14.1243 0.0598483C13.0577 0.0110233 12.7171 -0.000488281 10.0012 -0.000488281L10.0008 -9.13298e-05Z" fill="#AAAAAA"/>
<path d="M10.0008 4.86523C7.16459 4.86523 4.86584 7.16438 4.86584 10.0002C4.86584 12.836 7.16499 15.1352 10.0008 15.1352C12.8366 15.1352 15.1358 12.836 15.1358 10.0002C15.1358 7.16438 12.8366 4.86523 10.0008 4.86523ZM10.0008 13.3338C8.15975 13.3338 6.66761 11.8413 6.66761 10.0006C6.66761 8.15993 8.16014 6.66739 10.0008 6.66739C11.8415 6.66739 13.334 8.15993 13.334 10.0006C13.334 11.8413 11.8415 13.3338 10.0008 13.3338Z" fill="#AAAAAA"/>
<path d="M15.339 5.86188C16.0018 5.86188 16.539 5.32463 16.539 4.6619C16.539 3.99917 16.0018 3.46191 15.339 3.46191C14.6763 3.46191 14.139 3.99917 14.139 4.6619C14.139 5.32463 14.6763 5.86188 15.339 5.86188Z" fill="#AAAAAA"/>
</g>
<defs>
<clipPath id="clip0_716_1862">
<rect width="20" height="20" fill="white" transform="translate(0.000793457)"/>
</clipPath>
</defs>
</svg>
