<svg width="20" height="20" viewBox="0 0 20 20" fill="none" xmlns="http://www.w3.org/2000/svg">
<path d="M17.9532 6.04588C17.9654 6.2222 17.9654 6.39852 17.9654 6.57647C17.9654 11.9986 13.8377 18.2519 6.28992 18.2519V18.2487C4.06029 18.2519 1.87698 17.6133 0 16.4091C0.324206 16.4481 0.650037 16.4676 0.97668 16.4684C2.82441 16.47 4.61932 15.8501 6.07297 14.7084C4.31706 14.6751 2.77728 13.5302 2.23938 11.8588C2.85447 11.9775 3.48826 11.9531 4.09198 11.7881C2.17762 11.4014 0.800358 9.7194 0.800358 7.76604V7.71403C1.37076 8.03174 2.00943 8.20806 2.66271 8.22756C0.859673 7.02256 0.303892 4.62392 1.3927 2.74857C3.47607 5.31215 6.54993 6.87061 9.84968 7.03556C9.51897 5.61035 9.97075 4.11689 11.0368 3.11503C12.6895 1.56144 15.2889 1.64107 16.8424 3.29297C17.7614 3.11178 18.6422 2.77457 19.4483 2.29679C19.142 3.24666 18.5009 4.05352 17.6444 4.56623C18.4578 4.47035 19.2525 4.25259 20.0008 3.92026C19.4499 4.74418 18.7568 5.46328 17.954 6.04425L17.9532 6.04588Z" fill="#A5A5A5"/>
</svg>
